<svg width="96" height="96" viewBox="0 0 96 96" fill="none" xmlns="http://www.w3.org/2000/svg">
<path fill-rule="evenodd" clip-rule="evenodd" d="M43.1535 8.19268V16.3854H41.7179H40.2823L40.1809 14.8437C39.9511 11.3432 38.842 9.022 36.4394 7.01196C34.51 5.39792 32.1578 4.54247 29.6489 4.54247H28.2282V3.81243V3.08239H26.7682H25.3081V3.81243V4.54247H19.3055H13.303V3.81243V3.08239H11.8429H10.3828V3.81243V4.54247H5.1914H0V6.00256V7.46264H5.1914H10.3828V9.00383V10.545H5.1914H0V12.0051V13.4652H5.1914H10.3828V14.1952V14.9253H11.8429H13.303V14.1952V13.4652H19.3055H25.3081V14.1952V14.9253H26.7682H28.2282V14.1952C28.2282 13.5129 28.2565 13.4652 28.6601 13.4652C29.4664 13.4652 30.4914 14.227 30.918 15.1435C31.4586 16.3042 31.4365 16.3854 30.5806 16.3854H29.8505V17.9265V19.4677H30.5806H31.3106V36.2459V53.024L30.3885 54.6185C29.1289 56.797 28.8442 57.5991 28.8437 58.9711C28.8433 60.533 29.4323 61.983 30.5099 63.0719L31.3106 63.8811V69.9838V76.0864H30.5806H29.8505V77.5373V78.988L30.54 79.0379L31.2295 79.0877L31.2728 83.3633L31.3161 87.6391L29.5872 91.1143C28.6362 93.0257 27.8963 94.6274 27.9427 94.6739C27.9893 94.7203 28.5624 95.0373 29.2165 95.3783L30.4059 95.9982L32.3184 92.1871L34.2308 88.3758V83.6852V78.9944L35.7314 79.041L37.2321 79.0877L37.2752 83.32L37.3185 87.5521L35.6025 90.996C34.6586 92.89 33.9131 94.5201 33.9459 94.6183C33.9785 94.7164 34.5304 95.0668 35.1722 95.3968L36.3391 95.9971L36.7867 95.1673C37.0328 94.7109 37.9091 92.976 38.7338 91.312L40.2333 88.2867V83.6466V79.0066H41.6934H43.1535V83.4274L43.1533 87.8482L41.4559 91.2474C40.5223 93.117 39.7741 94.6605 39.793 94.6775C39.8122 94.6945 40.3946 94.999 41.0875 95.3542L42.3471 96L44.1699 92.341L45.9925 88.6819L46.0737 83.8849L46.1548 79.0877L47.6554 79.041L49.1561 78.9944V83.362V87.7298L47.4372 91.1668C46.4917 93.0573 45.7435 94.6262 45.7743 94.6533C45.8052 94.6804 46.3837 94.9939 47.0602 95.3499L48.2901 95.9972L50.1426 92.3297L51.9951 88.6623L52.0762 83.875L52.1573 79.0877H53.6174H55.0775L55.1185 83.3868L55.1594 87.686L53.4557 91.0704C52.5185 92.9319 51.7518 94.5164 51.7518 94.5915C51.7518 94.6666 52.3175 95.0131 53.0091 95.3616L54.2663 95.995L56.1726 92.188L58.0788 88.381V83.6878V78.9944L59.5775 79.041L61.0763 79.0877L61.2027 79.98C61.552 82.4467 63.4378 84.4071 65.9124 84.8766L67.0015 85.0831V85.7762V86.4692H68.4523H69.903L69.953 85.7798L70.0028 85.0903L75.9648 85.0478L81.9268 85.0051V85.7373V86.4692H83.3868H84.8469V85.7392V85.0092H90.1194H95.392V83.5491V82.089H90.1194H84.8469V81.359V80.6289H83.3868H81.9268V81.359V82.089H75.9242H69.9217V81.359V80.6289H68.4616H67.0015V81.359C67.0015 82.1627 66.9194 82.2081 66.0117 81.9047C64.9768 81.5588 64.0813 80.3934 64.0813 79.3924C64.0813 79.0433 64.1508 79.0066 64.8114 79.0066H65.5414V77.5465V76.0864H64.8114H64.0813V69.9861V63.8857L64.8357 63.0507C66.0275 61.7317 66.4222 60.7207 66.4285 58.9711C66.4334 57.6004 66.3951 57.4315 65.8033 56.2131C65.4564 55.4993 65.0184 54.6972 64.8299 54.4308C64.0909 53.3871 64.0813 53.3228 64.0813 49.4007C64.0813 45.2791 64.1462 44.909 65.013 44.0831C65.4415 43.6749 66.277 43.3157 66.7976 43.3157C66.9311 43.3157 67.0015 43.5678 67.0015 44.0458V44.7758H68.4616H69.9217V44.0458V43.3157H75.9242H81.9268V44.0458V44.7758H83.3868H84.8469V44.048V43.3203L90.0789 43.2775L95.3108 43.2346L95.3577 41.8174L95.4045 40.4001L90.1663 40.3573L84.928 40.3145L84.8782 39.625L84.8283 38.9355H83.3776H81.9268V39.6675V40.3996L75.9648 40.357L70.0028 40.3145L69.953 39.625L69.903 38.9355H68.4523H67.0015V39.6469V40.3583L66.0714 40.4744C64.2609 40.7006 62.6803 41.8448 61.8103 43.5588C61.326 44.513 61.2497 44.8376 61.1688 46.2906L61.077 47.9393L60.7092 47.2904C60.283 46.5383 59.6136 45.3934 59.1917 44.6947C59.0301 44.427 58.7134 43.8636 58.4882 43.4428L58.0788 42.6775V31.0726V19.4677H58.8088H59.5389V17.9265V16.3854H58.8088H58.0788V8.19268V0H56.6187H55.1586V8.19268V16.3854H53.6174H52.0762V8.19268V0H50.6161H49.1561V8.19268V16.3854H47.6149H46.0737V8.19268V0H44.6136H43.1535V8.19268ZM25.3081 9.00578V10.5491L19.3461 10.5064L13.3841 10.4639L13.3374 8.96327L13.2908 7.46264H19.2994H25.3081V9.00578ZM31.8431 7.79927C32.3979 7.98453 33.1803 8.32149 33.5819 8.54812C34.4764 9.05331 35.8477 10.493 36.3937 11.5002C36.8588 12.3581 37.3132 14.3683 37.3132 15.5674V16.3854H35.8054H34.2978L34.103 15.4567C33.5559 12.8489 31.6013 10.9324 29.126 10.5773L28.3093 10.4602L28.2626 8.96133L28.2161 7.46264H29.5251C30.4177 7.46264 31.155 7.56971 31.8431 7.79927ZM37.3132 30.9909V42.5138L36.8231 43.4421C36.5535 43.9525 36.1519 44.6623 35.9306 45.0192C35.7094 45.3761 35.4175 45.8871 35.2817 46.1548C35.1461 46.4225 34.8554 46.9335 34.6357 47.2904L34.2361 47.9393L34.2334 33.7035L34.2308 19.4677H35.772H37.3132V30.9909ZM43.1535 26.0071V32.5467L42.4131 33.8348C42.0059 34.5434 41.6057 35.2326 41.5237 35.3664C41.4418 35.5002 41.1182 36.0478 40.8046 36.5831L40.2342 37.5565L40.2338 28.5121L40.2333 19.4677H41.6934H43.1535V26.0071ZM49.1561 25.1053L49.1562 30.7428L47.6554 30.7156L46.1548 30.6881L46.1121 25.078L46.0695 19.4677H47.6128H49.1561V25.1053ZM55.1586 28.4716C55.1586 33.4237 55.1291 37.4754 55.0929 37.4754C55.0264 37.4754 54.3333 36.3395 53.8556 35.4475C53.2798 34.3727 52.8359 33.6377 52.4656 33.1466L52.0762 32.6301V26.049V19.4677H53.6174H55.1586V28.4716ZM49.0706 33.9522C49.425 34.1531 49.9184 34.62 50.1669 34.99C50.5431 35.5502 52.4357 38.7957 53.9339 41.4501C54.6943 42.7972 57.3982 47.4854 57.8638 48.2638C58.7726 49.7836 59.6349 51.2706 61.2499 54.1041C61.6568 54.8179 62.142 55.6575 62.3283 55.9698C63.1879 57.4117 63.5946 58.3552 63.5946 58.9075C63.5946 59.8294 62.8276 61.1448 62.0533 61.551C61.412 61.8873 61.251 61.8917 47.9393 61.9397C38.1883 61.9748 34.2952 61.937 33.8252 61.8026C33.0389 61.5778 32.5212 61.1256 32.0924 60.2893C31.4456 59.0277 31.6508 58.2436 33.4149 55.2397C34.2498 53.8183 34.4195 53.5261 35.393 51.8329C36.4149 50.0558 37.1839 48.7266 37.4579 48.2638C37.6164 47.9961 37.9313 47.4486 38.1576 47.0471C38.3839 46.6455 38.953 45.66 39.4222 44.8569C39.8914 44.0539 40.4605 43.0683 40.6868 42.6668C40.9131 42.2653 41.214 41.7406 41.3553 41.501C41.6944 40.9262 43.6324 37.5637 44.0461 36.8327C45.1418 34.8961 45.557 34.3575 46.317 33.8854C47.0052 33.4579 48.2513 33.4883 49.0706 33.9522ZM48.548 40.7564C48.3499 41.0004 46.5604 43.9791 46.5604 44.0649C46.5604 44.0972 46.2318 44.6361 45.8303 45.2625C45.4288 45.8889 45.1003 46.4364 45.1003 46.4792C45.1003 46.5221 44.7854 47.0506 44.4006 47.6538C44.0156 48.257 43.6511 48.86 43.5904 48.9938C43.5296 49.1277 43.1874 49.7008 42.83 50.2673C42.4726 50.834 42.1801 51.3269 42.1801 51.3624C42.1801 51.3981 43.4942 51.4273 45.1003 51.4273C46.7064 51.4273 48.0204 51.4708 48.0204 51.524C48.0204 51.577 47.8926 51.8147 47.7365 52.0519C47.5805 52.2891 47.3668 52.6289 47.2617 52.8069C45.9054 55.1075 44.9778 56.6476 44.6509 57.1416C44.2293 57.7785 44.2552 58.1714 44.7317 58.3666C44.8899 58.4313 45.3637 58.6907 45.7849 58.943C46.206 59.1954 46.6186 59.3598 46.7018 59.3083C46.7849 59.2571 47.2526 58.5395 47.7412 57.7141C48.5277 56.3852 49.6291 54.5407 50.1818 53.6262C50.287 53.4526 50.6693 52.8321 51.0319 52.2472C51.3945 51.6624 51.7398 51.0744 51.7991 50.9406C51.8585 50.8068 52.0892 50.4052 52.3119 50.0483C52.5345 49.6914 52.8299 49.1986 52.9685 48.9533L53.2201 48.5071H50.2959C48.6875 48.5071 47.3731 48.4525 47.3751 48.3855C47.377 48.3185 47.5214 48.0813 47.696 47.8582C47.8705 47.6351 48.0149 47.4087 48.0169 47.355C48.0188 47.3013 48.4189 46.6077 48.9059 45.8138C51.3454 41.8368 51.2422 42.1087 50.4896 41.64C50.1577 41.4332 49.7766 41.2158 49.6428 41.1566C49.5089 41.0975 49.2456 40.9366 49.0578 40.7992C48.7834 40.5985 48.6832 40.5901 48.548 40.7564ZM37.2747 70.5042L37.2321 76.116H35.772H34.3119L34.2692 70.5042L34.2266 64.8925H35.772H37.3174L37.2747 70.5042ZM43.1538 70.53L43.1543 76.1676L41.6938 76.1155L40.2333 76.0634V70.478V64.8925H41.6934H43.1535L43.1538 70.53ZM49.1561 70.478V76.0634L47.6817 76.1155C46.8709 76.1442 46.1773 76.1372 46.1405 76.0999C46.0266 75.9849 46.067 65.1154 46.1819 65.0007C46.2412 64.9412 46.9348 64.8925 47.7231 64.8925H49.1561V70.478ZM55.1586 70.4895V76.0864H53.6174H52.0762V70.4895V64.8925H53.6174H55.1586V70.4895ZM61.1229 70.4072C61.1464 73.3957 61.1376 75.9143 61.1034 76.0042C61.0658 76.1028 60.4538 76.147 59.5599 76.1155L58.0788 76.0634V70.4719V64.8803L59.5794 64.9269L61.0801 64.9736L61.1229 70.4072Z" fill="#7F7F7F"/>
</svg>
