<svg width="111" height="150" viewBox="0 0 111 150" fill="none" xmlns="http://www.w3.org/2000/svg">
<path fill-rule="evenodd" clip-rule="evenodd" d="M9.90039 0.190913C5.48984 0.917045 1.56779 4.58637 0.421534 9.05821C0.0216901 10.6187 0 13.998 0 74.7114C0 136.739 0.0136738 138.771 0.445581 140.37C1.51356 144.325 4.37801 147.367 8.36938 148.784L9.9018 149.329H40.9039H71.9059L73.5218 148.771C77.8727 147.269 81.0502 143.532 81.6797 139.178C81.8155 138.238 81.9183 131.84 81.9209 124.161L81.9256 110.782L90.7076 110.78C95.5998 110.779 100.153 110.671 100.987 110.536C105.142 109.862 108.913 106.469 110.28 102.177L110.806 100.527V74.7114C110.806 50.245 110.783 48.822 110.369 47.4814C109.42 44.4083 107.75 42.1625 105.165 40.4844C102.577 38.8039 102.494 38.7926 91.7095 38.6502L82.0435 38.5227L81.9228 24.0236L81.8023 9.52454L81.1134 7.87424C79.423 3.82464 76.0536 0.955238 72.1389 0.231463C70.6175 -0.0497949 11.5957 -0.0882233 9.90039 0.190913ZM66.3656 4.83344C66.3656 4.91171 64.2016 7.13962 61.5567 9.78434L56.7479 14.5933H40.985H25.222L20.4522 9.81923C17.8289 7.19361 15.6107 4.9657 15.523 4.86833C15.4353 4.77097 26.8391 4.69152 40.8645 4.69152C54.8902 4.69152 66.3656 4.75541 66.3656 4.83344ZM14.6169 10.6149C17.4696 13.481 20.5672 16.5565 21.5006 17.4493L23.1976 19.0727H40.7853C55.778 19.0727 58.4673 19.0218 59.01 18.7276C59.3601 18.5378 62.556 15.4611 66.112 11.8906C69.6681 8.32006 72.7023 5.39879 72.8546 5.39879C73.353 5.39879 75.0717 6.79376 75.783 7.77593C77.1164 9.61672 77.0926 9.31212 77.0926 24.4951V38.5227L55.285 38.6464C31.9041 38.7794 32.7629 38.7323 30.5306 40.0049C27.6364 41.6549 25.6822 44.0189 24.7276 47.025L24.1651 48.796L24.1698 74.7793L24.1743 100.763L24.8563 102.696C25.2314 103.76 25.8321 105.033 26.191 105.525C27.7564 107.673 30.2804 109.52 32.7702 110.339C33.5105 110.583 38.3747 110.677 55.4029 110.775L77.0926 110.9V125.046C77.0926 138.982 77.0853 139.207 76.5911 140.252C75.8471 141.826 74.5976 143.13 73.1139 143.881C71.9712 144.459 71.503 144.553 69.6106 144.581L67.4265 144.613L67.2799 142.374C67.199 141.142 66.9687 139.763 66.7678 139.309C66.112 137.827 64.7118 136.449 63.1374 135.735L61.6609 135.065H41.0479H20.435L19.0584 135.591C17.4104 136.221 15.8686 137.668 15.1568 139.254C14.8246 139.994 14.6099 141.084 14.5186 142.492L14.3812 144.613L12.2082 144.581C10.2297 144.552 9.91335 144.481 8.67185 143.789C7.04254 142.879 6.2155 142.036 5.35593 140.406L4.71514 139.191V74.7114V10.2318L5.4823 8.76304C6.26784 7.25915 8.23877 5.3962 9.03893 5.40115C9.25417 5.40256 11.7643 7.74858 14.6169 10.6149ZM101.913 44.0415C103.535 44.8667 104.518 45.8641 105.418 47.5993L106.091 48.896V74.7114V100.527L105.383 101.905C104.48 103.666 103.11 104.926 101.406 105.564L100.061 106.067H67.6307C31.7459 106.067 33.7175 106.15 31.6968 104.551C30.5294 103.627 29.452 102.104 29.1195 100.907C28.9677 100.36 28.8859 90.9341 28.8913 74.5935C28.8991 51.1854 28.9324 49.0419 29.3027 48.0175C29.9096 46.3387 31.3024 44.8313 32.9803 44.0375L34.4205 43.3562L67.4923 43.3559L100.564 43.3557L101.913 44.0415ZM39.4804 53.7031L38.6642 54.3846V74.706V95.0273L39.3257 95.5964L39.9872 96.1653H67.4579H94.9286L95.6177 95.4762L96.3068 94.787V74.6362V54.4851L95.4734 53.7535L94.64 53.0217H67.4683H40.2966L39.4804 53.7031ZM87.5444 57.9389C87.4763 58.1143 86.0778 59.4133 79.568 65.3474C78.8549 65.9976 77.847 66.9173 77.3283 67.3909C76.8097 67.8648 74.5818 69.8892 72.3774 71.8896C70.1731 73.8902 68.2293 75.6617 68.0581 75.8265C67.5753 76.2905 67.3252 76.2 66.1563 75.139C65.5582 74.5963 64.0611 73.2344 62.8293 72.1124C61.5974 70.9904 59.2635 68.8719 57.6426 67.4048C56.0218 65.9377 53.6348 63.7607 52.3381 62.5673C51.0414 61.3737 49.4501 59.9433 48.8017 59.3884C48.1534 58.8336 47.5381 58.2353 47.4343 58.0584C47.2759 57.788 50.452 57.7369 67.4346 57.7369C78.5571 57.7369 87.5878 57.8276 87.5444 57.9389ZM91.5917 75.1912V89.5806L91.0857 89.3099C90.8075 89.1609 89.5078 88.246 88.1977 87.2763C86.8876 86.3069 85.6034 85.3638 85.3441 85.1809C84.2386 84.401 81.7858 82.596 81.5331 82.3763C81.382 82.245 79.6581 80.9879 77.702 79.5826C75.7459 78.1775 74.1536 76.9044 74.1633 76.7535C74.173 76.6029 75.1356 75.6308 76.3026 74.5935C77.4696 73.5562 78.8237 72.3361 79.3118 71.8823C79.7998 71.4285 81.0238 70.3145 82.0322 69.4069C83.0405 68.4992 85.5773 66.1963 87.6696 64.2893C89.7619 62.3825 91.5004 60.8175 91.5327 60.8119C91.565 60.8064 91.5917 67.277 91.5917 75.1912ZM45.0636 62.2955C45.8229 62.9872 48.4113 65.3478 50.8158 67.5411C53.2201 69.7343 56.0336 72.2935 57.0683 73.228C61.1877 76.9494 60.8753 76.6029 60.3871 76.9105C60.1459 77.0626 59.4563 77.5709 58.8546 78.04C58.2528 78.5092 57.3215 79.1988 56.7852 79.5725C55.6849 80.3387 51.0494 83.6822 50.6878 83.9705C50.411 84.1909 47.4645 86.3741 45.2859 87.9727C44.4464 88.5888 43.6476 89.0926 43.5106 89.0926C43.3383 89.0926 43.2614 84.7598 43.2614 75.065C43.2614 66.9781 43.3508 61.0375 43.4722 61.0375C43.5882 61.0375 44.3042 61.6035 45.0636 62.2955ZM65.5115 80.8411C66.9951 82.067 67.8137 82.0908 69.3065 80.9514L70.3973 80.1187L71.1517 80.6501C71.5664 80.9425 72.3409 81.5028 72.8725 81.8954C73.4044 82.2881 74.0768 82.7684 74.3672 82.9629C74.6574 83.1574 75.7077 83.921 76.701 84.6601C78.5715 86.0515 79.2851 86.5723 81.9982 88.526C82.8811 89.1619 84.1497 90.1063 84.8174 90.625L86.0313 91.568L76.6876 91.6296C71.5485 91.6635 63.0683 91.6635 57.843 91.6296L48.342 91.568L49.5149 90.6627C50.8351 89.6438 56.3797 85.5925 57.6426 84.724C58.0965 84.4118 59.2635 83.5664 60.236 82.845C61.2084 82.1236 62.3931 81.2758 62.8684 80.9611C63.3437 80.6463 63.8008 80.2783 63.8843 80.1435C64.121 79.7601 64.2924 79.8337 65.5115 80.8411ZM61.902 140.505C62.6414 141.296 62.905 142.241 62.7875 143.681L62.7114 144.613L40.9378 144.673L19.1642 144.734L19.251 142.824C19.3302 141.077 19.3941 140.865 19.9964 140.347L20.6552 139.78H40.9404H61.2257L61.902 140.505Z" fill="#FFD100"/>
</svg>
