<svg width="116" height="96" viewBox="0 0 116 96" fill="none" xmlns="http://www.w3.org/2000/svg">
<path fill-rule="evenodd" clip-rule="evenodd" d="M15.8883 0.0409165C13.1711 0.396935 10.316 2.47951 9.13971 4.96396C8.81599 5.64799 6.70608 11.2643 4.45115 17.4445C0.808956 27.4268 0.339083 28.873 0.24285 30.3951C0.00226565 34.1991 1.94817 37.5641 5.27094 39.0903C6.10948 39.4754 23.352 45.8113 32.0896 48.9447C32.6602 49.1494 32.6946 49.2332 32.5717 50.1282C32.3033 52.0875 33.1159 55.0373 34.514 57.1783C34.8022 57.62 34.5741 58.3695 31.9703 65.5367C29.7902 71.5377 28.972 73.5308 28.5294 73.9182C27.9491 74.4261 27.9428 74.4265 19.4012 74.4265H10.8538L10.7637 70.9815C10.665 67.2099 10.4278 66.3883 9.07555 65.1339C7.82294 63.9721 7.03003 63.7213 4.30409 63.6246C1.43425 63.5228 0.591414 63.7392 0.202639 64.6776C0.026437 65.1036 -0.0293604 69.6564 0.0140125 80.1262L0.0752315 94.971L0.590736 95.4856C1.07077 95.9648 1.29554 96 3.86629 96C6.29607 96 6.75352 95.9374 7.68943 95.4764C10.0867 94.2956 10.8055 92.6133 10.8055 88.1829V85.3047L20.1239 85.2072C26.3678 85.1419 29.7757 85.0201 30.4525 84.8385C33.2503 84.0874 35.9575 82.2393 37.5693 79.9803C38.7566 78.3165 38.4159 79.1298 41.9639 69.4892L44.8202 61.7284L46.4474 61.2125C48.9097 60.4318 50.8983 58.9808 52.3712 56.8901C52.7084 56.4112 52.7787 56.4342 68.4858 62.157C77.1626 65.3182 84.8692 68.0118 85.612 68.1426C88.3289 68.6211 91.4456 67.4661 93.499 65.2193L94.6188 63.994L96.5487 64.6922C99.3569 65.7083 100.725 65.5906 102.002 64.2228C102.401 63.7961 106.325 53.5199 107.697 49.3098C108.049 48.2286 107.71 46.9055 106.82 45.8921L106.168 45.1494L109.595 43.5796C113.453 41.8124 114.922 40.6689 115.396 39.0641C115.966 37.138 114.941 35.3568 112.616 34.2325C111.352 33.6212 23.2406 1.48216 20.2933 0.557325C18.9404 0.132858 16.9597 -0.0993676 15.8883 0.0409165ZM64.118 20.1919C89.1534 29.2946 110.171 36.9815 110.823 37.2738C111.475 37.5664 112.009 37.9061 112.009 38.0288C112.009 38.4731 110.632 39.1944 102.961 42.7713C98.0656 45.0538 94.4937 46.5798 93.3804 46.8644C91.2708 47.4041 87.0674 47.4795 85.1267 47.0124C84.4434 46.8481 72.0889 42.4277 57.6724 37.1893C43.2556 31.9509 31.1406 27.6651 30.75 27.6651C29.4206 27.6651 28.655 29.3203 29.5012 30.3656C30.0752 31.0742 82.6565 50.1668 85.3526 50.6455C87.7851 51.0775 92.0079 50.911 94.3322 50.2915C95.2328 50.0514 95.9699 49.9348 95.9699 50.0322C95.9699 50.3238 91.9606 61.2366 91.5909 61.9518C90.7279 63.6203 88.4206 64.8481 86.4952 64.6631C84.7612 64.4964 6.91595 36.1314 5.74804 35.2407C4.49949 34.2883 3.70613 32.6765 3.69709 31.074C3.69144 30.0556 4.01267 28.9295 5.35678 25.2566L7.02347 20.7018L8.1907 21.8972C9.39927 23.1352 10.7644 23.9421 12.7487 24.5913C14.5254 25.1726 15.5494 24.5802 15.5494 22.9712C15.5494 22.169 15.0511 21.6887 13.7384 21.2256C11.2132 20.3347 9.62336 18.6969 9.31998 16.6735C9.1065 15.249 9.23346 14.707 10.8224 10.2708C12.1534 6.55475 12.3073 6.24933 13.3873 5.17992C14.0194 4.55418 14.8914 3.92392 15.3253 3.77934C17.2723 3.12988 16.1916 2.7664 64.118 20.1919ZM19.9127 24.0523C18.5826 24.5882 18.6307 26.4491 19.9933 27.1749C20.9473 27.683 23.6314 28.5687 24.2174 28.5687C25.4366 28.5687 26.1963 26.8277 25.4325 25.7845C25.1592 25.4111 21.2534 23.8102 20.6866 23.8391C20.5323 23.847 20.1842 23.943 19.9127 24.0523ZM102.973 47.7904C103.656 48.0497 104.243 48.2887 104.276 48.3215C104.32 48.3651 100.897 57.9261 99.482 61.7099C99.4084 61.9067 98.9206 61.8165 97.7315 61.3866C96.8247 61.0586 96.0461 60.7636 96.0011 60.7309C95.9562 60.6981 96.9727 57.7729 98.2601 54.2303C100.489 48.0971 100.808 47.4427 101.617 47.3338C101.68 47.3255 102.289 47.5308 102.973 47.7904ZM42.8269 52.8508C46.4686 54.1651 48.9827 55.1891 48.9827 55.3583C48.9827 55.7502 47.5186 56.924 46.2789 57.5258C45.4789 57.9139 44.8356 58.025 43.3351 58.0341C41.6601 58.0442 41.2627 57.9656 40.2213 57.4183C37.8241 56.1582 36.4242 54.1739 36.1657 51.6689C36.0598 50.6426 36.095 50.4264 36.3532 50.5174C36.5281 50.5789 39.4411 51.6289 42.8269 52.8508ZM39.6078 60.9653C40.3533 61.2798 40.9514 61.667 40.937 61.826C40.9108 62.1113 36.8299 73.3763 35.8809 75.7819C34.8485 78.3992 32.7156 80.3779 30.0235 81.2157C28.725 81.6199 27.8942 81.6553 19.7085 81.6553H10.8055V79.8601V78.0649L19.785 77.9964L28.7646 77.928L29.9826 77.2534C30.6795 76.8674 31.4401 76.217 31.7602 75.7333C32.0679 75.2682 33.4769 71.7089 34.891 67.8237C36.3049 63.9384 37.5137 60.622 37.5767 60.4537C37.6397 60.2856 37.8178 60.2034 37.9718 60.2709C38.1261 60.3387 38.8623 60.6511 39.6078 60.9653ZM6.63651 67.7523L7.19109 68.3066V79.8481V91.3896L6.63651 91.944C6.18132 92.3994 5.85828 92.4985 4.8293 92.4985H3.57669V79.8481V67.1977H4.8293C5.85828 67.1977 6.18132 67.2969 6.63651 67.7523Z" fill="#7F7F7F"/>
</svg>
