<svg width="100" height="96" viewBox="0 0 100 96" fill="none" xmlns="http://www.w3.org/2000/svg">
<path fill-rule="evenodd" clip-rule="evenodd" d="M30.0101 18.8024C8.83524 39.9864 10.1987 38.4286 10.0681 41.5888C9.98068 43.711 10.4444 45.0437 11.7785 46.5034C13.5058 48.3934 15.904 49.2456 18.2151 48.791C18.8673 48.6627 19.5232 48.5108 19.6726 48.4534C19.9006 48.366 19.9445 49.0584 19.9445 52.7425V57.136H16.2911H12.6377L12.3959 56.4674C12.0413 55.4868 10.5122 53.8852 9.37395 53.3024C7.95896 52.5779 5.70481 52.4652 4.17438 53.0424C2.65192 53.6169 1.43516 54.7483 0.671011 56.3005C-0.506495 58.6926 -0.113151 61.4567 1.68488 63.424C4.78014 66.8108 10.1931 66.0894 12.2576 62.0151L12.7605 61.0228H16.3525H19.9445V65.1039V69.1851H13.7106H7.4768L6.90874 69.7531L6.34069 70.3212V74.103V77.8847L5.29281 78.3974C4.05816 79.0014 2.78096 80.3171 2.19464 81.5886C1.58441 82.9119 1.60054 85.6286 2.22573 86.8964C3.60535 89.6932 6.56262 91.182 9.51912 90.5683C10.9407 90.2733 12.6668 89.1098 13.4767 87.901C14.3012 86.67 14.7749 84.8001 14.6054 83.4438C14.3347 81.2777 12.868 79.2608 10.8855 78.3289L10.0331 77.9284V75.5001V73.0719H14.9741H19.9151L19.9783 75.8099C20.0415 78.5357 20.044 78.5501 20.587 79.0165C21.0913 79.4499 21.2917 79.4851 23.2592 79.4851H25.386L25.3872 84.1978C25.3878 86.906 25.4754 89.2248 25.5934 89.6495C25.7939 90.3716 26.6743 91.143 27.3001 91.1447C27.8396 91.1463 28.8381 90.5267 29.0515 90.0582C29.199 89.7348 29.2728 87.8847 29.2728 84.5214V79.4705L31.0705 79.5263L32.8681 79.5823L32.9653 87.3242L33.0624 95.0663L33.6078 95.535C34.3288 96.155 35.2942 96.155 36.0152 95.535L36.5606 95.0663L36.6577 87.3242L36.7549 79.5823L38.5526 79.5263L40.3502 79.4705V84.6129V89.7554L40.8413 90.339C41.4692 91.085 42.2679 91.2693 43.0721 90.8534C44.1412 90.3005 44.237 89.7657 44.237 84.3498V79.4851H45.9861H47.7351V86.9769C47.7351 94.9575 47.7736 95.3102 48.6961 95.8038C49.1762 96.0607 50.1809 96.0607 50.6609 95.8038C51.5834 95.3102 51.6219 94.9575 51.6219 86.9769V79.4851H53.371H55.12V84.3498C55.12 89.7657 55.2158 90.3005 56.2849 90.8534C57.0891 91.2693 57.8878 91.085 58.5157 90.339L59.0068 89.7554V84.6129V79.4705L60.8045 79.5263L62.6021 79.5823L62.6993 87.3242L62.7965 95.0663L63.3418 95.535C64.0628 96.155 65.0283 96.155 65.7493 95.535L66.2946 95.0663L66.3918 87.3242L66.4889 79.5823L68.2866 79.5263L70.0842 79.4705V84.5403C70.0842 90.316 70.1394 90.5831 71.4141 90.9649C72.029 91.1492 72.2639 91.1338 72.7611 90.8767C73.0924 90.7053 73.4345 90.4554 73.5215 90.3209C73.6084 90.1866 73.7232 87.7154 73.7767 84.8294L73.8739 79.5823L75.8173 79.5341C78.3252 79.4719 78.5716 79.4042 79.0291 78.6539C79.356 78.1179 79.4112 77.6701 79.4118 75.5497L79.4125 73.0719H84.3682H89.3239V75.5001V77.9284L88.4715 78.3289C87.0921 78.9775 86.0924 79.9707 85.3967 81.384C84.8341 82.5269 84.7571 82.8713 84.7579 84.2423C84.7585 85.5516 84.8451 85.9774 85.2983 86.9019C85.9847 88.3019 87.1146 89.4318 88.5147 90.1182C89.4391 90.5714 89.8649 90.6581 91.1742 90.6587C92.5453 90.6594 92.8896 90.5825 94.0326 90.0199C95.4479 89.3232 96.4154 88.348 97.1313 86.8964C97.7565 85.6286 97.7726 82.9119 97.1624 81.5886C96.5761 80.3171 95.2989 79.0014 94.0642 78.3974L93.0163 77.8847V74.103V70.3212L92.4483 69.7531L91.8802 69.1851H85.6464H79.4125V65.1039V61.0228H82.9964H86.5804L87.2174 62.218C88.4972 64.6192 91.2836 65.9911 93.8994 65.5076C95.4705 65.217 96.6116 64.5846 97.6861 63.4089C98.8462 62.1397 99.3254 60.8356 99.3205 58.9626C99.3139 56.3736 97.6313 53.9663 95.1827 53.0424C93.661 52.4685 91.3975 52.5781 90.0002 53.2937C88.8235 53.8963 87.3333 55.4382 86.9782 56.4202L86.7193 57.136H83.0659H79.4125V52.7425C79.4125 49.0584 79.4565 48.366 79.6844 48.4534C79.8339 48.5108 80.4898 48.6627 81.142 48.791C82.5146 49.061 84.2273 48.8136 85.5084 48.16C86.6888 47.5577 88.0988 46.1204 88.69 44.9168C89.1674 43.9444 89.2267 43.6091 89.2267 41.8803C89.2267 38.6597 89.3262 38.7994 81.3037 30.7561C76.6832 26.1236 74.2709 23.8405 73.8498 23.7015C73.3711 23.5435 73.0693 23.562 72.5457 23.7806C71.7342 24.1197 71.4446 24.5935 71.4446 25.5827C71.4446 26.2862 71.7184 26.5902 78.3272 33.2234C84.4471 39.3655 85.235 40.2263 85.4369 40.9894C86.1326 43.6202 83.313 45.9781 80.909 44.7758C80.5669 44.6047 73.5763 37.7636 65.3742 29.5731C50.5602 14.7803 50.4561 14.6814 49.6785 14.6814C48.901 14.6814 48.7968 14.7803 33.9828 29.5731C25.7807 37.7636 18.7901 44.6047 18.4481 44.7758C17.688 45.1559 16.645 45.1751 15.8054 44.8243C14.9474 44.4658 13.967 43.3001 13.8072 42.4487C13.4813 40.7115 12.7154 41.562 31.9088 22.351L49.6729 4.57088L54.8826 9.76753C60.0637 14.9356 60.0969 14.9642 60.9188 14.9642C62.2867 14.9642 63.2126 13.6767 62.7125 12.4696C62.5885 12.1705 59.7988 9.24262 56.5129 5.96294L50.5385 0H49.6715H48.8044L30.0101 18.8024ZM65.7085 18.1127C65.27 18.6337 65.2022 18.8626 65.2904 19.5215C65.4236 20.5134 66.1446 21.1831 67.0797 21.1831C68.7013 21.1831 69.5805 19.1069 68.4411 17.9677C68.0775 17.6039 67.7586 17.4906 67.098 17.4906C66.3622 17.4906 66.1533 17.5841 65.7085 18.1127ZM62.6501 32.1141L75.5257 44.9886V60.3906V75.7926H49.6785H23.8313V60.3918V44.9909L36.7057 32.1153C43.7867 25.0337 49.6239 19.2397 49.6774 19.2397C49.7308 19.2397 55.5686 25.0331 62.6501 32.1141ZM49.1682 30.6503C48.941 30.6921 48.5475 30.9473 48.2937 31.217C47.8457 31.6936 47.8305 31.8168 47.7722 35.4822L47.712 39.2567H45.995H44.278L44.2088 36.9402C44.1457 34.8191 44.101 34.5822 43.6781 34.1323C43.0982 33.5151 42.2452 33.3188 41.4943 33.63C40.5704 34.0126 40.3502 34.6821 40.3502 37.1092V39.2567H39.5631C38.0304 39.2567 37.2408 40.0527 37.2408 41.5979V42.3661H35.0933C32.6547 42.3661 31.9971 42.5855 31.6061 43.5294C31.2786 44.32 31.539 45.2146 32.2517 45.7473C32.7169 46.0951 33.1277 46.1655 35.0195 46.2211L37.2408 46.2864V48.0187V49.7511L33.694 49.754C29.7107 49.7571 29.3706 49.8418 28.8196 50.9672C28.4743 51.6723 28.4743 51.7166 28.8196 52.4217C29.3706 53.5471 29.7107 53.6318 33.694 53.6349L37.2408 53.6379V55.3702V57.1026L35.0195 57.1678C33.1277 57.2234 32.7169 57.2938 32.2517 57.6416C31.539 58.1743 31.2786 59.0689 31.6061 59.8595C31.9971 60.8034 32.6547 61.0228 35.0933 61.0228H37.2408V61.791C37.2408 63.3362 38.0304 64.1322 39.5631 64.1322H40.3502V66.2797C40.3502 68.7183 40.5696 69.3759 41.5135 69.7669C42.3041 70.0944 43.1986 69.834 43.7313 69.1213C44.0792 68.6561 44.1495 68.2452 44.2051 66.3535L44.2704 64.1322H45.9913H47.712L47.7722 67.918L47.8323 71.7035L48.349 72.2199C49.0735 72.9438 50.2835 72.9438 51.008 72.2199L51.5247 71.7035L51.5848 67.918L51.645 64.1322H53.3657H55.0866L55.1519 66.3535C55.2075 68.2452 55.2778 68.6561 55.6257 69.1213C56.1584 69.834 57.0529 70.0944 57.8435 69.7669C58.7874 69.3759 59.0068 68.7183 59.0068 66.2797V64.1322H59.7939C61.3267 64.1322 62.1163 63.3362 62.1163 61.791V61.0228H64.2637C66.7023 61.0228 67.36 60.8034 67.751 59.8595C68.0784 59.0689 67.818 58.1743 67.1054 57.6416C66.6401 57.2938 66.2293 57.2234 64.3376 57.1678L62.1163 57.1026V55.3817V53.661L65.9232 53.6007L69.7299 53.5407L70.1987 52.9954C70.8342 52.2559 70.8342 51.133 70.1987 50.3935L69.7299 49.8482L65.9232 49.7882L62.1163 49.7279V48.0072V46.2864L64.3376 46.2211C66.2293 46.1655 66.6401 46.0951 67.1054 45.7473C67.818 45.2146 68.0784 44.32 67.751 43.5294C67.36 42.5855 66.7023 42.3661 64.2637 42.3661H62.1163V41.5791C62.1163 40.0463 61.3203 39.2567 59.7751 39.2567H59.0068V37.1092C59.0068 34.6821 58.7867 34.0126 57.8628 33.63C57.1118 33.3188 56.2589 33.5151 55.679 34.1323C55.2561 34.5822 55.2114 34.8191 55.1482 36.9402L55.079 39.2567H53.362H51.645L51.5848 35.4709C51.5253 31.7227 51.5199 31.6807 51.0389 31.2188C50.527 30.7273 49.8567 30.5236 49.1682 30.6503ZM58.2295 51.6945V60.2454H49.6785H41.1276V51.6945V43.1435H49.6785H58.2295V51.6945ZM7.59535 56.7432C10.2697 58.0377 9.1285 62.0361 6.17064 61.7346C5.52524 61.669 5.15755 61.4851 4.64352 60.9709C3.21045 59.5378 3.78045 57.1301 5.68829 56.5584C6.52939 56.3063 6.73403 56.3262 7.59535 56.7432ZM94.3095 56.8462C95.1607 57.404 95.5739 58.2898 95.4814 59.3588C95.4124 60.1578 95.282 60.4252 94.7028 60.9561C93.8884 61.7024 93.2818 61.8932 92.3056 61.7102C90.926 61.4513 89.9291 59.8165 90.3098 58.4373C90.7863 56.7115 92.8506 55.8903 94.3095 56.8462ZM9.62776 82.0026C10.2337 82.3269 10.809 83.3571 10.8097 84.1199C10.8121 86.1583 8.70095 87.4975 6.92934 86.5814C5.39969 85.7904 5.0355 83.7477 6.19804 82.4793C7.12621 81.4664 8.31674 81.301 9.62776 82.0026ZM93.1621 82.4841C94.3217 83.7468 93.9552 85.7914 92.4277 86.5814C91.1513 87.2416 89.4597 86.6951 88.8586 85.4286C87.5084 82.5829 91.0358 80.1693 93.1621 82.4841Z" fill="#7F7F7F"/>
</svg>
