<svg width="135" height="151" viewBox="0 0 135 151" fill="none" xmlns="http://www.w3.org/2000/svg">
<mask id="path-1-outside-1_1_587" maskUnits="userSpaceOnUse" x="0" y="0.027832" width="135" height="151" fill="black">
<rect fill="white" y="0.027832" width="135" height="151"/>
<path fill-rule="evenodd" clip-rule="evenodd" d="M9.72301 1.28541C5.88182 2.14663 2.55199 5.36872 1.47081 9.2705C1.00613 10.9477 1 11.7264 1 70.1539C1 129.306 1.00024 129.339 1.48873 131.102C2.51144 134.792 4.70374 137.217 8.42635 138.773L10.0767 139.463L23.0035 139.465L35.9303 139.466L36.6184 138.696C37.4653 137.749 37.4896 137.009 36.7045 136.076L36.1021 135.36L23.561 135.291C11.3533 135.225 10.9869 135.209 9.78573 134.716C8.37189 134.136 7.30226 133.303 6.55232 132.198C5.283 130.328 5.36693 134.366 5.29314 71.5684C5.24787 32.9495 5.30587 12.7201 5.46524 11.5067C5.5975 10.5002 5.8632 9.37235 6.05558 9.00033C6.7124 7.7303 8.25802 6.36904 9.71594 5.77658L11.1321 5.2011L45.0248 5.26098L78.9177 5.32063L79.0384 13.69L79.1594 22.0594L79.8143 23.443C81.3762 26.7434 83.7442 28.794 87.0467 29.7059C88.6578 30.151 89.457 30.193 96.3001 30.193H103.79V49.3127C103.79 70.1555 103.757 69.6227 105.109 70.239C106.071 70.6772 106.621 70.5532 107.468 69.7059L108.27 68.9043L108.267 49.6076C108.264 28.9494 108.279 29.2493 107.07 26.717C106.665 25.8678 103.75 22.8079 95.0511 14.1023C84.4135 3.45626 83.4478 2.5526 81.9496 1.84297L80.3323 1.077L45.676 1.03598C18.9371 1.00415 10.7233 1.0612 9.72301 1.28541ZM92.1213 17.2384L100.843 25.9737L94.4777 25.8933C87.2275 25.8016 87.0759 25.7686 85.1995 23.8731C83.3462 22.0007 83.1989 21.3413 83.0963 14.4562C83.0477 11.182 83.0958 8.50335 83.2036 8.50335C83.3113 8.50335 87.3244 12.4341 92.1213 17.2384ZM17.6404 26.4478C16.7778 27.126 16.5168 27.8769 16.8304 28.7768C17.342 30.2442 16.6232 30.193 36.6943 30.193C49.856 30.193 55.131 30.118 55.5554 29.9245C55.8793 29.7769 56.3096 29.3084 56.5112 28.8834C56.9327 27.9948 56.7568 27.2805 55.9338 26.5388C55.4212 26.0769 55.0332 26.0661 36.8476 26.0041L18.2845 25.9411L17.6404 26.4478ZM17.6577 41.5407C17.4186 41.6796 17.0709 42.1577 16.8846 42.6033C16.3997 43.7637 16.9657 44.9401 18.1775 45.2904C18.7657 45.4604 30.3867 45.5165 55.1464 45.4689L91.257 45.3993L91.8655 44.8279C92.6853 44.0577 92.6985 42.7638 91.8957 41.8974L91.3174 41.2736L54.705 41.2807C29.103 41.2859 17.9618 41.3639 17.6577 41.5407ZM17.9363 54.9777C17.5841 55.1074 17.1418 55.561 16.9275 56.0122C16.5892 56.7251 16.5847 56.9078 16.8867 57.6309C17.0742 58.0791 17.4415 58.5605 17.7034 58.7008C18.0384 58.8799 28.9521 58.9554 54.5669 58.9554C88.3598 58.9554 90.9958 58.9269 91.5371 58.5565C92.3469 58.0025 92.466 57.7799 92.4702 56.8156C92.4728 56.2114 92.3017 55.8109 91.8655 55.4011L91.257 54.8296L54.9106 54.7881C31.6557 54.7615 18.3378 54.8299 17.9363 54.9777ZM39.8999 75.1264C38.6938 75.6482 37.6242 76.773 36.5585 78.6411C36.0408 79.5488 35.2581 80.8749 34.8191 81.5881C34.3804 82.3012 33.9383 83.0439 33.837 83.2384C33.509 83.8669 32.3022 85.9265 31.7649 86.7747C31.3325 87.4575 28.6138 92.0618 27.7584 93.5596C27.6288 93.7869 26.9821 94.8728 26.3215 95.9728C25.6607 97.0731 24.0281 99.8298 22.6934 102.099C21.3588 104.368 19.9685 106.704 19.6036 107.288C18.6323 108.846 18.2103 109.98 18.2103 111.031C18.2103 112.172 18.9043 113.836 19.6552 114.495C20.4924 115.229 25.7536 118.252 26.7895 118.593C28.2333 119.07 31.746 118.808 33.1243 118.122C34.1439 117.614 34.2804 117.596 34.6166 117.933C34.9526 118.269 34.8665 118.48 33.675 120.24C32.9538 121.305 32.2319 122.619 32.0714 123.159C31.5897 124.779 31.7241 126.819 32.4087 128.281C33.6276 130.883 35.6315 132.285 38.385 132.461L40.1208 132.573L40.6588 133.963C41.6905 136.629 43.992 138.321 46.9198 138.567L48.531 138.702L49.0494 140.027C49.714 141.726 51.0032 143.102 52.7138 143.939C54.0039 144.57 54.1847 144.596 56.5144 144.477L58.9609 144.352L59.2445 145.037C59.4006 145.414 60.0885 146.234 60.7732 146.86C62.0802 148.054 63.9137 148.779 65.6291 148.779C67.3461 148.779 69.5306 147.845 70.9572 146.501C71.2455 146.229 72.1086 146.625 74.7585 148.242C75.2307 148.53 76.3067 149.106 77.1496 149.522C79.9206 150.888 83.0704 150.433 85.2523 148.352C86.0963 147.547 87.5222 145.039 87.5226 144.358C87.5229 143.986 87.5398 143.987 89.1192 144.446C91.8132 145.229 94.7929 144.519 96.5594 142.673C97.5777 141.609 98.6035 139.676 98.6035 138.82V138.17L100.431 138.17C104.144 138.169 106.875 136.008 107.666 132.443C107.803 131.823 107.862 131.796 108.689 131.968C111.447 132.541 114.539 131.575 116.097 129.656C117.269 128.211 118.023 126.021 117.892 124.442C117.808 123.44 117.241 121.891 116.344 120.217C116.299 120.133 116.887 119.685 117.651 119.221C118.888 118.47 119.127 118.403 119.841 118.608C120.966 118.93 124.255 118.876 125.255 118.518C126.491 118.076 131.372 115.123 132.267 114.275C132.758 113.81 133.176 113.084 133.404 112.299C133.729 111.182 133.728 110.932 133.399 109.798C133.197 109.105 132.837 108.283 132.598 107.971C132.359 107.659 131.808 106.767 131.374 105.989C130.591 104.586 127.739 99.7298 125.835 96.5587C125.29 95.651 123.911 93.317 122.772 91.372C121.632 89.427 120.467 87.4643 120.183 87.0105C119.061 85.2197 118.497 84.2738 118.215 83.7099C118.053 83.3857 117.56 82.537 117.12 81.8238C116.68 81.1107 115.872 79.7315 115.325 78.759C114.777 77.7865 114.107 76.7381 113.834 76.4292C113.194 75.7036 111.181 74.7563 110.273 74.7537C109.546 74.7514 107.632 75.6046 105.558 76.8548C104.91 77.2459 104.008 77.7709 103.554 78.0213C102.356 78.6828 100.601 80.5003 100.048 81.652C99.5472 82.695 99.0457 85.2423 99.1947 85.9873C99.5786 87.9087 99.5385 88.1459 98.7864 88.4081C98.3877 88.5472 97.6911 88.6608 97.2382 88.6608C96.3251 88.6608 93.3277 87.8392 92.5917 87.387C91.5414 86.7417 88.2542 85.7605 86.8156 85.6627C85.5352 85.5754 84.5853 85.7407 81.0396 86.6668C78.7056 87.2762 76.5812 87.8229 76.3185 87.8816C76.0559 87.9403 75.1011 87.6176 74.1967 87.1647C70.3793 85.2527 68.1917 85.0952 64.3637 86.4569C63.0324 86.9303 61.0945 87.6178 60.0572 87.9844C59.0198 88.3508 57.7998 88.6518 57.346 88.6532C56.2902 88.6563 54.4572 88.1009 53.431 87.4664C52.6985 87.0138 52.6308 86.8749 52.6308 85.8242C52.6308 82.334 51.1434 79.769 48.0336 77.8954C42.4067 74.5059 41.8067 74.3018 39.8999 75.1264ZM42.332 79.4957C44.6823 80.7056 47.1693 82.3991 47.6563 83.1212C48.6748 84.6315 48.5829 86.7212 47.4225 88.425C47.0875 88.9171 44.6014 93.0801 43.7899 94.5078C43.5476 94.934 40.5141 100.051 40.1281 100.684C40.0096 100.879 39.1318 102.364 38.1775 103.985C36.2372 107.28 34.5117 110.188 33.3438 112.13C32.4488 113.618 31.2526 114.506 29.8421 114.728C28.714 114.907 27.5965 114.453 24.4578 112.544C22.9353 111.618 22.5826 111.296 22.6274 110.876C22.6581 110.59 23.2531 109.427 23.9498 108.29C24.6464 107.154 26.3095 104.368 27.6457 102.099C28.9818 99.8298 30.5458 97.1884 31.1213 96.2288C32.2209 94.3953 32.757 93.4724 33.7365 91.7256C34.064 91.1421 34.3974 90.6117 34.4775 90.5468C34.5577 90.482 35.0051 89.7391 35.4722 88.8961C35.9392 88.053 36.7538 86.6738 37.2823 85.8312C37.8111 84.9886 38.4168 83.981 38.6283 83.592C39.9721 81.1217 41.2143 79.2305 41.4927 79.2305C41.6712 79.2305 42.0486 79.3498 42.332 79.4957ZM111.285 80.3504C111.673 80.9664 112.4 82.1848 112.9 83.058C114.064 85.0905 116.639 89.4308 117.437 90.7072C117.776 91.2489 118.723 92.8403 119.54 94.2435C120.358 95.6465 121.125 96.9536 121.245 97.1481C121.364 97.3426 122.907 99.9418 124.672 102.924C126.437 105.906 128.19 108.857 128.567 109.482C129.534 111.086 129.471 111.342 127.896 112.216C127.151 112.63 125.904 113.357 125.126 113.832C123.953 114.548 123.49 114.696 122.411 114.7C120.278 114.707 119.489 113.989 117.109 109.879C116.772 109.295 115.925 107.863 115.227 106.696C114.529 105.529 113.505 103.779 112.951 102.806C111.633 100.492 111.103 99.9771 110.038 99.9771C108.865 99.9771 108.034 100.829 108.035 102.029C108.035 102.747 108.549 103.785 110.628 107.267C112.054 109.656 113.22 111.632 113.22 111.658C113.22 111.684 113.698 112.5 114.281 113.47C115.333 115.219 115.537 115.773 115.133 115.773C115.018 115.773 114.384 116.144 113.724 116.598C113.064 117.052 112.467 117.423 112.396 117.423C112.325 117.423 111.872 117.174 111.388 116.87C110.905 116.565 108.918 115.382 106.973 114.241C105.028 113.099 103.171 111.996 102.847 111.789C102.523 111.582 101.992 111.282 101.668 111.122C101.344 110.962 100.389 110.394 99.5465 109.86C98.7037 109.326 97.6428 108.685 97.1889 108.435C96.7351 108.186 95.9394 107.718 95.4207 107.396C94.9021 107.074 93.959 106.52 93.3251 106.164C92.6911 105.808 92.0016 105.411 91.7927 105.282C90.2725 104.338 83.2495 100.2 82.6427 99.8906C81.524 99.3198 80.7472 99.408 79.9605 100.195C79.4793 100.676 79.2697 101.121 79.2657 101.668C79.2565 102.948 78.8829 104.194 78.222 105.147C77.241 106.563 74.5805 107.766 73.6719 107.204C73.451 107.068 73.3796 105.775 73.3857 102.026C73.3935 97.4946 73.4428 96.8894 73.9162 95.5157C74.6354 93.4294 75.8746 92.3916 78.4531 91.7155C82.6741 90.6086 85.9506 89.8398 86.4276 89.8445C86.7057 89.8474 87.8353 90.1711 88.9374 90.5638C95.3453 92.8474 95.5469 92.9044 97.2123 92.9044C98.2126 92.9044 99.343 92.7316 100.114 92.4605C100.808 92.2165 101.48 92.084 101.607 92.1658C101.734 92.2478 102.024 92.6863 102.252 93.1402C103.368 95.3678 105.05 95.9563 106.245 94.5366C106.58 94.1377 106.855 93.5485 106.855 93.2274C106.855 92.9063 106.255 91.6148 105.522 90.3575C103.555 86.9815 103.487 86.8183 103.487 85.4656C103.487 83.3402 104.045 82.7369 108.542 79.9967C109.233 79.5752 109.975 79.2305 110.189 79.2305C110.403 79.2305 110.896 79.7343 111.285 80.3504ZM70.7285 90.2741L71.7335 90.6824L71.1557 91.4656C70.8379 91.8963 70.2815 92.9532 69.9196 93.8144L69.2614 95.3799L69.2564 101.863L69.2517 108.347L69.904 109.307C70.2626 109.835 70.8992 110.525 71.3186 110.839C72.0006 111.351 72.3163 111.411 74.3205 111.411C76.3376 111.411 76.7007 111.341 77.9747 110.704C79.7144 109.834 81.8277 107.781 82.5246 106.284C82.8113 105.668 83.102 105.164 83.1706 105.164C83.2389 105.164 84.6973 105.999 86.411 107.02C88.1248 108.041 89.8854 109.076 90.3239 109.319C90.7622 109.562 91.2926 109.867 91.5027 109.997C92.5594 110.651 97.8021 113.784 98.0101 113.887C98.1419 113.952 99.3638 114.675 100.725 115.494C102.087 116.313 103.36 117.077 103.554 117.193C103.749 117.308 105.88 118.569 108.29 119.995C110.7 121.42 112.806 122.748 112.97 122.945C113.445 123.518 113.668 124.918 113.424 125.8C113.17 126.72 112.004 127.722 110.939 127.934C110.188 128.085 108.802 127.463 106.148 125.784C105.435 125.334 104.533 124.804 104.144 124.608C103.755 124.412 102.885 123.908 102.211 123.489C101.538 123.07 100.317 122.339 99.4998 121.865C98.6822 121.39 97.3238 120.573 96.4812 120.048C95.6386 119.523 94.1752 118.66 93.2294 118.129C92.2835 117.598 91.0161 116.851 90.413 116.468C88.5604 115.293 86.7486 115.694 86.4386 117.346C86.1842 118.703 86.5869 119.153 89.6897 120.975C91.2858 121.912 92.8569 122.859 93.1811 123.078C93.5052 123.298 94.5661 123.924 95.5386 124.469C96.5111 125.014 97.9806 125.879 98.8039 126.392C99.6274 126.905 100.342 127.325 100.392 127.325C100.816 127.325 102.934 128.93 103.207 129.459C104.032 131.053 103.405 132.907 101.776 133.695C100.574 134.277 100.46 134.276 99.2424 133.66C98.2225 133.144 89.1994 127.839 86.1909 125.986C84.1989 124.759 83.4165 124.505 82.4345 124.767C81.6568 124.974 81.1574 125.754 81.1574 126.762C81.1574 128.022 80.7588 127.724 88.9801 132.605C93.2779 135.157 93.6573 135.437 94.1257 136.405C94.6677 137.525 94.6251 137.996 93.8673 139.249C93.0292 140.635 90.9251 140.974 89.4217 139.965C87.8433 138.907 80.4964 134.629 79.6458 134.273C78.098 133.627 76.678 134.459 76.678 136.013C76.678 137.041 77.2054 137.622 79.2714 138.872C82.6637 140.925 82.9037 141.137 83.267 142.396C83.6437 143.702 82.8888 145.129 81.4948 145.746C80.4337 146.215 80.3658 146.217 79.3294 145.822C78.5382 145.519 75.3123 143.704 73.9136 142.774C73.8841 142.755 74.0805 142.162 74.3495 141.456C75.8008 137.653 73.9185 133.219 70.2909 131.897C69.2774 131.528 69.0303 131.338 69.0864 130.97C69.1251 130.716 69.1737 129.765 69.1944 128.857C69.284 124.923 66.3981 121.874 62.2969 121.568C61.5837 121.515 60.9207 121.463 60.8234 121.452C60.726 121.44 60.6466 121.244 60.6466 121.015C60.6466 120.352 59.6495 118.667 58.6341 117.614C56.3461 115.241 52.3102 114.869 49.4441 116.768L48.3638 117.483L47.2994 116.372C45.2262 114.209 42.3589 113.43 39.7903 114.335C38.2548 114.875 37.8234 114.926 37.3443 114.622C37.0176 114.415 37.226 113.915 38.5344 111.765C38.8105 111.311 39.6623 109.879 40.4268 108.582C41.996 105.921 41.8098 106.235 43.5117 103.396C44.2112 102.229 45.1741 100.584 45.6515 99.7414C46.1289 98.8985 46.9882 97.4663 47.5611 96.5587C48.1342 95.651 48.6074 94.8416 48.613 94.7601C48.6246 94.5884 49.9661 92.3471 50.5559 91.5137C50.9279 90.9882 50.9944 90.9733 51.4987 91.3029C51.7972 91.4981 52.8902 91.951 53.9275 92.3094C55.5983 92.8865 56.0422 92.9461 57.8175 92.8313C59.2815 92.7368 60.3297 92.5022 61.7075 91.9607C67.3414 89.7465 68.771 89.4793 70.7285 90.2741ZM44.0493 119.168C44.7466 119.865 44.8508 120.122 44.8508 121.145C44.8508 122.113 44.6976 122.545 43.9854 123.585C41.1374 127.745 40.5742 128.268 38.9432 128.268C36.9259 128.268 35.5806 126.462 36.1389 124.503C36.4442 123.433 39.6364 119.046 40.3872 118.664C40.7027 118.504 41.4755 118.372 42.1043 118.37C43.0926 118.367 43.3564 118.475 44.0493 119.168ZM54.9773 120.129C55.3474 120.32 55.8857 120.857 56.1733 121.323C57.0583 122.755 56.7948 123.56 54.3419 126.919C53.9843 127.409 53.2681 128.417 52.7504 129.158C50.8881 131.827 49.2951 133.811 48.787 134.093C47.4038 134.862 45.3294 134.093 44.6957 132.577C44.0262 130.974 44.2836 130.379 47.6629 125.721C50.6863 121.554 51.7668 120.206 52.2347 120.018C53.0311 119.697 54.2366 119.746 54.9773 120.129ZM63.6621 126.28C63.9521 126.483 64.4114 127.084 64.683 127.616C65.2959 128.818 65.0821 129.74 63.7694 131.552C61.0785 135.267 60.3797 136.238 59.89 136.943C58.3493 139.158 57.5214 140.039 56.7365 140.298C55.1864 140.81 53.6182 139.98 52.9804 138.31C52.6049 137.326 52.6077 137.229 53.0429 136.245C53.294 135.677 53.6502 135.056 53.8344 134.864C54.0187 134.673 54.3481 134.25 54.5666 133.926C54.9783 133.315 55.3578 132.783 58.2338 128.783C59.1761 127.473 60.131 126.294 60.3556 126.163C60.9964 125.789 63.0666 125.863 63.6621 126.28ZM69.7822 136.644C70.417 137.316 70.5484 137.641 70.5484 138.535C70.5484 139.812 70.4048 140.112 68.7264 142.35C67.7094 143.707 67.2588 144.112 66.5228 144.333C63.9149 145.114 61.7268 142.549 62.9575 140.153C63.9087 138.302 65.6903 136.178 66.5452 135.877C67.7832 135.441 68.895 135.704 69.7822 136.644Z"/>
</mask>
<path fill-rule="evenodd" clip-rule="evenodd" d="M9.72301 1.28541C5.88182 2.14663 2.55199 5.36872 1.47081 9.2705C1.00613 10.9477 1 11.7264 1 70.1539C1 129.306 1.00024 129.339 1.48873 131.102C2.51144 134.792 4.70374 137.217 8.42635 138.773L10.0767 139.463L23.0035 139.465L35.9303 139.466L36.6184 138.696C37.4653 137.749 37.4896 137.009 36.7045 136.076L36.1021 135.36L23.561 135.291C11.3533 135.225 10.9869 135.209 9.78573 134.716C8.37189 134.136 7.30226 133.303 6.55232 132.198C5.283 130.328 5.36693 134.366 5.29314 71.5684C5.24787 32.9495 5.30587 12.7201 5.46524 11.5067C5.5975 10.5002 5.8632 9.37235 6.05558 9.00033C6.7124 7.7303 8.25802 6.36904 9.71594 5.77658L11.1321 5.2011L45.0248 5.26098L78.9177 5.32063L79.0384 13.69L79.1594 22.0594L79.8143 23.443C81.3762 26.7434 83.7442 28.794 87.0467 29.7059C88.6578 30.151 89.457 30.193 96.3001 30.193H103.79V49.3127C103.79 70.1555 103.757 69.6227 105.109 70.239C106.071 70.6772 106.621 70.5532 107.468 69.7059L108.27 68.9043L108.267 49.6076C108.264 28.9494 108.279 29.2493 107.07 26.717C106.665 25.8678 103.75 22.8079 95.0511 14.1023C84.4135 3.45626 83.4478 2.5526 81.9496 1.84297L80.3323 1.077L45.676 1.03598C18.9371 1.00415 10.7233 1.0612 9.72301 1.28541ZM92.1213 17.2384L100.843 25.9737L94.4777 25.8933C87.2275 25.8016 87.0759 25.7686 85.1995 23.8731C83.3462 22.0007 83.1989 21.3413 83.0963 14.4562C83.0477 11.182 83.0958 8.50335 83.2036 8.50335C83.3113 8.50335 87.3244 12.4341 92.1213 17.2384ZM17.6404 26.4478C16.7778 27.126 16.5168 27.8769 16.8304 28.7768C17.342 30.2442 16.6232 30.193 36.6943 30.193C49.856 30.193 55.131 30.118 55.5554 29.9245C55.8793 29.7769 56.3096 29.3084 56.5112 28.8834C56.9327 27.9948 56.7568 27.2805 55.9338 26.5388C55.4212 26.0769 55.0332 26.0661 36.8476 26.0041L18.2845 25.9411L17.6404 26.4478ZM17.6577 41.5407C17.4186 41.6796 17.0709 42.1577 16.8846 42.6033C16.3997 43.7637 16.9657 44.9401 18.1775 45.2904C18.7657 45.4604 30.3867 45.5165 55.1464 45.4689L91.257 45.3993L91.8655 44.8279C92.6853 44.0577 92.6985 42.7638 91.8957 41.8974L91.3174 41.2736L54.705 41.2807C29.103 41.2859 17.9618 41.3639 17.6577 41.5407ZM17.9363 54.9777C17.5841 55.1074 17.1418 55.561 16.9275 56.0122C16.5892 56.7251 16.5847 56.9078 16.8867 57.6309C17.0742 58.0791 17.4415 58.5605 17.7034 58.7008C18.0384 58.8799 28.9521 58.9554 54.5669 58.9554C88.3598 58.9554 90.9958 58.9269 91.5371 58.5565C92.3469 58.0025 92.466 57.7799 92.4702 56.8156C92.4728 56.2114 92.3017 55.8109 91.8655 55.4011L91.257 54.8296L54.9106 54.7881C31.6557 54.7615 18.3378 54.8299 17.9363 54.9777ZM39.8999 75.1264C38.6938 75.6482 37.6242 76.773 36.5585 78.6411C36.0408 79.5488 35.2581 80.8749 34.8191 81.5881C34.3804 82.3012 33.9383 83.0439 33.837 83.2384C33.509 83.8669 32.3022 85.9265 31.7649 86.7747C31.3325 87.4575 28.6138 92.0618 27.7584 93.5596C27.6288 93.7869 26.9821 94.8728 26.3215 95.9728C25.6607 97.0731 24.0281 99.8298 22.6934 102.099C21.3588 104.368 19.9685 106.704 19.6036 107.288C18.6323 108.846 18.2103 109.98 18.2103 111.031C18.2103 112.172 18.9043 113.836 19.6552 114.495C20.4924 115.229 25.7536 118.252 26.7895 118.593C28.2333 119.07 31.746 118.808 33.1243 118.122C34.1439 117.614 34.2804 117.596 34.6166 117.933C34.9526 118.269 34.8665 118.48 33.675 120.24C32.9538 121.305 32.2319 122.619 32.0714 123.159C31.5897 124.779 31.7241 126.819 32.4087 128.281C33.6276 130.883 35.6315 132.285 38.385 132.461L40.1208 132.573L40.6588 133.963C41.6905 136.629 43.992 138.321 46.9198 138.567L48.531 138.702L49.0494 140.027C49.714 141.726 51.0032 143.102 52.7138 143.939C54.0039 144.57 54.1847 144.596 56.5144 144.477L58.9609 144.352L59.2445 145.037C59.4006 145.414 60.0885 146.234 60.7732 146.86C62.0802 148.054 63.9137 148.779 65.6291 148.779C67.3461 148.779 69.5306 147.845 70.9572 146.501C71.2455 146.229 72.1086 146.625 74.7585 148.242C75.2307 148.53 76.3067 149.106 77.1496 149.522C79.9206 150.888 83.0704 150.433 85.2523 148.352C86.0963 147.547 87.5222 145.039 87.5226 144.358C87.5229 143.986 87.5398 143.987 89.1192 144.446C91.8132 145.229 94.7929 144.519 96.5594 142.673C97.5777 141.609 98.6035 139.676 98.6035 138.82V138.17L100.431 138.17C104.144 138.169 106.875 136.008 107.666 132.443C107.803 131.823 107.862 131.796 108.689 131.968C111.447 132.541 114.539 131.575 116.097 129.656C117.269 128.211 118.023 126.021 117.892 124.442C117.808 123.44 117.241 121.891 116.344 120.217C116.299 120.133 116.887 119.685 117.651 119.221C118.888 118.47 119.127 118.403 119.841 118.608C120.966 118.93 124.255 118.876 125.255 118.518C126.491 118.076 131.372 115.123 132.267 114.275C132.758 113.81 133.176 113.084 133.404 112.299C133.729 111.182 133.728 110.932 133.399 109.798C133.197 109.105 132.837 108.283 132.598 107.971C132.359 107.659 131.808 106.767 131.374 105.989C130.591 104.586 127.739 99.7298 125.835 96.5587C125.29 95.651 123.911 93.317 122.772 91.372C121.632 89.427 120.467 87.4643 120.183 87.0105C119.061 85.2197 118.497 84.2738 118.215 83.7099C118.053 83.3857 117.56 82.537 117.12 81.8238C116.68 81.1107 115.872 79.7315 115.325 78.759C114.777 77.7865 114.107 76.7381 113.834 76.4292C113.194 75.7036 111.181 74.7563 110.273 74.7537C109.546 74.7514 107.632 75.6046 105.558 76.8548C104.91 77.2459 104.008 77.7709 103.554 78.0213C102.356 78.6828 100.601 80.5003 100.048 81.652C99.5472 82.695 99.0457 85.2423 99.1947 85.9873C99.5786 87.9087 99.5385 88.1459 98.7864 88.4081C98.3877 88.5472 97.6911 88.6608 97.2382 88.6608C96.3251 88.6608 93.3277 87.8392 92.5917 87.387C91.5414 86.7417 88.2542 85.7605 86.8156 85.6627C85.5352 85.5754 84.5853 85.7407 81.0396 86.6668C78.7056 87.2762 76.5812 87.8229 76.3185 87.8816C76.0559 87.9403 75.1011 87.6176 74.1967 87.1647C70.3793 85.2527 68.1917 85.0952 64.3637 86.4569C63.0324 86.9303 61.0945 87.6178 60.0572 87.9844C59.0198 88.3508 57.7998 88.6518 57.346 88.6532C56.2902 88.6563 54.4572 88.1009 53.431 87.4664C52.6985 87.0138 52.6308 86.8749 52.6308 85.8242C52.6308 82.334 51.1434 79.769 48.0336 77.8954C42.4067 74.5059 41.8067 74.3018 39.8999 75.1264ZM42.332 79.4957C44.6823 80.7056 47.1693 82.3991 47.6563 83.1212C48.6748 84.6315 48.5829 86.7212 47.4225 88.425C47.0875 88.9171 44.6014 93.0801 43.7899 94.5078C43.5476 94.934 40.5141 100.051 40.1281 100.684C40.0096 100.879 39.1318 102.364 38.1775 103.985C36.2372 107.28 34.5117 110.188 33.3438 112.13C32.4488 113.618 31.2526 114.506 29.8421 114.728C28.714 114.907 27.5965 114.453 24.4578 112.544C22.9353 111.618 22.5826 111.296 22.6274 110.876C22.6581 110.59 23.2531 109.427 23.9498 108.29C24.6464 107.154 26.3095 104.368 27.6457 102.099C28.9818 99.8298 30.5458 97.1884 31.1213 96.2288C32.2209 94.3953 32.757 93.4724 33.7365 91.7256C34.064 91.1421 34.3974 90.6117 34.4775 90.5468C34.5577 90.482 35.0051 89.7391 35.4722 88.8961C35.9392 88.053 36.7538 86.6738 37.2823 85.8312C37.8111 84.9886 38.4168 83.981 38.6283 83.592C39.9721 81.1217 41.2143 79.2305 41.4927 79.2305C41.6712 79.2305 42.0486 79.3498 42.332 79.4957ZM111.285 80.3504C111.673 80.9664 112.4 82.1848 112.9 83.058C114.064 85.0905 116.639 89.4308 117.437 90.7072C117.776 91.2489 118.723 92.8403 119.54 94.2435C120.358 95.6465 121.125 96.9536 121.245 97.1481C121.364 97.3426 122.907 99.9418 124.672 102.924C126.437 105.906 128.19 108.857 128.567 109.482C129.534 111.086 129.471 111.342 127.896 112.216C127.151 112.63 125.904 113.357 125.126 113.832C123.953 114.548 123.49 114.696 122.411 114.7C120.278 114.707 119.489 113.989 117.109 109.879C116.772 109.295 115.925 107.863 115.227 106.696C114.529 105.529 113.505 103.779 112.951 102.806C111.633 100.492 111.103 99.9771 110.038 99.9771C108.865 99.9771 108.034 100.829 108.035 102.029C108.035 102.747 108.549 103.785 110.628 107.267C112.054 109.656 113.22 111.632 113.22 111.658C113.22 111.684 113.698 112.5 114.281 113.47C115.333 115.219 115.537 115.773 115.133 115.773C115.018 115.773 114.384 116.144 113.724 116.598C113.064 117.052 112.467 117.423 112.396 117.423C112.325 117.423 111.872 117.174 111.388 116.87C110.905 116.565 108.918 115.382 106.973 114.241C105.028 113.099 103.171 111.996 102.847 111.789C102.523 111.582 101.992 111.282 101.668 111.122C101.344 110.962 100.389 110.394 99.5465 109.86C98.7037 109.326 97.6428 108.685 97.1889 108.435C96.7351 108.186 95.9394 107.718 95.4207 107.396C94.9021 107.074 93.959 106.52 93.3251 106.164C92.6911 105.808 92.0016 105.411 91.7927 105.282C90.2725 104.338 83.2495 100.2 82.6427 99.8906C81.524 99.3198 80.7472 99.408 79.9605 100.195C79.4793 100.676 79.2697 101.121 79.2657 101.668C79.2565 102.948 78.8829 104.194 78.222 105.147C77.241 106.563 74.5805 107.766 73.6719 107.204C73.451 107.068 73.3796 105.775 73.3857 102.026C73.3935 97.4946 73.4428 96.8894 73.9162 95.5157C74.6354 93.4294 75.8746 92.3916 78.4531 91.7155C82.6741 90.6086 85.9506 89.8398 86.4276 89.8445C86.7057 89.8474 87.8353 90.1711 88.9374 90.5638C95.3453 92.8474 95.5469 92.9044 97.2123 92.9044C98.2126 92.9044 99.343 92.7316 100.114 92.4605C100.808 92.2165 101.48 92.084 101.607 92.1658C101.734 92.2478 102.024 92.6863 102.252 93.1402C103.368 95.3678 105.05 95.9563 106.245 94.5366C106.58 94.1377 106.855 93.5485 106.855 93.2274C106.855 92.9063 106.255 91.6148 105.522 90.3575C103.555 86.9815 103.487 86.8183 103.487 85.4656C103.487 83.3402 104.045 82.7369 108.542 79.9967C109.233 79.5752 109.975 79.2305 110.189 79.2305C110.403 79.2305 110.896 79.7343 111.285 80.3504ZM70.7285 90.2741L71.7335 90.6824L71.1557 91.4656C70.8379 91.8963 70.2815 92.9532 69.9196 93.8144L69.2614 95.3799L69.2564 101.863L69.2517 108.347L69.904 109.307C70.2626 109.835 70.8992 110.525 71.3186 110.839C72.0006 111.351 72.3163 111.411 74.3205 111.411C76.3376 111.411 76.7007 111.341 77.9747 110.704C79.7144 109.834 81.8277 107.781 82.5246 106.284C82.8113 105.668 83.102 105.164 83.1706 105.164C83.2389 105.164 84.6973 105.999 86.411 107.02C88.1248 108.041 89.8854 109.076 90.3239 109.319C90.7622 109.562 91.2926 109.867 91.5027 109.997C92.5594 110.651 97.8021 113.784 98.0101 113.887C98.1419 113.952 99.3638 114.675 100.725 115.494C102.087 116.313 103.36 117.077 103.554 117.193C103.749 117.308 105.88 118.569 108.29 119.995C110.7 121.42 112.806 122.748 112.97 122.945C113.445 123.518 113.668 124.918 113.424 125.8C113.17 126.72 112.004 127.722 110.939 127.934C110.188 128.085 108.802 127.463 106.148 125.784C105.435 125.334 104.533 124.804 104.144 124.608C103.755 124.412 102.885 123.908 102.211 123.489C101.538 123.07 100.317 122.339 99.4998 121.865C98.6822 121.39 97.3238 120.573 96.4812 120.048C95.6386 119.523 94.1752 118.66 93.2294 118.129C92.2835 117.598 91.0161 116.851 90.413 116.468C88.5604 115.293 86.7486 115.694 86.4386 117.346C86.1842 118.703 86.5869 119.153 89.6897 120.975C91.2858 121.912 92.8569 122.859 93.1811 123.078C93.5052 123.298 94.5661 123.924 95.5386 124.469C96.5111 125.014 97.9806 125.879 98.8039 126.392C99.6274 126.905 100.342 127.325 100.392 127.325C100.816 127.325 102.934 128.93 103.207 129.459C104.032 131.053 103.405 132.907 101.776 133.695C100.574 134.277 100.46 134.276 99.2424 133.66C98.2225 133.144 89.1994 127.839 86.1909 125.986C84.1989 124.759 83.4165 124.505 82.4345 124.767C81.6568 124.974 81.1574 125.754 81.1574 126.762C81.1574 128.022 80.7588 127.724 88.9801 132.605C93.2779 135.157 93.6573 135.437 94.1257 136.405C94.6677 137.525 94.6251 137.996 93.8673 139.249C93.0292 140.635 90.9251 140.974 89.4217 139.965C87.8433 138.907 80.4964 134.629 79.6458 134.273C78.098 133.627 76.678 134.459 76.678 136.013C76.678 137.041 77.2054 137.622 79.2714 138.872C82.6637 140.925 82.9037 141.137 83.267 142.396C83.6437 143.702 82.8888 145.129 81.4948 145.746C80.4337 146.215 80.3658 146.217 79.3294 145.822C78.5382 145.519 75.3123 143.704 73.9136 142.774C73.8841 142.755 74.0805 142.162 74.3495 141.456C75.8008 137.653 73.9185 133.219 70.2909 131.897C69.2774 131.528 69.0303 131.338 69.0864 130.97C69.1251 130.716 69.1737 129.765 69.1944 128.857C69.284 124.923 66.3981 121.874 62.2969 121.568C61.5837 121.515 60.9207 121.463 60.8234 121.452C60.726 121.44 60.6466 121.244 60.6466 121.015C60.6466 120.352 59.6495 118.667 58.6341 117.614C56.3461 115.241 52.3102 114.869 49.4441 116.768L48.3638 117.483L47.2994 116.372C45.2262 114.209 42.3589 113.43 39.7903 114.335C38.2548 114.875 37.8234 114.926 37.3443 114.622C37.0176 114.415 37.226 113.915 38.5344 111.765C38.8105 111.311 39.6623 109.879 40.4268 108.582C41.996 105.921 41.8098 106.235 43.5117 103.396C44.2112 102.229 45.1741 100.584 45.6515 99.7414C46.1289 98.8985 46.9882 97.4663 47.5611 96.5587C48.1342 95.651 48.6074 94.8416 48.613 94.7601C48.6246 94.5884 49.9661 92.3471 50.5559 91.5137C50.9279 90.9882 50.9944 90.9733 51.4987 91.3029C51.7972 91.4981 52.8902 91.951 53.9275 92.3094C55.5983 92.8865 56.0422 92.9461 57.8175 92.8313C59.2815 92.7368 60.3297 92.5022 61.7075 91.9607C67.3414 89.7465 68.771 89.4793 70.7285 90.2741ZM44.0493 119.168C44.7466 119.865 44.8508 120.122 44.8508 121.145C44.8508 122.113 44.6976 122.545 43.9854 123.585C41.1374 127.745 40.5742 128.268 38.9432 128.268C36.9259 128.268 35.5806 126.462 36.1389 124.503C36.4442 123.433 39.6364 119.046 40.3872 118.664C40.7027 118.504 41.4755 118.372 42.1043 118.37C43.0926 118.367 43.3564 118.475 44.0493 119.168ZM54.9773 120.129C55.3474 120.32 55.8857 120.857 56.1733 121.323C57.0583 122.755 56.7948 123.56 54.3419 126.919C53.9843 127.409 53.2681 128.417 52.7504 129.158C50.8881 131.827 49.2951 133.811 48.787 134.093C47.4038 134.862 45.3294 134.093 44.6957 132.577C44.0262 130.974 44.2836 130.379 47.6629 125.721C50.6863 121.554 51.7668 120.206 52.2347 120.018C53.0311 119.697 54.2366 119.746 54.9773 120.129ZM63.6621 126.28C63.9521 126.483 64.4114 127.084 64.683 127.616C65.2959 128.818 65.0821 129.74 63.7694 131.552C61.0785 135.267 60.3797 136.238 59.89 136.943C58.3493 139.158 57.5214 140.039 56.7365 140.298C55.1864 140.81 53.6182 139.98 52.9804 138.31C52.6049 137.326 52.6077 137.229 53.0429 136.245C53.294 135.677 53.6502 135.056 53.8344 134.864C54.0187 134.673 54.3481 134.25 54.5666 133.926C54.9783 133.315 55.3578 132.783 58.2338 128.783C59.1761 127.473 60.131 126.294 60.3556 126.163C60.9964 125.789 63.0666 125.863 63.6621 126.28ZM69.7822 136.644C70.417 137.316 70.5484 137.641 70.5484 138.535C70.5484 139.812 70.4048 140.112 68.7264 142.35C67.7094 143.707 67.2588 144.112 66.5228 144.333C63.9149 145.114 61.7268 142.549 62.9575 140.153C63.9087 138.302 65.6903 136.178 66.5452 135.877C67.7832 135.441 68.895 135.704 69.7822 136.644Z" fill="#FFD100"/>
<path fill-rule="evenodd" clip-rule="evenodd" d="M9.72301 1.28541C5.88182 2.14663 2.55199 5.36872 1.47081 9.2705C1.00613 10.9477 1 11.7264 1 70.1539C1 129.306 1.00024 129.339 1.48873 131.102C2.51144 134.792 4.70374 137.217 8.42635 138.773L10.0767 139.463L23.0035 139.465L35.9303 139.466L36.6184 138.696C37.4653 137.749 37.4896 137.009 36.7045 136.076L36.1021 135.36L23.561 135.291C11.3533 135.225 10.9869 135.209 9.78573 134.716C8.37189 134.136 7.30226 133.303 6.55232 132.198C5.283 130.328 5.36693 134.366 5.29314 71.5684C5.24787 32.9495 5.30587 12.7201 5.46524 11.5067C5.5975 10.5002 5.8632 9.37235 6.05558 9.00033C6.7124 7.7303 8.25802 6.36904 9.71594 5.77658L11.1321 5.2011L45.0248 5.26098L78.9177 5.32063L79.0384 13.69L79.1594 22.0594L79.8143 23.443C81.3762 26.7434 83.7442 28.794 87.0467 29.7059C88.6578 30.151 89.457 30.193 96.3001 30.193H103.79V49.3127C103.79 70.1555 103.757 69.6227 105.109 70.239C106.071 70.6772 106.621 70.5532 107.468 69.7059L108.27 68.9043L108.267 49.6076C108.264 28.9494 108.279 29.2493 107.07 26.717C106.665 25.8678 103.75 22.8079 95.0511 14.1023C84.4135 3.45626 83.4478 2.5526 81.9496 1.84297L80.3323 1.077L45.676 1.03598C18.9371 1.00415 10.7233 1.0612 9.72301 1.28541ZM92.1213 17.2384L100.843 25.9737L94.4777 25.8933C87.2275 25.8016 87.0759 25.7686 85.1995 23.8731C83.3462 22.0007 83.1989 21.3413 83.0963 14.4562C83.0477 11.182 83.0958 8.50335 83.2036 8.50335C83.3113 8.50335 87.3244 12.4341 92.1213 17.2384ZM17.6404 26.4478C16.7778 27.126 16.5168 27.8769 16.8304 28.7768C17.342 30.2442 16.6232 30.193 36.6943 30.193C49.856 30.193 55.131 30.118 55.5554 29.9245C55.8793 29.7769 56.3096 29.3084 56.5112 28.8834C56.9327 27.9948 56.7568 27.2805 55.9338 26.5388C55.4212 26.0769 55.0332 26.0661 36.8476 26.0041L18.2845 25.9411L17.6404 26.4478ZM17.6577 41.5407C17.4186 41.6796 17.0709 42.1577 16.8846 42.6033C16.3997 43.7637 16.9657 44.9401 18.1775 45.2904C18.7657 45.4604 30.3867 45.5165 55.1464 45.4689L91.257 45.3993L91.8655 44.8279C92.6853 44.0577 92.6985 42.7638 91.8957 41.8974L91.3174 41.2736L54.705 41.2807C29.103 41.2859 17.9618 41.3639 17.6577 41.5407ZM17.9363 54.9777C17.5841 55.1074 17.1418 55.561 16.9275 56.0122C16.5892 56.7251 16.5847 56.9078 16.8867 57.6309C17.0742 58.0791 17.4415 58.5605 17.7034 58.7008C18.0384 58.8799 28.9521 58.9554 54.5669 58.9554C88.3598 58.9554 90.9958 58.9269 91.5371 58.5565C92.3469 58.0025 92.466 57.7799 92.4702 56.8156C92.4728 56.2114 92.3017 55.8109 91.8655 55.4011L91.257 54.8296L54.9106 54.7881C31.6557 54.7615 18.3378 54.8299 17.9363 54.9777ZM39.8999 75.1264C38.6938 75.6482 37.6242 76.773 36.5585 78.6411C36.0408 79.5488 35.2581 80.8749 34.8191 81.5881C34.3804 82.3012 33.9383 83.0439 33.837 83.2384C33.509 83.8669 32.3022 85.9265 31.7649 86.7747C31.3325 87.4575 28.6138 92.0618 27.7584 93.5596C27.6288 93.7869 26.9821 94.8728 26.3215 95.9728C25.6607 97.0731 24.0281 99.8298 22.6934 102.099C21.3588 104.368 19.9685 106.704 19.6036 107.288C18.6323 108.846 18.2103 109.98 18.2103 111.031C18.2103 112.172 18.9043 113.836 19.6552 114.495C20.4924 115.229 25.7536 118.252 26.7895 118.593C28.2333 119.07 31.746 118.808 33.1243 118.122C34.1439 117.614 34.2804 117.596 34.6166 117.933C34.9526 118.269 34.8665 118.48 33.675 120.24C32.9538 121.305 32.2319 122.619 32.0714 123.159C31.5897 124.779 31.7241 126.819 32.4087 128.281C33.6276 130.883 35.6315 132.285 38.385 132.461L40.1208 132.573L40.6588 133.963C41.6905 136.629 43.992 138.321 46.9198 138.567L48.531 138.702L49.0494 140.027C49.714 141.726 51.0032 143.102 52.7138 143.939C54.0039 144.57 54.1847 144.596 56.5144 144.477L58.9609 144.352L59.2445 145.037C59.4006 145.414 60.0885 146.234 60.7732 146.86C62.0802 148.054 63.9137 148.779 65.6291 148.779C67.3461 148.779 69.5306 147.845 70.9572 146.501C71.2455 146.229 72.1086 146.625 74.7585 148.242C75.2307 148.53 76.3067 149.106 77.1496 149.522C79.9206 150.888 83.0704 150.433 85.2523 148.352C86.0963 147.547 87.5222 145.039 87.5226 144.358C87.5229 143.986 87.5398 143.987 89.1192 144.446C91.8132 145.229 94.7929 144.519 96.5594 142.673C97.5777 141.609 98.6035 139.676 98.6035 138.82V138.17L100.431 138.17C104.144 138.169 106.875 136.008 107.666 132.443C107.803 131.823 107.862 131.796 108.689 131.968C111.447 132.541 114.539 131.575 116.097 129.656C117.269 128.211 118.023 126.021 117.892 124.442C117.808 123.44 117.241 121.891 116.344 120.217C116.299 120.133 116.887 119.685 117.651 119.221C118.888 118.47 119.127 118.403 119.841 118.608C120.966 118.93 124.255 118.876 125.255 118.518C126.491 118.076 131.372 115.123 132.267 114.275C132.758 113.81 133.176 113.084 133.404 112.299C133.729 111.182 133.728 110.932 133.399 109.798C133.197 109.105 132.837 108.283 132.598 107.971C132.359 107.659 131.808 106.767 131.374 105.989C130.591 104.586 127.739 99.7298 125.835 96.5587C125.29 95.651 123.911 93.317 122.772 91.372C121.632 89.427 120.467 87.4643 120.183 87.0105C119.061 85.2197 118.497 84.2738 118.215 83.7099C118.053 83.3857 117.56 82.537 117.12 81.8238C116.68 81.1107 115.872 79.7315 115.325 78.759C114.777 77.7865 114.107 76.7381 113.834 76.4292C113.194 75.7036 111.181 74.7563 110.273 74.7537C109.546 74.7514 107.632 75.6046 105.558 76.8548C104.91 77.2459 104.008 77.7709 103.554 78.0213C102.356 78.6828 100.601 80.5003 100.048 81.652C99.5472 82.695 99.0457 85.2423 99.1947 85.9873C99.5786 87.9087 99.5385 88.1459 98.7864 88.4081C98.3877 88.5472 97.6911 88.6608 97.2382 88.6608C96.3251 88.6608 93.3277 87.8392 92.5917 87.387C91.5414 86.7417 88.2542 85.7605 86.8156 85.6627C85.5352 85.5754 84.5853 85.7407 81.0396 86.6668C78.7056 87.2762 76.5812 87.8229 76.3185 87.8816C76.0559 87.9403 75.1011 87.6176 74.1967 87.1647C70.3793 85.2527 68.1917 85.0952 64.3637 86.4569C63.0324 86.9303 61.0945 87.6178 60.0572 87.9844C59.0198 88.3508 57.7998 88.6518 57.346 88.6532C56.2902 88.6563 54.4572 88.1009 53.431 87.4664C52.6985 87.0138 52.6308 86.8749 52.6308 85.8242C52.6308 82.334 51.1434 79.769 48.0336 77.8954C42.4067 74.5059 41.8067 74.3018 39.8999 75.1264ZM42.332 79.4957C44.6823 80.7056 47.1693 82.3991 47.6563 83.1212C48.6748 84.6315 48.5829 86.7212 47.4225 88.425C47.0875 88.9171 44.6014 93.0801 43.7899 94.5078C43.5476 94.934 40.5141 100.051 40.1281 100.684C40.0096 100.879 39.1318 102.364 38.1775 103.985C36.2372 107.28 34.5117 110.188 33.3438 112.13C32.4488 113.618 31.2526 114.506 29.8421 114.728C28.714 114.907 27.5965 114.453 24.4578 112.544C22.9353 111.618 22.5826 111.296 22.6274 110.876C22.6581 110.59 23.2531 109.427 23.9498 108.29C24.6464 107.154 26.3095 104.368 27.6457 102.099C28.9818 99.8298 30.5458 97.1884 31.1213 96.2288C32.2209 94.3953 32.757 93.4724 33.7365 91.7256C34.064 91.1421 34.3974 90.6117 34.4775 90.5468C34.5577 90.482 35.0051 89.7391 35.4722 88.8961C35.9392 88.053 36.7538 86.6738 37.2823 85.8312C37.8111 84.9886 38.4168 83.981 38.6283 83.592C39.9721 81.1217 41.2143 79.2305 41.4927 79.2305C41.6712 79.2305 42.0486 79.3498 42.332 79.4957ZM111.285 80.3504C111.673 80.9664 112.4 82.1848 112.9 83.058C114.064 85.0905 116.639 89.4308 117.437 90.7072C117.776 91.2489 118.723 92.8403 119.54 94.2435C120.358 95.6465 121.125 96.9536 121.245 97.1481C121.364 97.3426 122.907 99.9418 124.672 102.924C126.437 105.906 128.19 108.857 128.567 109.482C129.534 111.086 129.471 111.342 127.896 112.216C127.151 112.63 125.904 113.357 125.126 113.832C123.953 114.548 123.49 114.696 122.411 114.7C120.278 114.707 119.489 113.989 117.109 109.879C116.772 109.295 115.925 107.863 115.227 106.696C114.529 105.529 113.505 103.779 112.951 102.806C111.633 100.492 111.103 99.9771 110.038 99.9771C108.865 99.9771 108.034 100.829 108.035 102.029C108.035 102.747 108.549 103.785 110.628 107.267C112.054 109.656 113.22 111.632 113.22 111.658C113.22 111.684 113.698 112.5 114.281 113.47C115.333 115.219 115.537 115.773 115.133 115.773C115.018 115.773 114.384 116.144 113.724 116.598C113.064 117.052 112.467 117.423 112.396 117.423C112.325 117.423 111.872 117.174 111.388 116.87C110.905 116.565 108.918 115.382 106.973 114.241C105.028 113.099 103.171 111.996 102.847 111.789C102.523 111.582 101.992 111.282 101.668 111.122C101.344 110.962 100.389 110.394 99.5465 109.86C98.7037 109.326 97.6428 108.685 97.1889 108.435C96.7351 108.186 95.9394 107.718 95.4207 107.396C94.9021 107.074 93.959 106.52 93.3251 106.164C92.6911 105.808 92.0016 105.411 91.7927 105.282C90.2725 104.338 83.2495 100.2 82.6427 99.8906C81.524 99.3198 80.7472 99.408 79.9605 100.195C79.4793 100.676 79.2697 101.121 79.2657 101.668C79.2565 102.948 78.8829 104.194 78.222 105.147C77.241 106.563 74.5805 107.766 73.6719 107.204C73.451 107.068 73.3796 105.775 73.3857 102.026C73.3935 97.4946 73.4428 96.8894 73.9162 95.5157C74.6354 93.4294 75.8746 92.3916 78.4531 91.7155C82.6741 90.6086 85.9506 89.8398 86.4276 89.8445C86.7057 89.8474 87.8353 90.1711 88.9374 90.5638C95.3453 92.8474 95.5469 92.9044 97.2123 92.9044C98.2126 92.9044 99.343 92.7316 100.114 92.4605C100.808 92.2165 101.48 92.084 101.607 92.1658C101.734 92.2478 102.024 92.6863 102.252 93.1402C103.368 95.3678 105.05 95.9563 106.245 94.5366C106.58 94.1377 106.855 93.5485 106.855 93.2274C106.855 92.9063 106.255 91.6148 105.522 90.3575C103.555 86.9815 103.487 86.8183 103.487 85.4656C103.487 83.3402 104.045 82.7369 108.542 79.9967C109.233 79.5752 109.975 79.2305 110.189 79.2305C110.403 79.2305 110.896 79.7343 111.285 80.3504ZM70.7285 90.2741L71.7335 90.6824L71.1557 91.4656C70.8379 91.8963 70.2815 92.9532 69.9196 93.8144L69.2614 95.3799L69.2564 101.863L69.2517 108.347L69.904 109.307C70.2626 109.835 70.8992 110.525 71.3186 110.839C72.0006 111.351 72.3163 111.411 74.3205 111.411C76.3376 111.411 76.7007 111.341 77.9747 110.704C79.7144 109.834 81.8277 107.781 82.5246 106.284C82.8113 105.668 83.102 105.164 83.1706 105.164C83.2389 105.164 84.6973 105.999 86.411 107.02C88.1248 108.041 89.8854 109.076 90.3239 109.319C90.7622 109.562 91.2926 109.867 91.5027 109.997C92.5594 110.651 97.8021 113.784 98.0101 113.887C98.1419 113.952 99.3638 114.675 100.725 115.494C102.087 116.313 103.36 117.077 103.554 117.193C103.749 117.308 105.88 118.569 108.29 119.995C110.7 121.42 112.806 122.748 112.97 122.945C113.445 123.518 113.668 124.918 113.424 125.8C113.17 126.72 112.004 127.722 110.939 127.934C110.188 128.085 108.802 127.463 106.148 125.784C105.435 125.334 104.533 124.804 104.144 124.608C103.755 124.412 102.885 123.908 102.211 123.489C101.538 123.07 100.317 122.339 99.4998 121.865C98.6822 121.39 97.3238 120.573 96.4812 120.048C95.6386 119.523 94.1752 118.66 93.2294 118.129C92.2835 117.598 91.0161 116.851 90.413 116.468C88.5604 115.293 86.7486 115.694 86.4386 117.346C86.1842 118.703 86.5869 119.153 89.6897 120.975C91.2858 121.912 92.8569 122.859 93.1811 123.078C93.5052 123.298 94.5661 123.924 95.5386 124.469C96.5111 125.014 97.9806 125.879 98.8039 126.392C99.6274 126.905 100.342 127.325 100.392 127.325C100.816 127.325 102.934 128.93 103.207 129.459C104.032 131.053 103.405 132.907 101.776 133.695C100.574 134.277 100.46 134.276 99.2424 133.66C98.2225 133.144 89.1994 127.839 86.1909 125.986C84.1989 124.759 83.4165 124.505 82.4345 124.767C81.6568 124.974 81.1574 125.754 81.1574 126.762C81.1574 128.022 80.7588 127.724 88.9801 132.605C93.2779 135.157 93.6573 135.437 94.1257 136.405C94.6677 137.525 94.6251 137.996 93.8673 139.249C93.0292 140.635 90.9251 140.974 89.4217 139.965C87.8433 138.907 80.4964 134.629 79.6458 134.273C78.098 133.627 76.678 134.459 76.678 136.013C76.678 137.041 77.2054 137.622 79.2714 138.872C82.6637 140.925 82.9037 141.137 83.267 142.396C83.6437 143.702 82.8888 145.129 81.4948 145.746C80.4337 146.215 80.3658 146.217 79.3294 145.822C78.5382 145.519 75.3123 143.704 73.9136 142.774C73.8841 142.755 74.0805 142.162 74.3495 141.456C75.8008 137.653 73.9185 133.219 70.2909 131.897C69.2774 131.528 69.0303 131.338 69.0864 130.97C69.1251 130.716 69.1737 129.765 69.1944 128.857C69.284 124.923 66.3981 121.874 62.2969 121.568C61.5837 121.515 60.9207 121.463 60.8234 121.452C60.726 121.44 60.6466 121.244 60.6466 121.015C60.6466 120.352 59.6495 118.667 58.6341 117.614C56.3461 115.241 52.3102 114.869 49.4441 116.768L48.3638 117.483L47.2994 116.372C45.2262 114.209 42.3589 113.43 39.7903 114.335C38.2548 114.875 37.8234 114.926 37.3443 114.622C37.0176 114.415 37.226 113.915 38.5344 111.765C38.8105 111.311 39.6623 109.879 40.4268 108.582C41.996 105.921 41.8098 106.235 43.5117 103.396C44.2112 102.229 45.1741 100.584 45.6515 99.7414C46.1289 98.8985 46.9882 97.4663 47.5611 96.5587C48.1342 95.651 48.6074 94.8416 48.613 94.7601C48.6246 94.5884 49.9661 92.3471 50.5559 91.5137C50.9279 90.9882 50.9944 90.9733 51.4987 91.3029C51.7972 91.4981 52.8902 91.951 53.9275 92.3094C55.5983 92.8865 56.0422 92.9461 57.8175 92.8313C59.2815 92.7368 60.3297 92.5022 61.7075 91.9607C67.3414 89.7465 68.771 89.4793 70.7285 90.2741ZM44.0493 119.168C44.7466 119.865 44.8508 120.122 44.8508 121.145C44.8508 122.113 44.6976 122.545 43.9854 123.585C41.1374 127.745 40.5742 128.268 38.9432 128.268C36.9259 128.268 35.5806 126.462 36.1389 124.503C36.4442 123.433 39.6364 119.046 40.3872 118.664C40.7027 118.504 41.4755 118.372 42.1043 118.37C43.0926 118.367 43.3564 118.475 44.0493 119.168ZM54.9773 120.129C55.3474 120.32 55.8857 120.857 56.1733 121.323C57.0583 122.755 56.7948 123.56 54.3419 126.919C53.9843 127.409 53.2681 128.417 52.7504 129.158C50.8881 131.827 49.2951 133.811 48.787 134.093C47.4038 134.862 45.3294 134.093 44.6957 132.577C44.0262 130.974 44.2836 130.379 47.6629 125.721C50.6863 121.554 51.7668 120.206 52.2347 120.018C53.0311 119.697 54.2366 119.746 54.9773 120.129ZM63.6621 126.28C63.9521 126.483 64.4114 127.084 64.683 127.616C65.2959 128.818 65.0821 129.74 63.7694 131.552C61.0785 135.267 60.3797 136.238 59.89 136.943C58.3493 139.158 57.5214 140.039 56.7365 140.298C55.1864 140.81 53.6182 139.98 52.9804 138.31C52.6049 137.326 52.6077 137.229 53.0429 136.245C53.294 135.677 53.6502 135.056 53.8344 134.864C54.0187 134.673 54.3481 134.25 54.5666 133.926C54.9783 133.315 55.3578 132.783 58.2338 128.783C59.1761 127.473 60.131 126.294 60.3556 126.163C60.9964 125.789 63.0666 125.863 63.6621 126.28ZM69.7822 136.644C70.417 137.316 70.5484 137.641 70.5484 138.535C70.5484 139.812 70.4048 140.112 68.7264 142.35C67.7094 143.707 67.2588 144.112 66.5228 144.333C63.9149 145.114 61.7268 142.549 62.9575 140.153C63.9087 138.302 65.6903 136.178 66.5452 135.877C67.7832 135.441 68.895 135.704 69.7822 136.644Z" stroke="#FFD100" stroke-width="1.31899" mask="url(#path-1-outside-1_1_587)"/>
</svg>
