<svg width="101" height="101" viewBox="0 0 101 101" fill="none" xmlns="http://www.w3.org/2000/svg">
<path fill-rule="evenodd" clip-rule="evenodd" d="M88.4464 0.181032C87.8435 0.487831 87.5274 1.2423 87.5274 2.37474V3.30966L47.0456 3.36483L6.56369 3.42021L5.40557 3.89694C2.94507 4.90999 1.02026 6.97925 0.331488 9.35173C-0.110496 10.8737 -0.110496 93.4601 0.331488 94.9821C1.02215 97.3609 2.96276 99.443 5.40557 100.426C6.43735 100.841 7.03074 100.901 10.8437 100.974C15.4697 101.064 16.1239 100.957 16.5383 100.047C16.6973 99.6982 16.7763 97.5382 16.7763 93.5338V87.5425H32.6742C41.4181 87.5425 48.5722 87.5859 48.5722 87.6391C48.5722 87.6922 47.8586 90.2938 46.9864 93.4201C45.9207 97.2409 45.4452 99.2819 45.5366 99.6456C45.6929 100.268 46.3665 100.808 46.9872 100.809C47.222 100.809 49.9158 99.8378 52.9735 98.6504L58.5331 96.4917L62.5472 92.0697L66.5611 87.6478L81.203 87.5425L95.8449 87.4372L96.9403 86.9419C98.3245 86.3157 99.9613 84.6036 100.493 83.2252C100.888 82.2001 100.899 81.1837 100.899 43.7442C100.899 6.30458 100.888 5.28817 100.493 4.26312C99.9577 2.87568 98.3233 1.16965 96.9403 0.555002C95.9628 0.120598 95.4707 0.0618497 92.3705 0.0102603C90.1709 -0.0263787 88.731 0.0361604 88.4464 0.181032ZM95.9523 3.78871C96.3351 4.04918 96.8466 4.52991 97.0889 4.85692L97.5294 5.45136L97.584 40.2032C97.6358 73.2977 97.6208 74.9473 97.2681 74.7967C96.1687 74.3274 94.5918 74.0661 92.8576 74.0661H90.9096L90.9014 38.6905L90.8934 3.31493H93.0749C94.9904 3.31493 95.341 3.37262 95.9523 3.78871ZM87.5274 10.8954V15.1068H82.3784C79 15.1068 77.0497 15.1885 76.7073 15.3447C75.5378 15.8775 75.5378 17.7052 76.7073 18.2379C77.0497 18.3942 79 18.4759 82.3784 18.4759H87.5274V25.2141V31.9523H82.3784C79 31.9523 77.0497 32.034 76.7073 32.1902C75.5378 32.723 75.5378 34.5507 76.7073 35.0835C77.0497 35.2397 79 35.3214 82.3784 35.3214H87.5274V41.2173V47.1133H82.3784C79 47.1133 77.0497 47.195 76.7073 47.3512C75.5378 47.8839 75.5378 49.7117 76.7073 50.2444C77.0497 50.4007 79 50.4824 82.3784 50.4824H87.5274V51.2193C87.5274 52.0734 87.5849 52.0469 86.6123 51.6405C85.634 51.2318 83.2049 51.2339 82.0408 51.6447C81.5422 51.8205 80.8221 52.2025 80.4407 52.4933C80.0596 52.7841 74.1883 59.1772 67.3937 66.7L55.0398 80.3779L54.2369 79.6527C52.4096 78.0016 50.4401 77.4352 46.5276 77.4352H43.7291V79.1197V80.8043H46.7411C49.5332 80.8043 49.8301 80.8428 50.8114 81.3317C51.3936 81.6219 52.0712 82.0736 52.3176 82.3357L52.7652 82.8125L52.2327 83.4928L51.7002 84.1734H29.65C5.713 84.1734 6.30912 84.1464 4.19606 85.3273L3.29988 85.8282V48.2497C3.29988 14.9855 3.33694 10.5827 3.62226 9.89984C4.14994 8.63685 4.90631 7.81352 6.07265 7.23214L7.17287 6.68403H47.35H87.5274V10.8954ZM34.9381 10.3785C30.641 11.5355 28.0615 15.4919 28.7435 19.8795C29.0666 21.9572 29.8273 23.4958 31.4531 25.36L32.7949 26.8986H24.5084C19.4659 26.8986 15.7327 26.9879 14.9726 27.1269C9.69885 28.09 5.9939 33.2921 6.85744 38.5208C7.69782 43.6092 11.9732 47.1133 17.3414 47.1133H18.4608V49.7355C18.4608 51.2088 18.5632 52.5826 18.6946 52.8708C19.0201 53.5853 19.731 53.8515 21.3126 53.8515H22.6705L24.198 56.1591C25.872 58.6884 26.4494 59.1397 27.4627 58.7116C27.8413 58.5516 28.5705 57.668 29.5692 56.1591L31.0967 53.8515H32.4546C34.0362 53.8515 34.7471 53.5853 35.0726 52.8708C35.204 52.5826 35.3063 51.2088 35.3063 49.7355V47.1133H41.826C47.9853 47.1133 48.4128 47.1383 49.5579 47.5668C52.0666 48.5053 53.8364 51.1052 53.8364 53.8515C53.8364 56.5977 52.0666 59.1976 49.5579 60.1361C48.3559 60.5859 48.2125 60.5897 32.2838 60.5897C21.6571 60.5897 15.799 60.6669 14.9726 60.8179C9.69885 61.7811 5.9939 66.9832 6.85744 72.2118C7.55484 76.4352 10.8401 79.8213 14.9726 80.576C15.6596 80.7015 17.1048 80.8043 18.1837 80.8043H20.1454V79.1197V77.4352H17.8371C14.8605 77.4352 13.5704 76.9942 12.0248 75.4485C10.1078 73.5314 9.52914 70.8098 10.4916 68.2373C11.1036 66.6016 12.6809 65.0242 14.3166 64.4123C15.5186 63.9626 15.662 63.9588 31.5906 63.9588C42.2174 63.9588 48.0754 63.8815 48.9019 63.7305C54.1756 62.7674 57.8806 57.5653 57.0171 52.3366C56.3196 48.1132 53.0343 44.7271 48.9019 43.9724C48.1885 43.8421 45.0041 43.7442 41.4794 43.7442H35.3063V41.9642C35.3063 39.9726 35.0789 39.2675 34.3257 38.9242C33.6153 38.6006 20.1519 38.6006 19.4415 38.9242C18.6882 39.2675 18.4608 39.9726 18.4608 41.9642V43.7442H16.9949C12.0385 43.7442 8.77635 39.1304 10.4916 34.5463C11.1036 32.9106 12.6809 31.3332 14.3166 30.7213C15.5186 30.2715 15.662 30.2677 31.5906 30.2677C42.2174 30.2677 48.0754 30.1905 48.9019 30.0395C52.9091 29.3075 56.2453 25.9713 56.9772 21.9642C57.1027 21.2771 57.2055 18.3159 57.2055 15.3839V10.0531H55.521H53.8364V15.7305C53.8364 22.4565 53.7069 23.0547 51.8497 24.9119C50.1428 26.6188 49.1451 26.8986 44.7664 26.8986H41.1869L42.5286 25.36C44.1544 23.4958 44.9152 21.9572 45.2382 19.8795C45.9201 15.493 43.2909 11.4884 38.9997 10.3778C37.479 9.98449 36.4009 9.98449 34.9381 10.3785ZM61.4935 11.984C60.6801 12.3778 60.5746 13.0264 60.5746 17.6336C60.5746 22.3131 60.6753 22.8949 61.5552 23.2958C62.2518 23.6131 70.6893 23.6131 71.3858 23.2958C72.2658 22.8949 72.3665 22.3131 72.3665 17.6336C72.3665 12.9541 72.2658 12.3723 71.3858 11.9714C70.7204 11.6684 62.1229 11.6791 61.4935 11.984ZM39.6426 14.1702C41.7287 15.4599 42.5663 18.06 41.7182 20.6134C41.4109 21.538 40.9603 22.1276 39.168 23.949L36.9909 26.1617L34.8168 23.9507C32.4159 21.5091 31.9372 20.6092 31.9372 18.537C31.9372 16.5071 32.9398 14.8577 34.7214 13.9564C36.2716 13.1723 38.1612 13.2542 39.6426 14.1702ZM68.9974 17.6336V20.1604H66.4705H63.9437V17.6336V15.1068H66.4705H68.9974V17.6336ZM36.2162 17.0417C35.0532 17.6039 35.1552 19.4512 36.3773 19.9575C38.2524 20.734 39.5497 17.8703 37.7037 17.0293C37.081 16.7454 36.8245 16.7475 36.2162 17.0417ZM61.4935 27.145C60.6801 27.5388 60.5746 28.1873 60.5746 32.7946C60.5746 37.474 60.6753 38.0558 61.5552 38.4568C62.2518 38.7741 70.6893 38.7741 71.3858 38.4568C72.2658 38.0558 72.3665 37.474 72.3665 32.7946C72.3665 28.1151 72.2658 27.5333 71.3858 27.1324C70.7204 26.8294 62.1229 26.8401 61.4935 27.145ZM68.9974 32.7946V35.3214H66.4705H63.9437V32.7946V30.2677H66.4705H68.9974V32.7946ZM31.9372 46.271V50.4824H30.9996C29.6107 50.4824 29.1986 50.7649 28.0689 52.4931C27.5048 53.356 26.9714 54.062 26.8836 54.062C26.7958 54.062 26.2624 53.356 25.6983 52.4931C24.5686 50.7649 24.1565 50.4824 22.7676 50.4824H21.8299V46.271V42.0596H26.8836H31.9372V46.271ZM61.4935 42.306C61.2461 42.4256 60.9383 42.7553 60.8092 43.0385C60.491 43.7368 60.4904 52.1728 60.8083 52.8708C61.2093 53.7508 61.7911 53.8515 66.4705 53.8515C69.2484 53.8515 71.062 53.7651 71.3858 53.6177C72.2658 53.2168 72.3665 52.635 72.3665 47.9555C72.3665 43.2761 72.2658 42.6943 71.3858 42.2933C70.7204 41.9903 62.1229 42.0011 61.4935 42.306ZM68.9974 47.9555V50.4824H66.4705H63.9437V47.9555V45.4287H66.4705H68.9974V47.9555ZM85.7584 54.8843C87.5708 55.7074 88.2619 57.8719 87.2575 59.5796C86.9648 60.0771 86.4916 60.7025 86.2063 60.9689L85.6875 61.4536L83.2383 59.2149C81.8913 57.9835 80.7892 56.8978 80.7892 56.8019C80.7892 56.4918 82.896 54.7238 83.3763 54.6308C84.3457 54.4432 84.9216 54.5044 85.7584 54.8843ZM81.0996 61.7383L83.5129 63.9398L82.4458 65.1074C81.8589 65.7496 81.2849 66.275 81.1703 66.275C81.0556 66.275 79.9518 65.3607 78.7172 64.243C77.4827 63.1255 76.4014 62.1496 76.3146 62.0742C76.1384 61.9215 78.1839 59.5368 78.4911 59.5368C78.5983 59.5368 79.7722 60.5275 81.0996 61.7383ZM75.043 65.5761C74.9796 65.9312 53.9882 89.1946 53.7151 89.2123C53.5907 89.2205 53.2714 88.9958 53.0059 88.713L52.5229 88.199L53.0217 87.5812C53.2961 87.2414 58.108 81.8876 63.7148 75.6841L73.9091 64.4048L74.4983 64.8661C74.8223 65.1198 75.0674 65.4393 75.043 65.5761ZM87.8022 76.6171C88.1305 77.2754 88.9776 77.4352 92.1387 77.4352C95.0327 77.4352 95.3071 77.4695 95.9666 77.914C98.2071 79.4238 98.2071 82.1848 95.9666 83.6945L95.2561 84.1734H82.5222C70.4503 84.1734 69.803 84.1542 70.0772 83.8068C70.2359 83.6053 74.2037 79.1861 78.8941 73.9865L87.4221 64.5324L87.5274 70.4047C87.5853 73.6344 87.7089 76.4301 87.8022 76.6171ZM78.1297 69.905C77.6587 70.3984 72.8967 75.655 67.5476 81.5861C62.1985 87.5174 57.7208 92.4327 57.5972 92.5092C57.4736 92.5856 57.1333 92.4089 56.841 92.1169C56.3708 91.6465 56.343 91.5393 56.5997 91.182C56.7591 90.96 61.5752 85.5939 67.3021 79.257L77.7145 67.7355L78.3504 68.3717L78.9865 69.0076L78.1297 69.905ZM23.5145 79.1197V80.8043H25.199H26.8836V79.1197V77.4352H25.199H23.5145V79.1197ZM30.2527 79.1197V80.8043H31.9372H33.6218V79.1197V77.4352H31.9372H30.2527V79.1197ZM36.9909 79.1197V80.8043H38.6754H40.36V79.1197V77.4352H38.6754H36.9909V79.1197ZM13.4072 92.6107V97.6788L10.0732 97.6117C6.78184 97.5453 6.72604 97.5363 5.70942 96.9073C2.35 94.8282 2.54772 89.8472 6.05938 88.0973C7.11138 87.573 7.34448 87.5425 10.2899 87.5425H13.4072V92.6107ZM53.1792 93.2598C53.9025 93.9145 54.4125 94.5007 54.3127 94.5624C53.9423 94.7913 49.7495 96.3706 49.6846 96.3055C49.6476 96.2684 49.9196 95.1404 50.2892 93.7989C51.0613 90.996 50.7434 91.0554 53.1792 93.2598Z" fill="#7F7F7F"/>
</svg>
