<svg width="96" height="96" viewBox="0 0 96 96" fill="none" xmlns="http://www.w3.org/2000/svg">
<path fill-rule="evenodd" clip-rule="evenodd" d="M13.8717 0.251425C11.7649 0.820333 9.9458 2.42161 9.13953 4.41729L8.70722 5.48719V34.6644V63.8416L9.15979 64.9674C9.78612 66.5246 11.4885 68.2197 13.0228 68.8132C13.9338 69.1657 14.623 69.2652 16.6348 69.3346L19.121 69.4204V71.6562C19.121 74.6815 19.5146 75.6178 21.0911 76.3416C21.7516 76.6451 22.3766 76.6869 26.298 76.6905L30.7543 76.6946V82.136V87.5774H25.3983H20.042L19.5816 88.038C19.0292 88.5904 18.9919 89.2528 19.4795 89.8551L19.8379 90.2981L25.7677 90.3525C32.2426 90.4122 32.7091 90.3484 33.1675 89.3421C33.3185 89.0107 33.3812 86.015 33.3812 79.125V69.3768H34.8898H36.3984L36.3439 79.7437C36.2899 90.0444 36.2869 90.1154 35.8728 90.8897C35.3669 91.8358 34.27 92.7743 33.3812 93.0216C32.9789 93.1335 26.5582 93.2048 16.814 93.2053L0.903303 93.2065L0.442847 93.6671C-0.109737 94.2195 -0.146889 94.8819 0.340962 95.4842L0.699719 95.9272H17.1812H33.6626L34.92 95.3316C36.4622 94.601 37.6452 93.45 38.3687 91.9767L38.9164 90.861L38.9718 83.7778L39.0271 76.6946H41.4579H43.8887V85.9688V95.2432L44.3832 95.632C45.0069 96.1227 45.3975 96.1227 46.0212 95.632L46.5156 95.2432V82.3099V69.3768H48.0167H49.5178V82.3099V95.2432L50.0122 95.632C50.6359 96.1227 51.0266 96.1227 51.6502 95.632L52.1447 95.2432V85.9688V76.6946H54.5755H57.0063L57.0616 83.7778L57.117 90.861L57.6647 91.9767C58.3882 93.45 59.5713 94.601 61.1134 95.3316L62.3708 95.9272H78.829C94.2017 95.9272 95.3087 95.9058 95.6129 95.6014C96.1002 95.1143 96.0409 93.9913 95.505 93.5575C95.089 93.2207 94.4265 93.2065 79.1901 93.2053C69.4649 93.2048 63.0543 93.1335 62.6522 93.0216C61.7634 92.7743 60.6665 91.8358 60.1606 90.8897C59.7465 90.1154 59.7435 90.0444 59.6895 79.7437L59.635 69.3768H61.1436H62.6522V79.125C62.6522 86.015 62.7149 89.0107 62.8659 89.3421C63.362 90.431 62.8896 90.403 79.8024 90.3482C94.2118 90.3017 95.31 90.2754 95.6131 89.9724C96.1002 89.4853 96.0407 88.3623 95.505 87.9285C95.0896 87.592 94.4499 87.5774 80.1752 87.5774H65.2791V82.136V76.6946L69.7354 76.6905C73.6568 76.6869 74.2818 76.6451 74.9423 76.3416C76.5188 75.6178 76.9125 74.6815 76.9125 71.6562V69.4204L79.3986 69.3346C81.4104 69.2652 82.0996 69.1657 83.0106 68.8132C84.5449 68.2197 86.2473 66.5246 86.8736 64.9674L87.3262 63.8416L87.3785 49.0976C87.4309 34.3616 87.4307 34.3533 87.0365 33.8523C86.4933 33.1616 85.5348 33.1584 84.9944 33.8454C84.6087 34.3357 84.6055 34.458 84.6013 48.8092C84.5974 62.442 84.5773 63.322 84.2529 64.0292C83.8146 64.9847 83.0278 65.7714 82.0724 66.2097C81.3534 66.5396 79.9253 66.5541 48.0167 66.5541C16.1081 66.5541 14.68 66.5396 13.961 66.2097C13.0056 65.7714 12.2188 64.9847 11.7805 64.0292C11.4512 63.3117 11.4362 62.0229 11.4362 34.6644C11.4362 7.30593 11.4512 6.01707 11.7805 5.29955C12.2188 4.34412 13.0056 3.55736 13.961 3.11905C14.68 2.78919 16.1081 2.77474 48.0167 2.77474C79.9253 2.77474 81.3534 2.78919 82.0724 3.11905C83.0278 3.55736 83.8146 4.34412 84.2529 5.29955C84.5745 6.00056 84.5976 6.78843 84.6013 17.2359C84.6055 28.2651 84.6109 28.4287 84.9944 28.9162C85.5354 29.6041 86.4933 29.5999 87.0378 28.9076C87.4318 28.4068 87.4333 28.3572 87.3798 16.9459L87.3262 5.48719L86.8736 4.36138C86.2544 2.82146 84.5505 1.11755 83.0106 0.498352L81.8848 0.0457769L48.392 0.00993866C19.3487 -0.0212087 14.7628 0.0108768 13.8717 0.251425ZM16.2126 5.93169C15.3193 6.34449 14.9194 6.76329 14.531 7.69265C14.2783 8.29796 14.2424 10.5901 14.2424 26.1895C14.2424 43.9193 14.2441 43.9977 14.6314 44.4899C15.1011 45.0869 15.8812 45.1431 16.5201 44.6257L16.9632 44.267L17.057 26.3783L17.1508 8.48934L29.1997 8.39553C42.6533 8.29083 41.8998 8.37432 41.8998 6.98826C41.8998 5.59808 42.6729 5.68008 29.1059 5.62998C17.6371 5.58738 16.9215 5.60427 16.2126 5.93169ZM46.2257 6.04165C45.6731 6.59404 45.636 7.25639 46.1237 7.8587L46.4824 8.30171L62.6824 8.39553L78.8826 8.48934V34.6644V60.8395H48.0167H17.1508L17.057 55.2766C16.9705 50.145 16.9354 49.6832 16.6057 49.3192C16.0837 48.743 15.1251 48.7914 14.6314 49.4191C14.258 49.8938 14.2424 50.1332 14.2424 55.4294C14.2424 59.9688 14.2935 61.0676 14.531 61.6361C14.9198 62.5664 15.3198 62.9849 16.2126 63.3948C16.9313 63.7249 18.2803 63.7395 48.0167 63.7395C77.7531 63.7395 79.1021 63.7249 79.8208 63.3948C80.7136 62.9849 81.1136 62.5664 81.5024 61.6361C81.7574 61.0256 81.791 57.8904 81.791 34.6644C81.791 11.4384 81.7574 8.30321 81.5024 7.69265C81.1136 6.76235 80.7136 6.34393 79.8208 5.93394C79.1112 5.60802 78.1882 5.58907 62.8783 5.58513L46.6862 5.581L46.2257 6.04165ZM24.0584 11.547C21.9539 12.2991 20.7408 13.5784 20.1229 15.6977C19.7355 17.0273 19.8904 18.2899 20.6247 19.781C21.2746 21.1014 21.9717 21.7662 23.3896 22.418L24.3747 22.871V24.5252C24.3747 26.5246 24.6614 27.0464 25.7604 27.0464C26.8673 27.0464 27.0855 26.6689 27.1603 24.625L27.2251 22.8545L28.1923 22.4098C29.6122 21.757 30.2929 21.0943 30.9828 19.6928C31.503 18.6363 31.5983 18.2372 31.5962 17.1245C31.5919 14.8076 30.452 12.9524 28.4171 11.9506C26.8879 11.1979 25.417 11.0616 24.0584 11.547ZM46.0465 13.9017C44.7704 14.3246 43.8274 14.898 43.0153 15.7446C42.5051 16.2768 39.3371 21.5827 33.8478 31.099C29.2347 39.0969 25.3215 45.9784 25.1521 46.3912C24.9493 46.8852 24.8438 47.6878 24.8438 48.737C24.8438 50.1394 24.9157 50.4837 25.4394 51.5892C26.1704 53.1323 27.424 54.4205 28.8412 55.0847L29.9099 55.5857H48.1105H66.3111L67.4981 54.9421C68.9205 54.1709 69.8148 53.1933 70.5997 51.5515C71.1091 50.4858 71.1832 50.1306 71.1862 48.737C71.1885 47.6806 71.0855 46.8886 70.8813 46.3912C70.7119 45.9784 66.7988 39.0969 62.1858 31.099C53.2226 15.5598 52.99 15.2091 51.0189 14.2646C49.7822 13.6718 47.2889 13.4898 46.0465 13.9017ZM27.5138 14.5214C28.4954 15.2541 28.7841 15.8409 28.7841 17.102C28.7841 18.0872 28.7031 18.382 28.2787 18.9382C26.64 21.0866 23.1735 20.3327 22.7521 17.7364C22.5119 16.2567 23.2084 14.8457 24.4592 14.2781C25.2457 13.9212 26.8849 14.0518 27.5138 14.5214ZM50.3843 17.0746C50.7205 17.3138 51.1553 17.7176 51.3504 17.9718C51.5456 18.2259 55.4499 24.9263 60.0268 32.8612C67.6756 46.1218 68.3554 47.3703 68.4323 48.2991C68.5788 50.0653 67.6878 51.7206 66.1467 52.5449L65.3729 52.9588H48.0167H30.6605L29.8867 52.5449C28.3454 51.7204 27.4546 50.0653 27.6011 48.2987C27.6782 47.3686 28.3685 46.1032 36.2282 32.4856C45.5155 16.394 45.2243 16.823 47.0785 16.5002C48.2235 16.301 49.6439 16.5477 50.3843 17.0746ZM48.246 23.924C47.3782 24.3557 37.9114 36.9796 37.7612 37.9056C37.6306 38.7107 38.0974 39.7649 38.7918 40.2332C39.1906 40.5019 39.7709 40.5837 41.6596 40.6376L44.0274 40.7051L42.7385 43.7013C41.3196 46.9989 41.1883 47.7574 41.8375 48.8991C42.3912 49.8729 43.0536 50.294 44.1781 50.3873C45.9897 50.5376 46.0456 50.4833 51.36 43.4046C54.2779 39.5183 56.2317 36.746 56.3411 36.3375C56.4856 35.7975 56.4505 35.5228 56.1623 34.9423C55.5198 33.6478 55.0571 33.4536 52.4368 33.3793L50.1293 33.3136L51.4151 30.3771C52.3854 28.1606 52.7016 27.2286 52.7042 26.577C52.7128 24.376 50.2653 22.9194 48.246 23.924ZM48.373 30.4867C47.4545 32.6188 46.7033 34.6006 46.7033 34.8909C46.7033 35.905 47.1555 36.0617 50.3803 36.1655L53.2962 36.2593L48.9663 42.0291C46.5847 45.2023 44.5595 47.7988 44.4657 47.7988C44.0313 47.7988 44.2554 47.0813 45.7981 43.5318C46.7087 41.4371 47.4538 39.4846 47.4538 39.193C47.4538 38.1313 46.9796 37.9583 43.7876 37.8542L40.91 37.7604L45.2384 31.988C50.5621 24.8879 50.8425 24.7535 48.373 30.4867ZM30.7543 71.6318V73.887L26.3918 73.8365L22.0293 73.7862L21.9764 71.5815L21.9236 69.3768H26.3389H30.7543V71.6318ZM43.8887 71.6284V73.8801H41.4495H39.0102V71.6284V69.3768H41.4495H43.8887V71.6284ZM57.0232 71.6284V73.8801H54.5839H52.1447V71.6284V69.3768H54.5839H57.0232V71.6284ZM74.057 71.5815L74.0041 73.7862L69.6416 73.8365L65.2791 73.887V71.6318V69.3768H69.6945H74.1097L74.057 71.5815ZM0.442847 88.038C-0.109737 88.5904 -0.146889 89.2528 0.340962 89.8551L0.699532 90.2981H7.65196C14.0013 90.2981 14.6325 90.2698 14.9299 89.9724C15.4172 89.4853 15.3579 88.3623 14.822 87.9285C14.4164 87.6001 13.9542 87.5774 7.64596 87.5774H0.903303L0.442847 88.038Z" fill="#7F7F7F"/>
</svg>
