<svg width="147" height="145" viewBox="0 0 147 145" fill="none" xmlns="http://www.w3.org/2000/svg">
<path fill-rule="evenodd" clip-rule="evenodd" d="M103.652 0.629943C102.439 1.9384 102.71 2.86115 104.953 5.05982C105.609 5.70344 106.146 6.34352 106.146 6.48261C106.146 6.62148 105.554 7.31507 104.831 8.02376C102.681 10.1293 102.436 11.0254 103.652 12.3367C104.105 12.8242 104.458 12.9666 105.214 12.9666C106.098 12.9666 106.346 12.8186 107.781 11.4342C108.654 10.5914 109.458 9.9018 109.567 9.9018C109.676 9.9018 110.48 10.5914 111.354 11.4342C112.695 12.7288 113.071 12.9666 113.771 12.9666C114.943 12.9666 115.269 12.7943 115.838 11.8751C116.533 10.7515 116.318 10.1633 114.512 8.2416C113.674 7.34973 112.988 6.5491 112.988 6.46234C112.988 6.37582 113.676 5.57613 114.516 4.68544C116.245 2.85408 116.493 2.25431 115.953 1.21108C115.491 0.317329 114.928 0 113.806 0C113.063 0 112.72 0.214067 111.354 1.53242C110.48 2.37525 109.676 3.06484 109.567 3.06484C109.458 3.06484 108.654 2.37525 107.781 1.53242C106.346 0.148055 106.098 0 105.214 0C104.458 0 104.105 0.142398 103.652 0.629943ZM61.0875 3.31899C59.4026 3.55899 57.0241 4.08308 56.7212 4.28111C56.5905 4.36669 56.0696 4.51428 55.5636 4.60905C55.0578 4.70383 54.3685 4.92497 54.0321 5.10061C53.6957 5.27601 53.2345 5.42006 53.0075 5.421C52.7806 5.42171 52.5947 5.5285 52.5947 5.65817C52.5947 5.78784 52.4701 5.89393 52.318 5.89393C51.7393 5.89393 48.0871 7.90612 46.1274 9.30439C42.7379 11.7233 38.9591 15.6432 37.2563 18.5069C36.9479 19.0256 36.6323 19.503 36.5549 19.5678C36.2966 19.784 34.2262 24.1472 33.7582 25.4618C32.5619 28.8208 31.9131 31.9434 31.7258 35.2457C31.5918 37.6056 31.5201 37.9133 30.928 38.6642C29.7654 40.1379 29.4462 41.1135 29.4507 43.1766C29.454 44.6515 29.5684 45.3019 29.9572 46.0575C31.0374 48.1567 33.0545 49.621 35.31 49.9435C36.4006 50.0993 36.4348 50.1286 36.4348 50.9068C36.4348 51.5898 36.3294 51.744 35.7271 51.9413C35.3378 52.0686 34.9663 52.2377 34.9014 52.3166C34.8365 52.3956 34.3284 52.7551 33.7721 53.1156C32.6789 53.8241 31.2045 55.899 30.973 57.0551C30.8945 57.4484 30.7376 57.8275 30.6246 57.8972C30.5116 57.967 30.4191 58.6243 30.4191 59.358C30.4191 61.9714 31.9457 64.717 34.3237 66.3807C35.3055 67.0677 36.9045 67.6623 37.7701 67.6623C38.5837 67.6623 39.1284 68.1958 39.1402 69.004C39.1445 69.2881 39.2457 69.5811 39.3655 69.6549C39.4854 69.7289 39.6555 70.133 39.7435 70.5529C39.927 71.428 42.1608 76.1109 42.618 76.5789C42.7855 76.7503 42.9224 76.9799 42.9224 77.089C42.9224 77.2991 45.3244 80.5738 46.2105 81.572C47.102 82.5761 48.5073 84.0191 49.2101 84.6524C50.1669 85.5143 53.4947 87.9926 54.5409 88.6223C55.3992 89.1388 55.4256 89.1952 55.4256 90.5128C55.4256 92.046 55.7207 91.785 52.1229 93.435C49.1907 94.7798 48.6425 95.0101 48.3717 95.0101C48.2289 95.0101 48.1124 95.1162 48.1124 95.2459C48.1124 95.3755 48.0003 95.4816 47.8635 95.4816C47.6031 95.4816 46.3669 96.0043 43.984 97.1218C43.2054 97.4868 42.0908 97.9995 41.5069 98.2612C37.1109 100.231 34.1833 101.622 33.9578 101.847C33.7374 102.067 32.326 103.026 32.2222 103.026C32.1655 103.026 31.7728 103.318 31.3495 103.674C29.2398 105.452 27.2402 107.701 26.2006 109.464C25.8802 110.008 25.557 110.505 25.4824 110.57C25.3395 110.695 24.7966 111.788 24.1953 113.163C23.4732 114.815 23.0837 116.16 22.6277 118.572C22.2061 120.803 22.1622 122.075 22.1622 132.088V143.141L22.8518 143.83L23.5414 144.519H67.064H110.587L111.197 143.794L111.808 143.069V131.688C111.808 121.451 111.764 120.097 111.365 118.209C110.621 114.689 109.547 111.96 108.009 109.674C107.633 109.117 107.326 108.624 107.326 108.579C107.326 108.404 105.964 106.857 104.613 105.497C103.018 103.892 101.395 102.549 100.639 102.207C100.359 102.081 100.078 101.911 100.013 101.83C99.8508 101.627 95.7955 99.697 91.343 97.7034C90.5968 97.3694 89.4557 96.849 88.8069 96.5473C88.1582 96.2455 86.9904 95.7136 86.2119 95.3656C84.6856 94.6831 83.787 94.2746 81.3267 93.1439C80.4562 92.744 79.6788 92.4168 79.5993 92.4168C79.1825 92.4168 78.7807 91.6355 78.7807 90.8252C78.7807 89.9828 78.8635 89.8647 79.7834 89.3934C80.9485 88.7965 82.15 88.1067 82.3194 87.9374C82.6591 87.5979 83.9821 86.7586 84.1774 86.7586C84.3018 86.7586 84.4386 86.6789 84.482 86.5818C84.5252 86.4844 85.0913 85.9849 85.7401 85.4714C89.5857 82.4271 93.2319 77.8081 95.332 73.3205C96.6333 70.54 96.8708 69.9562 97.0596 69.0759C97.3113 67.9014 97.5835 67.6632 98.685 67.6543C99.2207 67.6498 100.083 67.4414 100.602 67.1908C101.121 66.9402 101.627 66.7318 101.725 66.7273C101.929 66.7181 103.109 65.7116 103.947 64.8332C105.703 62.9929 106.365 59.5591 105.462 56.9785C105.047 55.7952 103.761 53.7823 103.28 53.5633C103.194 53.5242 102.885 53.2856 102.593 53.0329C102.302 52.7804 101.921 52.5738 101.746 52.5738C101.571 52.5738 101.428 52.4762 101.428 52.3567C101.428 52.2374 101.104 52.0686 100.708 51.9819C100.018 51.8303 99.9914 51.7796 100.06 50.7262C100.124 49.7379 100.21 49.5913 100.932 49.252C102.058 48.7225 103.501 47.2233 104.09 45.9726C104.824 44.4122 104.803 41.5385 104.047 40.0445C103.742 39.4424 103.258 38.6969 102.972 38.3883C102.522 37.9039 102.415 37.3913 102.193 34.6502C101.854 30.4754 101.497 28.8076 100.125 24.9903C99.5475 23.3817 98.0079 20.3098 97.0723 18.899C96.6134 18.2068 96.2381 17.5526 96.2381 17.4451C96.2381 17.3376 96.1586 17.2143 96.0612 17.1709C95.9638 17.1278 95.4629 16.5619 94.9482 15.9136C90.1611 9.886 82.8023 5.31656 75.36 3.75042C72.205 3.0863 64.3803 2.84983 61.0875 3.31899ZM142.03 4.6918C141.423 5.25786 141.298 5.55279 141.305 6.40104C141.31 7.0522 141.476 7.62179 141.759 7.96152C142.332 8.64757 143.638 9.17095 144.246 8.95806C144.505 8.8673 144.931 8.7183 145.193 8.6273C145.767 8.42667 146.487 7.23892 146.487 6.4911C146.487 5.80576 145.967 4.78964 145.394 4.35585C145.152 4.17267 144.461 4.01942 143.858 4.01542C142.969 4.00929 142.624 4.1366 142.03 4.6918ZM74.1805 8.13739C78.7472 9.21834 81.6081 10.5249 86.047 13.556C86.5913 13.9276 88.438 15.5871 89.4578 16.6209C90.3812 17.5571 93.1713 21.0805 93.1713 21.3103C93.1713 21.3763 93.4763 21.8865 93.8493 22.4441C94.2223 23.0016 94.6082 23.7231 94.7068 24.0472C94.8054 24.3714 94.9583 24.6897 95.0463 24.7545C95.1343 24.8193 95.449 25.562 95.7453 26.4048C96.0416 27.2476 96.3778 28.1494 96.4922 28.4087C96.8925 29.3159 97.4795 32.4324 97.5911 34.2437L97.7036 36.0708H66.9763H36.2487L36.382 34.3616C36.4551 33.4214 36.6405 32.1219 36.7941 31.4736C37.34 29.1676 38.708 25.1774 39.3658 23.9732C39.7331 23.3008 40.2325 22.3854 40.4753 21.9393C40.7182 21.493 41.0018 21.0156 41.1051 20.8784C41.2087 20.741 41.7218 20.0453 42.2455 19.3321C43.4251 17.7261 46.9371 14.2697 48.3542 13.3203C48.9348 12.9313 49.5238 12.5069 49.6633 12.3772C49.8024 12.2476 50.3332 11.9293 50.8428 11.67C51.3521 11.4106 51.8233 11.1273 51.8893 11.0403C51.9556 10.9533 52.3005 10.8092 52.656 10.7201C53.0115 10.631 53.3024 10.4811 53.3024 10.3872C53.3024 10.2934 53.6473 10.1022 54.0691 9.96239C54.4909 9.82259 55.4197 9.48262 56.1333 9.20702C57.5542 8.65818 60.1757 8.05464 62.385 7.76702C64.7596 7.45818 72.3125 7.69535 74.1805 8.13739ZM14.0233 10.4683C11.5213 11.2223 9.89985 12.576 8.8005 14.8296C8.25956 15.9384 8.15411 16.4698 8.14114 18.1533C8.1258 20.1127 8.22229 20.497 9.25746 22.6006C9.62879 23.3555 11.5507 25.0541 12.7824 25.7159C13.6376 26.1754 14.1389 26.256 16.1465 26.2572C18.9173 26.2584 20.1084 25.8251 21.7638 24.2132C23.5638 22.4606 24.3154 20.7176 24.3295 18.2643C24.3604 12.9247 19.0933 8.94038 14.0233 10.4683ZM129.333 11.9656C128.971 12.3228 128.466 13.0124 128.209 13.498C127.953 13.9837 127.661 14.3812 127.561 14.3812C127.46 14.3812 127.378 14.4819 127.378 14.6052C127.378 14.7282 127.078 15.2853 126.711 15.8429C126.344 16.4004 125.606 17.5462 125.072 18.3891C124.537 19.2319 123.989 20.0497 123.852 20.2063C123.716 20.3628 123.604 20.5528 123.604 20.6283C123.604 20.704 123.404 21.0531 123.16 21.4044C122.17 22.8286 119.829 26.443 119.829 26.5477C119.829 26.6578 118.88 28.0608 118.65 28.2909C118.585 28.3557 118.402 28.6209 118.245 28.8802C118.087 29.1396 117.632 29.8822 117.234 30.5306C116.836 31.1789 116.382 31.9215 116.224 32.1809C116.066 32.4402 115.878 32.7054 115.805 32.7702C115.354 33.1753 113.224 36.9974 113.224 37.4017C113.224 37.8096 113.508 38.3079 114.348 39.3714C114.399 39.4363 115.839 39.5424 117.548 39.6072L120.655 39.7251L120.573 40.3145C120.528 40.6386 120.406 41.01 120.302 41.1396C120.199 41.2693 120.005 41.7467 119.872 42.2005C119.74 42.6544 119.402 43.6092 119.122 44.3223C118.843 45.0355 118.518 45.9373 118.4 46.3263C118.282 46.7153 118.087 47.2457 117.969 47.5051C117.849 47.7644 117.517 48.6662 117.23 49.509C116.943 50.3518 116.562 51.3757 116.382 51.7843C116.202 52.1929 116.055 52.6757 116.055 52.857C116.055 53.0385 115.962 53.2877 115.849 53.4108C115.736 53.5341 115.461 54.2305 115.237 54.9588C114.862 56.1812 114.859 56.3391 115.209 57.0148C115.675 57.9161 116.236 58.232 117.368 58.232C118.396 58.232 119.135 57.5483 120.764 55.0891C121.337 54.2244 121.892 53.5169 121.997 53.5169C122.102 53.5169 122.188 53.4032 122.188 53.2644C122.188 53.1253 122.321 52.8707 122.483 52.6983C122.794 52.368 126.856 46.6816 127.26 46.0104C127.39 45.7951 127.629 45.5341 127.791 45.4304C127.953 45.3267 128.086 45.1461 128.086 45.0287C128.086 44.9113 128.59 44.1252 129.207 43.2817C129.823 42.4382 130.858 40.9949 131.507 40.0745C132.155 39.1541 132.819 38.2556 132.981 38.0781C133.143 37.9003 133.276 37.6464 133.276 37.5139C133.276 37.3814 133.409 37.1883 133.571 37.0846C133.984 36.8206 136.243 33.4733 136.446 32.8254C136.697 32.0234 136.191 30.7995 135.42 30.3445C134.903 30.0392 134.186 29.9412 132.473 29.9412C131.228 29.9412 130.209 29.8836 130.209 29.8134C130.209 29.7431 130.364 28.9208 130.554 27.9863C130.744 27.0517 131.01 25.6504 131.145 24.8724C131.28 24.0944 131.605 22.2908 131.868 20.8645C132.13 19.4382 132.437 17.6877 132.549 16.9745C132.661 16.2613 132.879 15.2127 133.032 14.6443C133.375 13.375 133.235 12.7542 132.423 11.9427C131.546 11.0664 130.232 11.0763 129.333 11.9656ZM67.7194 14.4269C67.2954 14.8411 66.6205 15.6368 66.2192 16.1951C65.8179 16.7534 65.4016 17.2103 65.2937 17.2103C65.1862 17.2103 65.0979 17.3642 65.0979 17.5521C65.0979 17.7403 64.9625 17.9788 64.7971 18.0826C64.6318 18.1863 63.9177 19.0138 63.2104 19.9215C62.5032 20.8291 61.8636 21.6248 61.7895 21.6897C61.7152 21.7545 61.4208 22.1421 61.1351 22.5511C60.3991 23.6049 60.4588 24.634 61.3052 25.4799C61.9209 26.0953 62.1547 26.1695 63.4874 26.1726C65.85 26.1785 65.8852 26.343 63.9462 28.3118C62.1717 30.1135 61.8827 30.6737 62.1193 31.8555C62.3194 32.8554 63.13 33.4603 64.2826 33.4697C65.2088 33.4773 65.3539 33.3585 69.2957 29.3605C73.121 25.4804 73.3548 25.1916 73.3548 24.344C73.3548 23.8494 73.1925 23.2131 72.9941 22.93C72.5923 22.3571 71.3236 21.9287 70.0226 21.9268C69.5522 21.9261 68.8371 21.8594 68.4332 21.7788L67.6991 21.6319L68.4606 20.6589C68.8793 20.1235 69.4156 19.4735 69.6522 19.2142C70.3908 18.4041 71.7034 16.3215 71.7034 15.9596C71.7034 15.4487 71.1132 14.4026 70.61 14.0219C69.8119 13.4179 68.575 13.5912 67.7194 14.4269ZM18.2523 15.3454C20.2709 16.7277 20.3009 19.8069 18.3089 21.1507C17.5655 21.6519 16.8453 21.7929 15.3756 21.7253C13.8315 21.6541 12.3557 19.3979 12.6536 17.5641C12.802 16.6492 13.8426 15.369 14.7966 14.9272C15.7061 14.5059 17.31 14.7002 18.2523 15.3454ZM126.335 25.9922C125.681 29.2671 125.436 30.7045 125.341 31.8272C125.243 32.9794 125.298 33.196 125.842 33.7722C126.387 34.3496 126.621 34.4205 127.978 34.4205C129.789 34.4205 129.844 34.5603 128.68 36.2062C128.229 36.8448 127.724 37.5662 127.56 37.8091C127.395 38.0517 127.153 38.3699 127.021 38.5164C126.89 38.6625 126.589 39.0831 126.354 39.4509C125.726 40.4298 125.616 40.0549 126.09 38.5505C126.448 37.4116 126.461 37.1447 126.185 36.5923C125.543 35.3103 125.108 35.1387 122.483 35.133C120.224 35.1281 120.065 35.0967 120.065 34.6563C120.065 34.397 120.154 34.1848 120.263 34.1848C120.372 34.1848 120.585 33.9462 120.737 33.6543C121.045 33.0645 121.182 32.8466 123.368 29.4692C124.211 28.1664 125.007 26.9218 125.137 26.7035C125.267 26.4854 125.506 26.1622 125.668 25.9854C125.83 25.8086 125.963 25.5653 125.963 25.445C125.963 25.3246 126.081 25.226 126.225 25.226C126.396 25.226 126.434 25.495 126.335 25.9922ZM99.4335 41.3648C100.239 42.1696 100.244 43.7919 99.4434 44.7217L98.8739 45.3833H66.9852H35.0965L34.527 44.7217C33.6917 43.7511 33.7424 42.3795 34.6473 41.4751L35.3369 40.786H67.0959H98.8546L99.4335 41.3648ZM57.734 50.3877C58.0862 50.6116 58.4276 50.8502 58.4924 50.9181C58.6283 51.06 58.873 51.2102 61.4413 52.7259C63.7851 54.1091 65.8361 55.1603 66.1989 55.1641C66.3501 55.1658 66.5094 55.2469 66.5528 55.344C66.6439 55.5491 68.5892 56.3469 70.6782 57.0358C75.9439 58.7724 80.9138 59.396 85.8005 58.9336C87.437 58.7787 89.1943 58.5045 89.7057 58.3242C90.2172 58.1438 90.8813 57.9963 91.1818 57.9963C91.4822 57.9963 91.7886 57.8984 91.8624 57.7787C91.9365 57.6589 92.3319 57.4875 92.741 57.3977C93.15 57.3081 94.1673 56.9285 95.0015 56.5544C96.7257 55.7813 97.6722 55.7099 98.9813 56.2545C101.752 57.4069 102.188 60.6301 99.8176 62.4299C99.0405 63.02 98.8345 63.0615 96.913 63.0134L94.8448 62.962L94.1406 63.8157C93.7391 64.3023 93.3716 65.0845 93.2852 65.6353C93.143 66.5443 92.4815 68.6166 91.9986 69.6662C91.8792 69.9256 91.5565 70.6512 91.2812 71.2791C90.2406 73.6524 87.7578 77.2182 85.5915 79.4502C83.5961 81.506 79.5345 84.6349 78.8593 84.6363C78.7081 84.6366 78.5488 84.7163 78.5054 84.8136C78.4266 84.9912 77.6894 85.3691 75.7139 86.2449C73.2944 87.3174 72.9139 87.4659 72.5822 87.4659C72.3909 87.4659 71.77 87.6319 71.2024 87.8346C70.4885 88.0897 69.3332 88.2017 67.457 88.1979C64.2347 88.1913 63.3682 87.9539 59.0822 85.9047C58.0442 85.4084 57.1419 84.9388 57.077 84.861C57.0121 84.7832 56.5141 84.4576 55.9701 84.1375C53.9394 82.9417 50.6838 79.9959 49.0968 77.9177C48.5026 77.1397 47.956 76.4501 47.8821 76.3853C47.7349 76.2564 46.9814 75.1275 46.5445 74.3814C45.0033 71.7506 42.9224 66.5205 42.9224 65.2786C42.9224 64.8832 42.4168 63.9397 41.7994 63.1829C41.7466 63.1181 40.73 63.065 39.5406 63.065C37.4256 63.065 37.3591 63.0478 36.5254 62.2899C36.0564 61.8634 35.4869 61.1031 35.26 60.6002C34.8719 59.7399 34.8707 59.6253 35.2425 58.6642C35.4598 58.1023 35.817 57.4257 36.0361 57.1605C36.4919 56.6095 38.1846 55.8744 38.998 55.8744C39.2995 55.8744 39.8418 55.6205 40.2033 55.3103C40.5644 55 41.2842 54.6784 41.8027 54.5955C42.321 54.5127 43.2038 54.2362 43.7646 53.9808C44.3251 53.7258 44.8351 53.5169 44.8976 53.5169C45.114 53.5169 47.9947 51.7558 48.073 51.5756C48.1164 51.4764 48.2969 51.3951 48.4743 51.3951C48.6514 51.3951 48.8815 51.2607 48.9853 51.0961C49.5677 50.1736 50.2901 50.0055 53.7235 49.9928C56.5259 49.9826 57.2015 50.0491 57.734 50.3877ZM95.2475 50.7085C95.31 51.2465 95.143 51.4043 93.8321 52.0446C93.0144 52.4439 91.7617 52.947 91.0481 53.1628C90.3345 53.3785 89.5114 53.6503 89.2191 53.7668C87.5842 54.4191 82.3274 54.7393 79.2526 54.3738C77.3832 54.1515 73.5567 53.2813 73.2486 53.0083C73.1253 52.899 72.8068 52.8061 72.5409 52.8016C72.2748 52.7971 71.6327 52.5887 71.1136 52.3381C70.5947 52.0875 70.0639 51.8788 69.9341 51.8744C69.4613 51.8578 66.5195 50.2886 66.6733 50.1349C66.7604 50.0479 73.2092 50.0043 81.004 50.0376L95.1765 50.0984L95.2475 50.7085ZM54.8436 61.6583C53.8375 62.664 53.7761 63.421 54.612 64.5164C55.1463 65.2163 55.34 65.3047 56.3402 65.3047C57.8496 65.3047 58.4924 64.655 58.4924 63.1296C58.4924 62.209 58.3832 61.9541 57.7665 61.4357C56.7382 60.571 55.8653 60.6374 54.8436 61.6583ZM78.5698 61.5093C77.675 62.3446 77.5783 63.5722 78.325 64.6201C78.7465 65.2116 78.9631 65.3036 79.9174 65.297C81.6473 65.2847 82.5322 64.2615 82.2224 62.6319C82.058 61.7662 80.8544 60.8253 79.9117 60.8253C79.5649 60.8253 78.9867 61.12 78.5698 61.5093ZM128.204 62.2121C126.901 62.4806 126.781 62.6338 125.395 65.8118C125.188 66.2852 125.019 66.836 125.019 67.0357C125.019 67.2353 124.913 67.4643 124.783 67.5444C124.653 67.6246 124.428 68.1614 124.283 68.7371C124.138 69.3131 123.926 69.7841 123.812 69.7841C123.697 69.7841 123.603 69.9699 123.602 70.1967C123.601 70.4235 123.442 70.9132 123.248 71.2845C123.055 71.656 122.896 72.0596 122.896 72.1815C122.896 72.4142 122.098 74.325 121.708 75.0264C121.583 75.2516 121.481 75.8046 121.481 76.2554C121.481 76.9971 121.816 77.4106 125.022 80.616L128.563 84.1571L128.501 94.3578L128.44 104.558L125.551 104.676C122.784 104.789 122.638 104.821 122.071 105.432L121.481 106.07V121.626C121.481 130.755 121.569 137.238 121.696 137.316C121.814 137.389 121.983 137.873 122.071 138.391C122.158 138.909 122.315 139.332 122.419 139.332C122.524 139.332 122.669 139.572 122.742 139.864C122.909 140.529 124.508 142.209 125.766 143.041C128.933 145.135 133.281 144.997 136.408 142.703C137.65 141.792 138.317 140.995 139.33 139.215L140 138.036L140.071 122.476C140.11 113.918 140.083 106.597 140.012 106.206C139.803 105.069 139.137 104.808 136.107 104.676L133.394 104.558L133.332 94.3151L133.271 84.0722L136.728 80.5896L140.185 77.107L140.056 75.8622C139.986 75.1773 139.768 74.2989 139.573 73.9099C139.178 73.1231 138.964 72.6224 138.215 70.7271C137.933 70.014 137.567 69.1122 137.403 68.7232C137.238 68.3342 137.025 67.7507 136.93 67.4265C136.835 67.1024 136.681 66.7311 136.588 66.6014C136.496 66.4717 136.168 65.676 135.861 64.8332C135.163 62.9203 134.749 62.4688 133.467 62.221C132.314 61.9982 129.267 61.993 128.204 62.2121ZM13.0797 66.7063C10.9527 66.9102 7.76533 68.1461 6.19015 69.3774C5.41802 69.9812 2.81758 72.7011 2.81758 72.9051C2.81758 73.0222 2.6699 73.266 2.48943 73.4464C2.30896 73.6267 1.82652 74.5778 1.41745 75.5599C0.550245 77.6414 0.233181 80.872 0.64107 83.4668C0.874857 84.9544 2.10631 87.9622 2.7435 88.6025C2.91407 88.7739 3.05349 88.992 3.05349 89.087C3.05349 89.182 3.69045 89.9206 4.46895 90.7281C5.24746 91.5355 5.88442 92.2902 5.88442 92.4048C5.88442 92.5194 5.99907 92.6514 6.13896 92.6981C6.5143 92.823 7.0425 95.2982 7.21094 97.7213C7.29209 98.8883 7.49733 100.161 7.66719 100.55C7.83681 100.939 8.02035 102.425 8.07484 103.851C8.18478 106.727 8.53534 107.726 10.0051 109.352C11.2912 110.774 12.7428 111.367 14.966 111.377C16.4867 111.384 17.0652 111.279 17.9378 110.837C19.0489 110.274 20.7468 108.866 20.7468 108.507C20.7468 108.397 20.8727 108.181 21.0266 108.027C21.5897 107.464 22.1554 105.031 22.1613 103.144C22.1646 102.106 22.3106 100.78 22.4857 100.197C22.6607 99.6133 22.8789 98.0941 22.9705 96.8207C23.183 93.8615 23.6423 92.8034 25.6462 90.6555C30.0848 85.8979 30.9357 79.345 27.8215 73.9054C26.348 71.3314 23.6612 68.8944 21.2049 67.9039C20.4988 67.6192 19.7446 67.294 19.5288 67.1814C19.1593 66.9885 17.8253 66.7954 15.6747 66.6233C15.1557 66.5818 13.9879 66.6191 13.0797 66.7063ZM132.121 67.8391C132.379 68.4552 132.691 69.1431 132.815 69.3682C132.939 69.5934 133.04 69.8911 133.04 70.0295C133.04 70.1682 133.234 70.7267 133.47 71.2706C133.707 71.8145 134.089 72.737 134.32 73.3205C134.551 73.904 134.835 74.5655 134.952 74.7906C135.068 75.0158 135.163 75.3185 135.163 75.463C135.163 75.7686 130.969 80.0495 130.813 79.9023C130.756 79.8481 129.756 78.8726 128.59 77.7341C126.187 75.3862 126.265 75.7905 127.602 72.6132C128.855 69.6346 129.349 68.4174 129.727 67.3676C129.924 66.8247 130.099 66.7193 130.806 66.7193C131.591 66.7193 131.685 66.799 132.121 67.8391ZM18.7415 71.7536C19.1308 71.9653 19.5821 72.1393 19.7442 72.1403C19.9065 72.141 20.039 72.2478 20.039 72.3774C20.039 72.5071 20.1759 72.6132 20.3429 72.6132C20.7892 72.6132 22.937 74.7044 23.6117 75.7959C24.6424 77.4634 25.0788 78.9713 25.0788 80.8647C25.0788 83.6117 24.1531 85.6784 21.8501 88.0742C20.3545 89.6299 20.2603 89.7504 19.742 90.7729C19.0862 92.0662 18.8175 93.0866 18.5328 95.3638C18.2983 97.238 18.2124 97.4856 17.7967 97.4856C17.3421 97.4856 17.3239 97.3026 17.2626 92.0884L17.1992 86.6912L19.6807 84.1483C21.0839 82.7102 22.1622 81.4088 22.1622 81.1533C22.1622 79.7661 20.593 78.4152 19.2782 78.6707C18.8996 78.7443 17.9144 79.5115 16.8811 80.5375C15.9163 81.4954 14.9969 82.2792 14.8382 82.2792C14.5249 82.2792 14.0224 81.7801 12.6449 80.1001C11.232 78.377 9.72622 78.1523 8.59479 79.4961C7.77193 80.4733 7.84554 81.3223 8.87033 82.6737C9.34499 83.2996 9.7977 83.8647 9.87649 83.9295C9.95529 83.9944 10.6307 84.7512 11.3774 85.6112L12.7353 87.1752L12.6716 92.3272C12.6166 96.7752 12.5576 97.4891 12.2398 97.5502C11.9421 97.6072 11.7893 97.0954 11.4408 94.8755C10.8815 91.3111 10.3776 90.2997 7.80685 87.5835C6.99838 86.7294 6.06276 85.4337 5.71621 84.6887C5.16489 83.5031 5.08845 83.041 5.08256 80.8647C5.07642 78.5467 5.12455 78.29 5.83865 76.8288C7.11068 74.2262 9.08242 72.5986 12.4899 71.338C13.2717 71.0487 18.0277 71.3649 18.7415 71.7536ZM60.8516 91.6407C62.9089 92.5561 64.0701 92.7445 67.7196 92.7539C70.237 92.7608 71.5105 92.6747 71.7419 92.4828C71.9282 92.3282 72.5421 92.128 73.1059 92.0379L74.131 91.8741L74.0139 93.5091C73.8901 95.2405 73.3725 96.3424 72.0186 97.7581C71.1462 98.6698 70.4406 99.0852 68.9461 99.5668C67.4219 100.058 66.8147 100.06 65.1343 99.5805C63.1387 99.0109 61.4828 97.6534 60.5661 95.8353C60.0735 94.8583 59.6472 91.073 60.0525 91.2743C60.1676 91.3314 60.5272 91.4962 60.8516 91.6407ZM56.6042 97.8982C57.295 99.3669 57.3179 99.3976 58.9098 100.997C59.5934 101.684 60.7369 102.541 61.4508 102.902C62.1649 103.263 62.7954 103.634 62.8525 103.726C62.9521 103.887 59.877 108.531 59.4134 108.92C59.3361 108.985 58.759 109.78 58.131 110.688C55.7677 114.104 55.7467 114.12 55.2156 112.869C55.0368 112.447 54.753 111.784 54.5848 111.395C54.4166 111.006 53.6822 109.256 52.9528 107.505C52.2234 105.755 51.5317 104.11 51.4156 103.851C51.2998 103.592 50.9832 102.849 50.7121 102.201C50.4408 101.552 50.1167 100.838 49.9914 100.613C49.5812 99.8745 49.7487 99.5803 50.8843 99.0437C51.5008 98.7523 52.2866 98.3624 52.631 98.1766C52.9754 97.991 53.4267 97.8392 53.6336 97.8392C53.8408 97.8392 54.0101 97.7416 54.0101 97.6221C54.0101 97.5028 54.3274 97.3356 54.7153 97.2505C55.1029 97.1654 55.4808 96.9978 55.5549 96.878C55.8125 96.4612 56.0258 96.6682 56.6042 97.8982ZM78.5448 96.8962C78.5448 97.0258 78.7142 97.1319 78.9213 97.1319C79.1282 97.1319 79.5795 97.284 79.924 97.4698C80.2684 97.6556 81.3993 98.1999 82.4374 98.6792C83.4754 99.1585 84.3586 99.5796 84.3999 99.6149C84.4678 99.6732 84.0481 100.698 83.1477 102.672C82.3196 104.488 80.4321 109.145 80.4321 109.372C80.4321 109.512 80.326 109.627 80.1962 109.627C80.0665 109.627 79.9603 109.792 79.9603 109.994C79.9603 110.195 79.7324 110.858 79.454 111.467C79.1754 112.076 78.8204 112.875 78.6649 113.242C78.3582 113.966 78.1641 113.884 77.3653 112.694C77.1707 112.404 76.6665 111.707 76.2447 111.147C75.8229 110.586 75.478 110.014 75.478 109.877C75.478 109.74 75.3806 109.627 75.2614 109.627C75.1421 109.627 74.8026 109.229 74.5068 108.743C74.0444 107.983 72.5298 105.867 71.3531 104.337C71.0306 103.918 71.0551 103.845 71.6473 103.454C72.0026 103.221 72.381 103.028 72.4881 103.028C72.5952 103.027 73.2852 102.561 74.0215 101.992C75.4454 100.893 76.5422 99.6498 77.1438 98.4536C77.8838 96.982 78.0942 96.6604 78.3172 96.6604C78.4424 96.6604 78.5448 96.7665 78.5448 96.8962ZM46.1399 103.144C46.4582 103.922 46.8139 104.77 46.9307 105.03C47.0475 105.289 47.3676 106.032 47.642 106.68C47.9166 107.328 48.2938 108.204 48.4806 108.625C49.0768 109.971 49.4568 110.873 50.3415 113.046C50.8169 114.213 51.3 115.38 51.4156 115.639C51.531 115.898 51.8289 116.588 52.0778 117.171C52.3269 117.755 52.7181 118.668 52.9476 119.202C53.4725 120.422 54.464 121.046 55.5886 120.864C56.4853 120.719 57.0612 120.164 58.4181 118.139C58.8869 117.44 59.7855 116.188 60.4149 115.357C61.0443 114.526 61.5593 113.794 61.5593 113.73C61.5593 113.667 61.6685 113.487 61.8018 113.33C61.9351 113.174 62.6228 112.261 63.3295 111.302C64.1533 110.185 64.6601 109.677 64.7405 109.888C64.8099 110.069 64.8389 116.9 64.8052 125.069L64.7441 139.922L54.0743 139.983L43.4043 140.044L43.2833 139.512C43.2168 139.219 43.1349 136.789 43.1012 134.113L43.0403 129.247L42.4505 128.757C41.7272 128.157 40.3877 128.115 39.7376 128.672C38.7901 129.485 38.676 130.189 38.676 135.218V140.04H32.6407H26.6051L26.7122 129.961C26.8224 119.588 26.8314 119.483 27.8892 116.346C28.3209 115.066 29.6338 112.277 29.9423 111.985C30.0107 111.92 30.3847 111.398 30.7737 110.825C32.6676 108.035 35.3617 106.042 40.2094 103.845C41.2474 103.375 42.7336 102.684 43.5121 102.31C44.2906 101.937 45.0701 101.653 45.2444 101.68C45.4188 101.707 45.8217 102.366 46.1399 103.144ZM90.3177 102.222C91.0438 102.558 92.0625 103.023 92.5815 103.257C97.6389 105.53 99.4312 106.635 101.428 108.712C102.142 109.454 102.854 110.219 103.01 110.412C103.661 111.216 104.939 113.362 105.42 114.46C105.704 115.108 106.037 115.851 106.16 116.11C106.283 116.37 106.5 117.165 106.643 117.879C106.785 118.592 106.993 119.6 107.103 120.118C107.215 120.637 107.31 125.331 107.316 130.551L107.326 140.04H102.49H97.6536V134.871V129.703L96.9277 128.977C95.9454 127.996 94.8203 127.982 93.8608 128.941L93.1713 129.63V134.835V140.04H81.2578H69.3443L69.3533 124.774L69.362 109.509L70.1754 110.452C70.6227 110.971 70.9903 111.519 70.9922 111.67C70.994 111.821 71.0792 111.981 71.1814 112.024C71.2835 112.067 71.9971 113.004 72.7672 114.106C73.5374 115.209 74.2515 116.216 74.3544 116.346C75.118 117.309 76.1857 118.818 76.1857 118.935C76.1857 119.012 76.6153 119.509 77.1402 120.039C78.0091 120.916 78.1778 120.992 79.0209 120.878C80.0332 120.743 80.3781 120.482 80.9624 119.411C81.5218 118.386 83.0271 114.726 83.0271 114.391C83.0271 114.235 83.1217 114.106 83.2376 114.106C83.3532 114.106 83.5207 113.815 83.6098 113.458C83.699 113.102 84.0821 112.139 84.4612 111.32C84.8401 110.5 85.1503 109.721 85.1503 109.588C85.1503 109.455 85.2935 109.065 85.4683 108.72C86.0826 107.512 86.9555 105.521 87.9904 102.967C88.2926 102.221 88.6427 101.611 88.7687 101.611C88.8945 101.611 89.5913 101.886 90.3177 102.222ZM17.3952 103.762C17.457 105.158 17.3985 105.401 16.8434 106.061C16.3032 106.702 16.0722 106.798 15.0639 106.798C13.8082 106.798 13.1403 106.355 12.7164 105.241C12.454 104.551 12.4118 102.475 12.655 102.232C12.7461 102.141 13.8341 102.097 15.0731 102.134L17.3261 102.201L17.3952 103.762ZM135.585 123.006C135.52 136.276 135.498 136.887 135.057 137.564C133.894 139.354 132.852 139.917 130.701 139.92C129.509 139.921 128.92 139.828 128.853 139.627C128.799 139.465 128.625 139.332 128.467 139.332C128.041 139.332 126.826 137.931 126.365 136.908C126.001 136.101 125.963 134.733 125.963 122.586V109.156H130.808H135.653L135.585 123.006ZM74.9255 126.6C74.5985 126.989 74.2652 127.514 74.1847 127.767C74.0234 128.275 74.6275 129.62 75.2194 130.071C75.495 130.282 77.4368 130.361 82.4553 130.366L89.3144 130.374L89.8865 129.765C90.7478 128.849 90.6933 127.273 89.7728 126.483L89.0874 125.894H82.3036H75.52L74.9255 126.6Z" fill="#FFD100"/>
</svg>
