<svg width="122" height="145" viewBox="0 0 122 145" fill="none" xmlns="http://www.w3.org/2000/svg">
<path fill-rule="evenodd" clip-rule="evenodd" d="M54.5371 0.120633C45.6068 1.18083 37.1118 7.31099 33.1245 15.5726C32.1489 17.594 31.1325 20.5985 30.9442 22.0173C30.8074 23.0494 30.7065 23.235 30.2826 23.2361C29.3358 23.2385 28.0274 23.7258 27.281 24.3539C25.9577 25.4674 25.6679 26.4861 25.662 30.0443C25.6592 31.7871 25.7801 33.6116 25.9324 34.1199C26.2922 35.3204 27.7077 36.589 29.0711 36.9322L30.1362 37.2003L30.1402 43.0075C30.1459 50.7594 30.5509 52.6487 32.7411 55.1369C34.3674 56.9846 37.0147 58.1268 39.6705 58.1268C40.5343 58.1268 40.7156 58.2098 40.8316 58.6572C41.0541 59.5171 42.9925 61.8027 44.3491 62.8047C45.0408 63.3158 46.1573 63.9295 46.8304 64.1683C48.2358 64.6674 48.2787 64.8164 47.5672 66.718C47.1164 67.9227 47.0079 68.0364 46.0937 68.2618C42.3786 69.1779 38.0004 71.0262 34.4011 73.1978C33.3107 73.8558 32.3953 74.394 32.367 74.394C32.2658 74.394 31.3273 71.6121 29.9009 67.0856C29.1043 64.5571 28.3049 62.117 28.1245 61.6632C27.9439 61.2093 27.6766 60.3606 27.5299 59.7771C26.4744 55.5726 20.7521 53.0545 14.0255 53.8344C5.19288 54.8583 -1.03111 60.2345 0.142021 65.8271C0.295028 66.5575 0.568034 67.3249 0.748389 67.5328C0.928979 67.7407 1.77935 68.9716 2.63822 70.2683C3.49732 71.5649 4.63037 73.2624 5.1561 74.0404C6.74699 76.394 12.312 84.7563 12.6902 85.3619C12.8847 85.6731 14.0333 87.3866 15.2425 89.1696C16.7707 91.4225 17.4063 92.5579 17.3261 92.8918C17.2629 93.1563 16.7865 94.5463 16.2673 95.9809C15.7482 97.4155 15.0294 100.068 14.6701 101.875C14.1111 104.685 14.0166 105.74 14.0154 109.168C14.0142 112.759 14.0793 113.423 14.6411 115.546C16.5139 122.624 20.5598 128.06 26.6588 131.693L28.0144 132.5V134.518C28.0144 137.608 28.5425 139.22 30.2579 141.366C30.9845 142.275 32.4853 143.344 33.9083 143.966L35.205 144.532L61.9045 144.596L88.604 144.659V129.395V114.131L90.3132 115.791C93.1209 118.519 94.6778 119.449 98.27 120.548C102.028 121.698 106.914 121.319 110.529 119.597C115.867 117.055 119.614 112.36 120.828 106.693C121.228 104.821 121.256 102.897 121.256 77.4589C121.256 51.3799 121.237 50.1749 120.811 48.9509C120.268 47.3885 118.859 45.8073 117.258 44.9623C116.106 44.3543 115.946 44.335 112.062 44.335C108.343 44.335 107.964 44.3756 106.809 44.8975C104.552 45.9174 102.749 48.5614 102.749 50.8511C102.749 51.3721 102.545 51.6258 101.745 52.0942C100.452 52.852 99.3955 53.9647 98.7031 55.2977C98.2024 56.262 98.1522 56.6597 98.1522 59.6592C98.1522 62.8808 98.1687 62.9881 98.841 64.1386C99.2199 64.7869 100.21 66.0247 101.041 66.8889L102.553 68.4605L102.297 70.6611C102.156 71.8714 101.884 74.2408 101.691 75.9265C101.498 77.6121 101.236 79.787 101.11 80.7595C100.983 81.732 100.716 84.0516 100.515 85.9143C100.315 87.7768 100.089 89.4 100.014 89.5209C99.9397 89.6421 99.3715 89.0056 98.7522 88.1066C96.2256 84.4389 93.227 81.12 90.0185 78.4399C88.9164 77.5192 87.855 76.6302 87.66 76.4642C86.8132 75.7428 83.0538 73.3862 81.1402 72.3769C77.9273 70.6825 73.9144 69.1409 70.4172 68.258C69.3396 67.9859 69.3151 67.9581 68.8221 66.4563C68.3364 64.977 68.3381 64.4922 68.8289 64.4922C68.9591 64.4922 69.6156 64.2305 70.2885 63.9106C72.4275 62.8933 74.4065 60.9865 75.4822 58.906C75.8288 58.2357 75.9462 58.19 77.688 58.0459C81.0268 57.7696 83.6446 55.9328 85.343 52.6751L86.1267 51.172L86.2049 44.1811L86.283 37.1901L87.1487 37.0329C88.3621 36.8127 89.5994 35.8982 90.2717 34.7246C90.8074 33.7893 90.8437 33.5015 90.8437 30.1896C90.8437 26.7987 90.8185 26.6117 90.2314 25.6442C89.4145 24.2975 88.2897 23.5075 86.9334 23.3276L85.819 23.1798L85.3131 21.1445C84.3436 17.2441 82.8051 13.9709 80.476 10.8537C79.7537 9.88711 76.3467 6.41771 75.5018 5.78871C70.4585 2.03333 65.351 0.208098 59.3701 0.0232648C57.6196 -0.0309593 55.4448 0.0128915 54.5371 0.120633ZM60.5489 13.8044V23.2347H58.1913H55.8338V13.9617C55.8338 8.86133 55.9045 4.6177 55.991 4.53141C56.0773 4.44489 57.1382 4.37416 58.3486 4.37416H60.5489V13.8044ZM51.2983 14.4723L51.36 23.2347H43.3415C38.9311 23.2347 35.3229 23.1829 35.3229 23.1195C35.3229 23.056 35.548 22.1835 35.8232 21.1803C37.1073 16.5001 40.2926 11.9799 44.5405 8.80993C46.2274 7.55123 50.4212 5.4992 51.0007 5.64914C51.1511 5.68804 51.2589 8.8809 51.2983 14.4723ZM67.0886 6.19044C69.9823 7.34753 72.568 9.04828 74.6854 11.1866C76.3592 12.8775 76.5606 13.1198 77.7125 14.8302C78.8137 16.4654 79.612 18.1122 80.3853 20.3441C81.4995 23.5598 82.3121 23.2347 73.1619 23.2347H65.264V14.3938C65.264 9.53135 65.3159 5.55295 65.3793 5.55295C65.443 5.55295 66.212 5.83987 67.0886 6.19044ZM86.2464 30.1896V32.665H58.1913H30.1362V30.1896V27.7141H58.1913H86.2464V30.1896ZM39.5665 38.2661V39.3879L37.6215 39.9289C36.5519 40.2265 35.491 40.5299 35.2639 40.603C34.8955 40.7216 34.8514 40.5438 34.8514 38.9402V37.1444H37.2089H39.5665V38.2661ZM72.3365 46.0442L72.3363 54.9441L71.658 56.3586C70.5629 58.6417 69.2262 59.7531 66.7965 60.4004C65.0625 60.8625 51.2549 60.8448 49.5023 60.3785C47.5398 59.8561 45.8223 58.4948 44.8291 56.6743C44.4375 55.9569 44.3934 55.0577 44.3305 46.5158L44.2614 37.1444H58.2991H72.3368L72.3365 46.0442ZM81.5313 38.9126C81.5313 39.8851 81.4947 40.6808 81.4504 40.6808C81.4059 40.6808 80.7898 40.4813 80.0816 40.2378C79.3734 39.994 78.3488 39.7196 77.8049 39.6276L76.8161 39.4605V38.3024V37.1444H79.1737H81.5313V38.9126ZM39.5665 48.9632V53.7092L38.7946 53.5838C37.6361 53.3959 36.4005 52.5705 35.6445 51.4794C35.0546 50.6281 34.9692 50.2912 34.9692 48.813C34.9692 47.2112 35.0159 47.0639 35.8394 46.0586C36.7907 44.898 37.9091 44.2308 38.9182 44.2225L39.5665 44.2171V48.9632ZM78.7687 44.5427C79.6933 44.9392 80.9417 46.2204 81.2811 47.1205C81.603 47.9741 81.6025 49.8916 81.2804 50.7441C80.7705 52.094 78.6411 53.6474 77.3006 53.6474C76.8279 53.6474 76.8161 53.5321 76.8161 48.9323V44.2171H77.4131C77.7415 44.2171 78.3514 44.3635 78.7687 44.5427ZM115.97 49.6214L116.659 50.3105V57.755V65.1995H111.264H105.87L104.786 64.1975C102.748 62.3138 102.514 61.835 102.514 59.5479C102.514 56.6453 103.303 55.7692 105.92 55.7692H107.229V53.0399C107.229 50.3376 107.236 50.3037 107.918 49.6214L108.607 48.9323H111.944H115.281L115.97 49.6214ZM20.502 58.8015C21.2326 59.0863 22.132 59.5986 22.5005 59.9402C24.4972 61.7905 21.9446 64.9015 16.9576 66.6959C15.0485 67.3826 14.73 67.4258 11.5114 67.4324C8.17592 67.439 8.05898 67.422 6.689 66.7319C4.92483 65.8431 4.32223 65.0691 4.53064 63.9587C4.8772 62.1106 8.32704 59.7384 12.2071 58.6804C14.8575 57.9575 18.4707 58.0103 20.502 58.8015ZM64.3552 67.384L65.0462 69.4507L61.7939 73.4946C60.005 75.7188 58.4151 77.5808 58.2604 77.6324C58.106 77.6838 57.4701 77.0649 56.8477 76.257C56.2251 75.4493 55.1324 74.0727 54.4192 73.1983C52.4851 70.8263 51.9652 70.1417 51.7358 69.6629C51.5941 69.3672 51.7283 68.5859 52.1574 67.2101L52.7868 65.1908L58.2255 65.2542L63.664 65.3174L64.3552 67.384ZM25.5147 68.3233C25.7172 68.8743 26.2708 70.5453 26.7449 72.0365C27.2192 73.5276 28.0604 76.1269 28.6147 77.8125L29.622 80.8774L29.1602 81.6768C28.1559 83.4153 28.0144 84.7178 28.0144 92.2293C28.0144 96.1492 27.9286 99.4095 27.8239 99.4741C27.7192 99.539 26.1012 97.3047 24.2286 94.5088C22.356 91.7132 20.6713 89.2001 20.4848 88.9238C18.3382 85.7453 9.4193 72.2699 9.45702 72.263C9.48484 72.2581 10.4623 72.2173 11.6293 72.1727C16.3744 71.991 21.0773 70.3635 24.2423 67.8077C24.5665 67.546 24.9024 67.3293 24.9889 67.3265C25.0755 67.3237 25.3119 67.7723 25.5147 68.3233ZM116.607 88.009L116.541 106.103L115.874 107.754C114.486 111.191 111.984 113.929 108.983 115.297C106.876 116.257 105.352 116.595 103.124 116.595C99.1673 116.595 96.3382 115.428 93.5613 112.65C91.9631 111.051 91.5321 110.422 90.1673 107.698L88.604 104.578V100.095V95.6122H86.2464H83.8889V117.773V139.935H76.934H69.9792V137.391V134.847L71.1504 134.163C72.5027 133.373 73.6688 131.875 74.1342 130.329C74.5293 129.016 74.5732 123.517 74.2023 121.788C73.8758 120.265 72.5343 118.54 71.0752 117.766L69.9792 117.185V94.9914V72.7982L72.0421 73.4628C81.0284 76.3584 88.447 81.7405 94.286 89.6004C96.3415 92.3677 99.3199 97.8559 99.1051 98.4814C99.0459 98.6537 98.8316 100.227 98.6289 101.978C98.4261 103.728 98.2099 105.548 98.1482 106.023L98.0357 106.884L99.2727 107.037C99.9531 107.12 100.947 107.247 101.481 107.317L102.453 107.444L102.732 105.534C103.015 103.602 103.884 96.2603 104.521 90.4255C104.712 88.675 105.025 86.1289 105.216 84.7674C105.408 83.4059 105.727 80.6381 105.925 78.6164C106.124 76.5951 106.444 73.8898 106.638 72.6046C106.832 71.3198 106.991 70.1888 106.992 70.0915C106.992 69.9941 109.171 69.9146 111.833 69.9146H116.673L116.607 88.009ZM48.9968 73.6273C49.4506 74.2351 49.9585 74.895 50.1254 75.0935C50.292 75.2923 50.6994 75.7996 51.0302 76.2212L51.6321 76.9874H44.5384C40.6368 76.9874 37.4447 76.9056 37.4447 76.8056C37.4447 76.4307 41.9995 74.2969 44.7532 73.3817C48.0396 72.2897 47.9958 72.2871 48.9968 73.6273ZM65.2079 104.457L65.1462 113.808L64.5089 113.307C63.853 112.791 63.2775 112.559 61.5598 112.12L60.5666 111.866L60.4989 98.0221C60.4494 87.9232 60.3558 84.0504 60.1531 83.7067C59.8327 83.1633 59.8867 83.0796 63.1269 79.1125L65.1462 76.6403L65.2079 85.8731C65.2416 90.951 65.2416 99.3138 65.2079 104.457ZM43.1029 81.6726C43.1029 81.7857 42.8747 82.3945 42.5955 83.0251C42.2419 83.825 42.0538 84.8327 41.9741 86.3557L41.8597 88.5395H44.1317H46.4035V87.1296C46.4035 84.6096 47.459 82.7992 49.4386 81.9236C50.7449 81.3456 51.728 81.3456 53.0344 81.9236C54.3193 82.4921 55.3005 83.4945 55.6027 84.5479C55.9502 85.7597 55.8705 87.3732 55.4151 88.3502C54.9249 89.4014 53.4668 90.5986 52.4495 90.7853C52.0416 90.86 48.029 90.8893 43.5324 90.8501C34.361 90.7704 34.9204 90.8765 33.3326 88.9148C32.6772 88.105 32.6117 87.8694 32.6117 86.3196C32.6117 84.2246 33.1978 83.1899 34.9692 82.158C36.1259 81.4842 36.2136 81.4712 39.6255 81.4689C41.5381 81.4677 43.1029 81.5594 43.1029 81.6726ZM34.0656 94.9639C35.1843 95.4846 35.3679 95.4943 44.1638 95.4943C52.9596 95.4943 53.1433 95.4846 54.262 94.9639C54.8886 94.672 55.4987 94.4334 55.6176 94.4334C55.7449 94.4334 55.8338 98.1124 55.8338 103.381V112.329L54.8002 112.786C54.2318 113.037 52.962 114.008 51.9787 114.942L50.1902 116.641L43.9943 116.545L37.7983 116.45L35.6272 115.71C34.4331 115.304 33.2397 114.855 32.975 114.714C32.5021 114.461 32.4938 114.282 32.4938 104.445C32.4938 98.5311 32.5822 94.4334 32.71 94.4334C32.8288 94.4334 33.4389 94.672 34.0656 94.9639ZM22.592 100.136C23.5645 101.586 24.5724 103.111 24.8317 103.525C25.091 103.94 25.9133 105.188 26.6588 106.299C27.8996 108.147 28.0144 108.428 28.0144 109.614C28.0144 110.326 27.9229 110.965 27.8112 111.034C27.6994 111.103 27.0337 110.542 26.3313 109.788L25.055 108.416L24.3203 108.91C23.9162 109.182 23.1005 109.764 22.5074 110.204L21.429 111.005L22.0415 111.737C23.4089 113.371 23.9596 113.937 25.3074 115.092C28.3327 117.684 32.0367 119.529 36.3838 120.611C38.1588 121.052 39.3631 121.157 43.7512 121.25L48.9968 121.361V126.07V130.779L42.5724 130.676C35.2107 130.558 34.0738 130.355 30.211 128.469C27.8461 127.315 26.957 126.682 24.8576 124.655C22.3138 122.198 20.7545 119.704 19.5234 116.123C18.8281 114.101 18.7426 113.551 18.6438 110.465C18.5837 108.585 18.648 106.039 18.7871 104.807C19.0804 102.207 20.2406 97.4975 20.5869 97.4997C20.7173 97.5004 21.6195 98.6869 22.592 100.136ZM62.2174 117.284C62.8492 117.916 62.9065 118.112 62.9065 119.641V121.31H65.7537C68.5863 121.31 68.6045 121.313 69.2901 121.999L69.9792 122.688V125.912V129.137L69.1776 129.938L68.376 130.74H60.9261H53.4762L53.4826 125.377L53.4889 120.013L54.2641 119.188C54.6903 118.734 55.4837 117.965 56.0266 117.479L57.014 116.595H59.2711C61.4514 116.595 61.5516 116.618 62.2174 117.284ZM34.7335 134.807C35.2522 134.935 40.212 135.089 45.7551 135.149L55.8338 135.259V135.836C55.8338 137.396 54.3744 139.251 52.78 139.718C52.2493 139.873 48.9129 139.936 43.6503 139.89C34.3544 139.808 34.9195 139.913 33.3475 137.971C32.7795 137.269 32.6209 136.815 32.5367 135.654L32.4323 134.21L33.1115 134.392C33.4849 134.492 34.2148 134.679 34.7335 134.807ZM65.264 137.577V139.935H62.3013H59.3383L59.5019 139.404C59.592 139.112 59.799 138.608 59.9616 138.284C60.1245 137.96 60.3332 137.138 60.4256 136.457L60.5932 135.219H62.9286H65.264V137.577Z" fill="#FFD100"/>
</svg>
