<svg width="94" height="96" viewBox="0 0 94 96" fill="none" xmlns="http://www.w3.org/2000/svg">
<path fill-rule="evenodd" clip-rule="evenodd" d="M69.8563 0.0189534C69.6064 0.0602055 69.204 0.305367 68.9618 0.563567C68.2921 1.2781 65.2899 7.7814 65.2889 8.51988C65.2874 9.49176 65.8457 10.1063 67.3498 10.7883C68.0966 11.1269 68.7081 11.4751 68.7087 11.5621C68.7104 11.797 67.3844 15.1119 67.2076 15.3143C67.124 15.4101 66.5585 15.3258 65.951 15.1271C64.5378 14.6647 63.4697 14.8291 62.6665 15.6321C62.2227 16.0759 60.852 19.1477 57.6794 26.8067C52.5473 39.1973 50.7534 43.8432 50.7534 44.7441C50.7534 45.5756 53.0648 51.0664 53.6555 51.6384C54.114 52.0823 62.115 55.4015 62.771 55.4201C63.3763 55.437 69.2052 52.8642 69.6921 52.3651C69.9397 52.1114 70.5454 50.7975 71.0381 49.4456C72.1288 46.4532 74.4844 40.6474 74.7151 40.3842C75.2537 39.7689 77.3672 41.653 78.0013 43.3138C78.6917 45.1212 78.4457 46.129 75.7566 52.5062L73.3394 58.2385L72.1346 58.8466C70.4086 59.718 68.8575 61.012 67.9187 62.3639C67.4709 63.0088 67.024 63.5399 66.9257 63.5444C66.8272 63.5489 60.7881 61.2441 53.5055 58.4227C46.2227 55.6014 40.0347 53.2929 39.7542 53.2929C39.0649 53.2929 38.0056 54.2214 37.8669 54.9471C37.7089 55.7724 38.2106 56.8408 38.9273 57.2066C39.4024 57.4489 48.4537 60.9817 65.3947 67.5363C65.5135 67.5824 65.6176 68.4949 65.6291 69.5935C65.6445 71.0562 65.7717 71.9002 66.1197 72.8503C66.7799 74.6519 66.7791 74.6583 65.7634 75.4417C64.5155 76.4035 63.6807 76.6177 60.681 76.7445C58.485 76.8372 57.8227 76.7827 56.1924 76.3755C53.6147 75.7313 48.8586 74.0832 44.448 72.3057C40.6233 70.7642 39.6333 70.4419 39.6476 70.7432C39.6523 70.8441 40.2535 72.0738 40.9835 73.4757L42.3106 76.0248L44.8939 77.0279C53.852 80.5061 58.0415 81.4299 62.4149 80.8915C65.1153 80.5589 66.3441 80.147 67.9839 79.0242L69.4025 78.053L70.3203 78.7122C71.4029 79.4897 73.7902 80.6514 74.3058 80.6516C74.9365 80.6521 74.9485 81.0505 74.3509 82.1487L73.7695 83.2168H59.9103C50.5161 83.2168 46.0511 83.2879 46.0511 83.4376C46.0511 83.5592 46.2806 84.1121 46.5613 84.6666C46.8419 85.221 47.1939 86.0837 47.3433 86.5832L47.615 87.4916H67.6554C78.6774 87.4916 87.8514 87.5514 88.0416 87.6243C88.6431 87.8552 89.0131 88.8993 89.0131 90.3664V91.7664H68.3139H47.615L47.3433 92.6748C47.1939 93.1743 46.8186 94.0641 46.5091 94.6519C46.1998 95.2397 45.9136 95.7939 45.8732 95.8837C45.8328 95.9735 56.1939 96.0216 68.8979 95.9906L91.9958 95.9344L92.5883 95.341L93.1811 94.7479L93.1808 91.3868C93.1808 88.3406 93.1351 87.927 92.6935 86.969C91.9676 85.3944 91.3281 84.6651 90.054 83.9593L88.9062 83.3236L83.7283 83.2535L78.5504 83.1834L79.1893 81.9176C79.6266 81.0516 79.9545 80.6519 80.2281 80.6519C80.4478 80.6519 81.4191 80.2558 82.3863 79.7717C88.0604 76.9317 90.5116 70.2232 87.9254 64.6123L87.2519 63.1513L89.6069 57.5274C92.3468 50.9845 92.7786 49.6777 93.0992 46.9604C93.5607 43.046 92.5306 38.4738 90.3746 34.868C88.4901 31.7162 84.9392 28.5601 81.6322 27.0974C80.9894 26.8132 80.4634 26.5349 80.4634 26.4791C80.4634 26.4231 80.6558 25.8894 80.8909 25.2928C81.533 23.6641 81.4629 22.48 80.6716 21.5786C80.3159 21.1734 79.5939 20.6651 79.0675 20.449C78.5408 20.2329 78.149 19.96 78.1967 19.8424C78.2442 19.7248 78.5994 18.8273 78.9861 17.848C79.7662 15.8711 79.6463 15.926 81.571 16.6656C82.5211 17.0304 82.6107 17.0313 83.3421 16.6827C84.0353 16.352 84.2862 15.9566 85.8467 12.7353C87.7922 8.7193 87.9677 7.9058 87.0802 7.01856C86.7496 6.6879 83.782 5.33556 79.2836 3.46532C71.5985 0.270528 70.5817 -0.101169 69.8563 0.0189534ZM77.2573 7.1731C80.1375 8.36171 82.5312 9.3633 82.5765 9.39857C82.6752 9.47552 81.7726 11.6444 81.5371 11.8961C81.4184 12.0231 70.664 7.78782 70.2577 7.45416C70.2286 7.43023 70.4623 6.81358 70.7771 6.08408C71.2084 5.08441 71.4322 4.78881 71.6851 4.88456C71.8697 4.95446 74.3771 5.98426 77.2573 7.1731ZM74.313 13.6777C75.1094 13.9902 75.7611 14.3262 75.7611 14.4243C75.7611 14.5224 75.4161 15.4646 74.9946 16.5177L74.2284 18.4324L73.1244 17.9935C72.5174 17.752 71.8046 17.4707 71.5406 17.3681L71.0605 17.182L71.5113 16.0541C71.759 15.4338 72.116 14.5177 72.3045 14.018C72.493 13.5182 72.6963 13.1096 72.7561 13.1096C72.816 13.1096 73.5166 13.3652 74.313 13.6777ZM76.0283 23.7289C76.4692 23.9093 76.8298 24.083 76.8298 24.1153C76.8298 24.2899 68.8635 43.3796 68.7348 43.5132C68.6277 43.6244 57.9357 39.5043 57.2193 39.0757C57.19 39.0582 58.9548 34.7235 61.1414 29.4432C63.3278 24.1628 65.1621 19.731 65.2177 19.5947C65.2835 19.4331 67.0377 20.0504 70.2727 21.3739C72.9974 22.4887 75.5876 23.5485 76.0283 23.7289ZM82.3243 32.3035C85.0298 34.1409 87.2296 37.1174 88.3323 40.4328C88.8 41.8385 88.8795 42.4665 88.8915 44.8502C88.9024 46.9692 88.8126 47.9332 88.5134 48.9113C88.0944 50.28 84.3843 59.2848 84.1374 59.5318C84.0564 59.6129 83.2207 59.2976 82.2802 58.831C81.2744 58.3321 80.1082 57.9292 79.4482 57.8525C78.8012 57.7772 78.326 57.615 78.326 57.4695C78.326 57.3305 79.2004 55.1198 80.2691 52.5566C81.4552 49.7124 82.3016 47.3578 82.4414 46.5137C82.7453 44.6802 82.4104 42.5407 81.5443 40.7812C80.7601 39.1884 78.8358 37.3012 77.3866 36.7036C76.2499 36.2351 76.2219 36.5431 77.7265 32.9708L78.7907 30.4444L79.9316 30.9491C80.5592 31.2265 81.6358 31.8361 82.3243 32.3035ZM9.60813 42.8079C8.28165 43.3508 7.92021 45.183 8.93848 46.2014C9.42752 46.6903 9.7165 46.7764 11.105 46.8465L12.7074 46.9275V52.9805V59.0334L6.35306 73.5296C0.00494026 88.012 -0.00104423 88.0274 2.44809e-05 89.5221C0.0021619 92.0505 1.28525 94.1195 3.62337 95.365L4.69208 95.9344H21.8983H39.1045L40.2217 95.4293C41.5101 94.8469 42.9247 93.4137 43.484 92.1246C44.0987 90.7073 44.1968 89.5901 43.8318 88.1647C43.6362 87.4012 40.6949 81.2672 36.5483 72.9747L29.593 59.0653V52.973V46.8807H30.8861C32.9158 46.8807 33.8678 46.1982 33.8678 44.7433C33.8678 43.849 33.5564 43.3181 32.8034 42.9286C32.269 42.6525 30.583 42.6078 21.1074 42.6193C15.0179 42.6268 9.84325 42.7117 9.60813 42.8079ZM61.6542 45.3802C64.6519 46.5798 67.1255 47.5811 67.1512 47.6059C67.1766 47.6305 67.0839 48.0212 66.9447 48.4744C66.7179 49.2131 66.5367 49.3689 65.1884 49.9825C62.7633 51.0863 62.983 51.0914 59.8786 49.8575C58.3277 49.2411 56.9512 48.6545 56.8196 48.5539C56.6881 48.4534 56.2271 47.5283 55.7953 46.4983C55.0224 44.6557 55.0154 44.6125 55.3503 43.8107C55.5433 43.3486 55.8019 43.0398 55.9473 43.0975C56.0884 43.1535 58.6565 44.1807 61.6542 45.3802ZM25.5319 53.6166V60.3526L26.934 63.1509C27.7054 64.6899 28.297 65.9883 28.2492 66.0362C28.2013 66.0841 25.027 66.098 21.1951 66.067L14.2279 66.0106L15.4982 63.133L16.7685 60.2556V53.568V46.8807H21.1502H25.5319V53.6166ZM80.5966 62.041C82.4531 62.9045 83.536 63.9708 84.4645 65.8496C85.1965 67.3304 85.2574 67.5974 85.2574 69.3236C85.2574 71.0497 85.1965 71.3167 84.4645 72.7975C83.5231 74.7021 82.4555 75.7399 80.4897 76.6602C79.25 77.2408 78.8452 77.3231 77.2308 77.3233C75.5348 77.3235 75.2593 77.2602 73.7834 76.5307C71.8787 75.5894 70.841 74.5218 69.9206 72.556C69.3425 71.321 69.2578 70.9087 69.2578 69.3236C69.2578 67.7385 69.3425 67.3261 69.9206 66.0911C70.2853 65.3125 70.9291 64.2927 71.3516 63.8253C72.2337 62.8489 74.2649 61.6962 75.597 61.416C77.0818 61.1037 79.1335 61.3602 80.5966 62.041ZM35.2047 79.6907C40.298 89.8801 40.3478 90.0216 39.2278 91.1416L38.603 91.7664H22.0051H5.40726L4.78249 91.1416C4.3347 90.6939 4.15772 90.3091 4.15772 89.7835C4.15772 89.2998 5.509 85.968 8.13054 79.9884C10.3156 75.0044 12.1534 70.8065 12.2145 70.6594C12.3008 70.4517 14.3506 70.3923 21.4413 70.3923H30.5571L35.2047 79.6907ZM15.9898 74.8791C14.86 75.335 14.4688 77.1238 15.2748 78.1485C16.1277 79.2326 17.9667 79.0693 18.5953 77.8538C19.5454 76.0167 17.8806 74.1161 15.9898 74.8791ZM22.9713 79.3164C20.3318 80.6425 20.8635 84.7264 23.7461 85.2672C24.7515 85.4559 26.2575 84.8536 26.8455 84.0277C27.4885 83.1251 27.5932 81.6069 27.0789 80.6519C26.6391 79.8354 25.1642 78.9417 24.2575 78.9424C23.9592 78.9424 23.3804 79.1108 22.9713 79.3164Z" fill="#7F7F7F"/>
</svg>
