<svg width="64" height="76" viewBox="0 0 64 76" fill="none" xmlns="http://www.w3.org/2000/svg">
<path fill-rule="evenodd" clip-rule="evenodd" d="M28.4262 0.0629056C23.7715 0.615762 19.3437 3.81242 17.2653 8.12057C16.7569 9.17465 16.2271 10.7414 16.1289 11.4812C16.0576 12.0195 16.0051 12.1162 15.7841 12.1168C15.2906 12.1181 14.6086 12.3722 14.2196 12.6997C13.5298 13.2803 13.3788 13.8115 13.3757 15.6671C13.3743 16.5758 13.4373 17.5272 13.5167 17.7923C13.7042 18.4183 14.442 19.0798 15.1526 19.2588L15.7078 19.3986L15.7099 22.4269C15.7128 26.4692 15.924 27.4544 17.0655 28.7519C17.9132 29.7154 19.293 30.3111 20.6773 30.3111C21.1276 30.3111 21.222 30.3543 21.2825 30.5877C21.3985 31.036 22.4089 32.2279 23.1159 32.7504C23.4765 33.0169 24.0584 33.3369 24.4093 33.4615C25.1418 33.7217 25.1641 33.7994 24.7933 34.7911C24.5583 35.4193 24.5018 35.4785 24.0253 35.5961C22.0889 36.0738 19.8068 37.0377 17.9308 38.17C17.3624 38.5132 16.8853 38.7938 16.8705 38.7938C16.8178 38.7938 16.3286 37.3432 15.5852 34.9827C15.1699 33.6642 14.7532 32.3918 14.6592 32.1551C14.5651 31.9185 14.4258 31.4759 14.3493 31.1716C13.7992 28.9791 10.8166 27.666 7.31048 28.0727C2.70667 28.6066 -0.53744 31.4101 0.0740254 34.3265C0.153776 34.7073 0.296075 35.1075 0.39008 35.2159C0.484208 35.3244 0.927447 35.9662 1.37511 36.6424C1.82289 37.3186 2.41347 38.2037 2.6875 38.6094C3.51671 39.8367 6.41736 44.1974 6.61447 44.5132C6.71585 44.6755 7.31453 45.569 7.9448 46.4988C8.74132 47.6736 9.07262 48.2657 9.03084 48.4398C8.9979 48.5777 8.74956 49.3025 8.47897 50.0506C8.20838 50.7987 7.83371 52.1818 7.64644 53.1241C7.35508 54.5896 7.30581 55.1394 7.30519 56.9273C7.30458 58.7996 7.33849 59.146 7.63132 60.253C8.6075 63.9442 10.7163 66.7789 13.8953 68.6733L14.6019 69.0942V70.1462C14.6019 71.7576 14.8771 72.5981 15.7712 73.7174C16.1499 74.1914 16.9322 74.7487 17.6739 75.0729L18.3498 75.3682L32.2663 75.4015L46.1828 75.4347V67.475V59.5152L47.0737 60.3809C48.5371 61.8032 49.3486 62.2885 51.221 62.8615C53.1798 63.4609 55.7266 63.2634 57.6109 62.3657C60.3929 61.0403 62.3462 58.5916 62.9785 55.6365C63.1873 54.6602 63.202 53.6572 63.202 40.392C63.202 26.7928 63.1922 26.1644 62.9702 25.5261C62.6867 24.7114 61.9523 23.8869 61.1179 23.4463C60.5177 23.1292 60.4343 23.1191 58.4096 23.1191C56.4713 23.1191 56.2738 23.1403 55.6719 23.4125C54.4955 23.9443 53.5557 25.323 53.5557 26.517C53.5557 26.7887 53.4489 26.921 53.0324 27.1653C52.3584 27.5604 51.8076 28.1407 51.4467 28.8358C51.1857 29.3386 51.1595 29.546 51.1595 31.1102C51.1595 32.7901 51.1681 32.8461 51.5186 33.446C51.7161 33.7841 52.2322 34.4295 52.6654 34.8802L53.4532 35.6997L53.3199 36.8472C53.2467 37.4784 53.1045 38.7139 53.0039 39.5929C52.9033 40.472 52.7671 41.6061 52.7012 42.1132C52.6352 42.6203 52.4957 43.8299 52.3912 44.8012C52.2866 45.7725 52.1692 46.6189 52.1302 46.682C52.0912 46.7452 51.7951 46.4132 51.4723 45.9445C50.1553 44.0319 48.5924 42.3012 46.9201 40.9036C46.3456 40.4235 45.7924 39.9599 45.6907 39.8734C45.2493 39.4972 43.2898 38.2683 42.2924 37.742C40.6178 36.8584 38.5262 36.0545 36.7033 35.5941C36.1416 35.4522 36.1289 35.4377 35.8719 34.6546C35.6188 33.8832 35.6196 33.6304 35.8755 33.6304C35.9433 33.6304 36.2855 33.4939 36.6362 33.3271C37.7512 32.7966 38.7826 31.8023 39.3433 30.7174C39.524 30.3678 39.5852 30.344 40.493 30.2689C42.2333 30.1248 43.5978 29.167 44.483 27.4682L44.8915 26.6844L44.9323 23.0388L44.973 19.3933L45.4242 19.3113C46.0567 19.1965 46.7016 18.7196 47.052 18.1076C47.3312 17.6199 47.3501 17.4698 47.3501 15.7428C47.3501 13.9746 47.337 13.8771 47.031 13.3725C46.6052 12.6703 46.019 12.2583 45.312 12.1645L44.7311 12.0874L44.4674 11.0261C43.9621 8.99221 43.1602 7.28532 41.9462 5.65982C41.5697 5.15577 39.794 3.3466 39.3535 3.0186C36.7248 1.06031 34.0627 0.108516 30.9453 0.0121318C30.0329 -0.0161442 28.8993 0.00672247 28.4262 0.0629056ZM31.5597 7.19853V12.1161H30.3309H29.102V7.28053C29.102 4.62087 29.1389 2.40797 29.184 2.36297C29.229 2.31785 29.7819 2.28097 30.4128 2.28097H31.5597V7.19853ZM26.738 7.54681L26.7702 12.1161H22.5907C20.2919 12.1161 18.4112 12.089 18.4112 12.056C18.4112 12.0229 18.5286 11.5679 18.672 11.0448C19.3413 8.60421 21.0016 6.2471 23.2157 4.59407C24.0949 3.9377 26.2809 2.86763 26.5829 2.94582C26.6613 2.96611 26.7175 4.63107 26.738 7.54681ZM34.9683 3.22809C36.4766 3.83148 37.8244 4.71836 38.928 5.83341C39.8005 6.71513 39.9054 6.84151 40.5058 7.73344C41.0798 8.58614 41.4959 9.44487 41.8989 10.6087C42.4797 12.2856 42.9033 12.1161 38.1339 12.1161H34.0174V7.50588C34.0174 4.97026 34.0444 2.89566 34.0774 2.89566C34.1106 2.89566 34.5115 3.04528 34.9683 3.22809ZM44.9539 15.7428V17.0336H30.3309H15.7078V15.7428V14.4519H30.3309H44.9539V15.7428ZM20.6231 19.9544V20.5394L19.6093 20.8215C19.0518 20.9767 18.4988 21.1349 18.3805 21.173C18.1884 21.2348 18.1655 21.1421 18.1655 20.3059V19.3695H19.3943H20.6231V19.9544ZM37.7037 24.0104L37.7036 28.6514L37.3501 29.389C36.7793 30.5795 36.0825 31.1591 34.8161 31.4967C33.9123 31.7376 26.7154 31.7284 25.8019 31.4852C24.779 31.2128 23.8838 30.503 23.3661 29.5536C23.162 29.1795 23.139 28.7106 23.1062 24.2563L23.0702 19.3695H30.387H37.7038L37.7037 24.0104ZM42.4963 20.2915C42.4963 20.7986 42.4772 21.2136 42.4541 21.2136C42.4309 21.2136 42.1098 21.1096 41.7407 20.9826C41.3715 20.8554 40.8375 20.7123 40.554 20.6644L40.0386 20.5772V19.9734V19.3695H41.2674H42.4963V20.2915ZM20.6231 25.5325V28.0074L20.2208 27.942C19.617 27.844 18.9729 27.4136 18.5788 26.8447C18.2714 26.4007 18.2269 26.2251 18.2269 25.4542C18.2269 24.619 18.2512 24.5421 18.6805 24.0179C19.1763 23.4127 19.7593 23.0648 20.2852 23.0605L20.6231 23.0577V25.5325ZM41.0563 23.2274C41.5383 23.4342 42.1889 24.1023 42.3659 24.5716C42.5336 25.0168 42.5334 26.0167 42.3655 26.4612C42.0997 27.1652 40.9898 27.9752 40.2911 27.9752C40.0448 27.9752 40.0386 27.9151 40.0386 25.5164V23.0577H40.3498C40.5209 23.0577 40.8388 23.134 41.0563 23.2274ZM60.4466 25.8758L60.8058 26.2351V30.1172V33.9992H57.994H55.1822L54.6172 33.4767C53.5549 32.4944 53.4328 32.2448 53.4328 31.0521C53.4328 29.5385 53.8445 29.0817 55.2085 29.0817H55.8905V27.6584C55.8905 26.2493 55.8941 26.2316 56.2497 25.8758L56.6089 25.5164H58.3482H60.0874L60.4466 25.8758ZM10.6862 30.6629C11.067 30.8114 11.5358 31.0786 11.7279 31.2567C12.7686 32.2215 11.4381 33.8438 8.83877 34.7795C7.84367 35.1376 7.67765 35.1601 6.00005 35.1636C4.26151 35.167 4.20056 35.1582 3.48648 34.7983C2.56695 34.3348 2.25286 33.9312 2.36149 33.3522C2.54213 32.3885 4.34027 31.1515 6.36268 30.5997C7.74413 30.2228 9.62743 30.2503 10.6862 30.6629ZM33.5436 35.1384L33.9038 36.2161L32.2086 38.3248C31.2762 39.4846 30.4475 40.4556 30.3669 40.4825C30.2864 40.5093 29.955 40.1866 29.6306 39.7653C29.306 39.3441 28.7365 38.6263 28.3647 38.1703C27.3566 36.9334 27.0857 36.5764 26.9661 36.3267C26.8922 36.1725 26.9622 35.7651 27.1858 35.0476L27.5139 33.9947L30.3487 34.0277L33.1833 34.0607L33.5436 35.1384ZM13.2989 35.6282C13.4045 35.9155 13.693 36.7869 13.9401 37.5644C14.1874 38.342 14.6258 39.6974 14.9147 40.5765L15.4398 42.1747L15.1991 42.5915C14.6756 43.4981 14.6019 44.1773 14.6019 48.0943C14.6019 50.1384 14.5571 51.8385 14.5026 51.8722C14.448 51.906 13.6047 50.7409 12.6286 49.283C11.6525 47.8252 10.7744 46.5147 10.6772 46.3706C9.55837 44.7131 4.90959 37.6862 4.92925 37.6826C4.94375 37.68 5.45322 37.6587 6.06149 37.6355C8.53476 37.5407 10.986 36.6921 12.6357 35.3593C12.8047 35.2228 12.9798 35.1098 13.0249 35.1084C13.07 35.1069 13.1932 35.3409 13.2989 35.6282ZM60.7788 45.8936L60.7444 55.3291L60.3969 56.1897C59.673 57.9823 58.3692 59.41 56.805 60.1231C55.7067 60.6239 54.9122 60.7999 53.7507 60.7999C51.6886 60.7999 50.2141 60.1914 48.7666 58.7428C47.9336 57.9091 47.709 57.5812 46.9976 56.1607L46.1828 54.5336V52.1959V49.8583H44.9539H43.7251V61.4146V72.9709H40.1001H36.475V71.6444V70.3178L37.0855 69.9612C37.7903 69.5492 38.3981 68.768 38.6407 67.9617C38.8466 67.2772 38.8695 64.4098 38.6762 63.5081C38.506 62.7141 37.8068 61.8145 37.0463 61.4109L36.475 61.1076V49.5346V37.9617L37.5502 38.3082C42.2342 39.8182 46.1009 42.6247 49.1444 46.7234C50.2158 48.1665 51.7682 51.0284 51.6562 51.3545C51.6254 51.4444 51.5137 52.2649 51.408 53.1777C51.3023 54.0905 51.1896 55.0396 51.1574 55.287L51.0988 55.7364L51.7436 55.8158C52.0982 55.8595 52.6163 55.9253 52.8947 55.9619L53.4011 56.0284L53.5468 55.0324C53.6941 54.0246 54.147 50.1963 54.479 47.1537C54.5786 46.2409 54.7417 44.9131 54.8416 44.2032C54.9414 43.4932 55.1076 42.0499 55.2111 40.9957C55.3144 39.9416 55.4817 38.5309 55.5826 37.8607C55.6836 37.1907 55.7665 36.601 55.7669 36.5502C55.7673 36.4994 56.9028 36.458 58.2904 36.458H60.8131L60.7788 45.8936ZM25.5384 38.394C25.775 38.711 26.0397 39.0551 26.1267 39.1586C26.2136 39.2622 26.4259 39.5268 26.5983 39.7466L26.912 40.1462H23.2146C21.181 40.1462 19.5172 40.1035 19.5172 40.0514C19.5172 39.8559 21.8913 38.7432 23.3265 38.2659C25.0395 37.6965 25.0167 37.6951 25.5384 38.394ZM33.9881 54.4706L33.9559 59.347L33.6238 59.0855C33.2819 58.8164 32.9819 58.6957 32.0866 58.4667L31.5689 58.3341L31.5336 51.115C31.5078 45.8488 31.4591 43.8293 31.3534 43.6501C31.1864 43.3667 31.2145 43.323 32.9034 41.2543L33.9559 39.9652L33.9881 44.7797C34.0057 47.4277 34.0057 51.7886 33.9881 54.4706ZM22.4664 42.5893C22.4664 42.6483 22.3474 42.9658 22.2019 43.2946C22.0176 43.7118 21.9195 44.2372 21.878 45.0314L21.8184 46.1702H23.0026H24.1867V45.435C24.1867 44.1209 24.7369 43.1769 25.7687 42.7203C26.4496 42.4188 26.962 42.4188 27.6429 42.7203C28.3126 43.0167 28.8241 43.5394 28.9816 44.0887C29.1627 44.7206 29.1212 45.562 28.8838 46.0715C28.6283 46.6196 27.8683 47.2439 27.3381 47.3413C27.1255 47.3803 25.034 47.3955 22.6903 47.3751C17.9099 47.3335 18.2015 47.3889 17.3738 46.3659C17.0322 45.9436 16.9981 45.8208 16.9981 45.0126C16.9981 43.9201 17.3036 43.3806 18.2269 42.8425C18.8298 42.4911 18.8755 42.4843 20.6538 42.4831C21.6508 42.4825 22.4664 42.5303 22.4664 42.5893ZM17.7559 49.5203C18.339 49.7918 18.4347 49.7969 23.0193 49.7969C27.604 49.7969 27.6997 49.7918 28.2828 49.5203C28.6094 49.3681 28.9274 49.2436 28.9894 49.2436C29.0557 49.2436 29.102 51.1621 29.102 53.9096V58.5755L28.5633 58.8138C28.267 58.945 27.6052 59.4509 27.0927 59.9381L26.1605 60.8239L22.931 60.7741L19.7015 60.7243L18.5699 60.3389C17.9475 60.1268 17.3254 59.893 17.1874 59.8191C16.9409 59.6872 16.9366 59.594 16.9366 54.4643C16.9366 51.3805 16.9827 49.2436 17.0493 49.2436C17.1112 49.2436 17.4293 49.3681 17.7559 49.5203ZM11.7755 52.2175C12.2824 52.9732 12.8078 53.7685 12.9429 53.9848C13.0781 54.2009 13.5067 54.8518 13.8953 55.431C14.542 56.3949 14.6019 56.5414 14.6019 57.1596C14.6019 57.531 14.5542 57.8644 14.4959 57.9004C14.4377 57.9364 14.0907 57.6439 13.7246 57.2505L13.0593 56.5353L12.6764 56.7927C12.4658 56.9343 12.0406 57.2381 11.7314 57.4676L11.1694 57.8851L11.4886 58.2668C12.2013 59.1191 12.4884 59.414 13.1909 60.0162C14.7677 61.3678 16.6984 62.3303 18.9642 62.8942C19.8894 63.1244 20.5171 63.1789 22.8043 63.2273L25.5384 63.2854V65.7411V68.1968L22.1899 68.1429C18.3527 68.0812 17.7602 67.9754 15.7468 66.9922C14.5141 66.3904 14.0507 66.0601 12.9565 65.003C11.6305 63.7219 10.8178 62.4214 10.1761 60.554C9.81372 59.4996 9.76912 59.213 9.71763 57.6035C9.6863 56.6231 9.71984 55.2953 9.79234 54.653C9.94521 53.2976 10.5499 50.8415 10.7304 50.8426C10.7984 50.843 11.2687 51.4617 11.7755 52.2175ZM32.4293 61.1593C32.7587 61.4887 32.7885 61.591 32.7885 62.3886V63.2587H34.2726C35.749 63.2587 35.7585 63.2605 36.1158 63.618L36.475 63.9774V65.6588V67.3403L36.0572 67.7583L35.6394 68.1763H31.7563H27.8732L27.8765 65.3794L27.8798 62.5825L28.2839 62.1522C28.5061 61.9156 28.9196 61.5146 29.2026 61.2609L29.7172 60.7999H30.8937C32.0301 60.7999 32.0823 60.8121 32.4293 61.1593ZM18.104 70.297C18.3744 70.3637 20.9596 70.444 23.8488 70.4755L29.102 70.5326V70.8336C29.102 71.6471 28.3414 72.6142 27.5103 72.8578C27.2337 72.9389 25.4947 72.9716 22.7517 72.9475C17.9064 72.9049 18.201 72.9597 17.3816 71.9468C17.0856 71.5809 17.0029 71.3443 16.959 70.7388L16.9046 69.9857L17.2586 70.0806C17.4532 70.1328 17.8337 70.2302 18.104 70.297ZM34.0174 71.7415V72.9709H32.4731H30.9287L31.014 72.6943C31.0609 72.5422 31.1688 72.2793 31.2536 72.1103C31.3385 71.9413 31.4473 71.5126 31.4954 71.1575L31.5828 70.5121H32.8001H34.0174V71.7415Z" fill="#FFD100"/>
</svg>
