<svg width="150" height="148" viewBox="0 0 150 148" fill="none" xmlns="http://www.w3.org/2000/svg">
<path fill-rule="evenodd" clip-rule="evenodd" d="M73.3803 0.255293C72.5884 0.613408 71.8665 1.85962 71.8665 2.86842C71.8665 4.39283 73.1599 5.59118 74.8053 5.59118C75.4333 5.59118 75.8681 5.38725 76.5263 4.78419C77.3208 4.05593 77.4068 3.86049 77.4068 2.78473C77.4068 1.76626 77.3005 1.48594 76.6776 0.863074C75.8178 0.00326815 74.4818 -0.243098 73.3803 0.255293ZM37.4066 8.61359C36.2319 9.09241 35.5984 10.8799 36.1734 12.092C36.527 12.8372 56.0845 32.6622 57.3192 33.527C57.5978 33.7222 58.2563 33.882 58.782 33.882C60.8638 33.882 62.213 31.9198 61.4081 30.0635C61.2106 29.6075 56.7321 24.9591 50.6076 18.8525L40.145 8.42027L38.9723 8.43677C38.3273 8.44597 37.6228 8.52542 37.4066 8.61359ZM109.072 8.66664C108.293 9.12117 88.0756 29.525 87.8709 30.0637C86.9343 32.5271 89.5196 34.784 91.8587 33.5447C92.2088 33.3594 97.1265 28.5586 102.787 22.8767C113.791 11.831 113.702 11.9397 113.125 10.1929C112.735 9.01013 111.875 8.41885 110.558 8.42734C109.959 8.43135 109.291 8.53909 109.072 8.66664ZM73.2252 12.0766C71.8873 12.8301 71.8665 12.9949 71.8675 22.8486C71.8682 31.4573 71.8904 31.9142 72.339 32.6502C73.4346 34.4469 76.2549 34.247 77.1753 32.3074C77.4896 31.6449 77.5313 30.2665 77.4738 22.4584L77.4068 13.3799L76.6694 12.6424C75.7787 11.7522 74.2477 11.5007 73.2252 12.0766ZM29.1945 29.272C28.8703 29.4491 28.2703 30.0017 27.8613 30.5001C25.876 32.9194 23.2089 36.1958 22.7088 36.829C22.4019 37.218 21.2898 38.5972 20.2376 39.8938C17.9765 42.6805 17.4613 43.3192 16.7725 44.1912C16.4884 44.5508 15.3945 45.9057 14.3416 47.2023C13.2884 48.499 12.1783 49.8782 11.8744 50.2672C11.5705 50.6562 10.4895 51.9868 9.47224 53.2243C8.45495 54.4615 7.30445 55.885 6.91546 56.3874C6.07922 57.4677 2.76354 61.5649 2.04283 62.4087C-0.811957 65.7514 -0.727791 66.786 2.63104 69.6407C3.82044 70.6519 6.01368 72.5438 7.50485 73.8455C8.99601 75.1471 11.277 77.1062 12.5736 78.1987C13.8703 79.2915 15.1174 80.3932 15.3452 80.6471C15.8089 81.1645 15.9513 81.3527 20.3553 87.281C22.0893 89.615 23.8591 91.9886 24.2882 92.5559C24.7175 93.1229 25.387 94.0421 25.776 94.5982C26.165 95.1544 26.947 96.2021 27.5136 96.9261L28.5438 98.2428L27.9631 99.0095C25.4502 102.328 25.0237 106.441 26.8233 110.004C28.1348 112.6 31.2892 115.03 33.7948 115.373L34.8527 115.518V116.96C34.8527 119.932 36.2759 123.12 38.4489 125.015C39.8062 126.199 42.1626 127.244 43.905 127.437L45.3439 127.596L45.4997 129.171C45.6148 130.335 45.8892 131.192 46.5491 132.448C48.3969 135.964 51.2213 137.745 55.4553 138.064L57.3316 138.205L57.6266 139.501C58.2619 142.295 60.4665 144.963 63.2826 146.345C64.8301 147.104 65.0421 147.145 67.5168 147.154C70.0578 147.163 70.1656 147.142 71.9014 146.284C73.0057 145.738 74.1788 144.911 74.9929 144.103C75.7146 143.387 76.3759 142.802 76.4626 142.802C76.5491 142.802 77.0888 143.186 77.6615 143.655C78.2343 144.124 79.366 144.833 80.1767 145.229C81.5378 145.895 81.8487 145.951 84.2438 145.967C86.7527 145.984 86.8951 145.957 88.6183 145.134C91.7923 143.618 94.1885 140.43 94.4469 137.379C94.5808 135.801 94.8022 135.493 95.8037 135.493C96.7837 135.493 99.0956 134.773 100.1 134.154C101.238 133.453 102.931 131.8 103.607 130.728C104.305 129.623 104.786 128.133 105.001 126.413L105.155 125.182L106.58 125.033C108.556 124.827 111.145 123.541 112.636 122.026C113.925 120.718 115.203 118.357 115.389 116.942C115.716 114.455 115.692 114.511 116.424 114.511C121.53 114.511 126.132 109.705 126.132 104.373C126.132 102.68 125.399 99.8999 124.758 99.1618C124.471 98.8312 124.627 98.3675 125.993 95.5075C126.854 93.7059 128.063 91.171 128.68 89.8744C129.298 88.5777 130.493 86.0846 131.336 84.3341C132.179 82.5836 133.155 80.5414 133.505 79.7957C133.855 79.05 134.213 78.4378 134.3 78.435C134.438 78.4305 135.528 77.4976 137.289 75.877C137.548 75.6384 139.617 73.8723 141.886 71.9526C147.801 66.9486 148.671 66.1284 149.067 65.1809C149.509 64.1221 149.248 63.2317 148.038 61.6667C147.572 61.0641 146.979 60.2769 146.719 59.9172C146.46 59.5572 145.452 58.2468 144.479 57.0046C143.505 55.7627 142.551 54.5179 142.357 54.2383C142.163 53.9586 141.103 52.5804 140 51.1753C138.898 49.7702 137.714 48.2484 137.368 47.7936C137.023 47.3388 136.085 46.1178 135.284 45.0805C134.483 44.0432 133.103 42.2396 132.217 41.0726C131.332 39.9056 129.777 37.8892 128.761 36.5918C127.746 35.2945 126.12 33.1833 125.148 31.9003C122.521 28.4351 121.705 28.2413 118.427 30.3051C112.855 33.8137 110.629 35.2301 108.173 36.8299C106.682 37.8013 105.144 38.7818 104.755 39.0091C104.117 39.3815 102.951 39.4355 92.9668 39.5558L81.8862 39.689L79.4108 40.4436C78.0493 40.8586 76.1927 41.4076 75.285 41.6639C74.3774 41.9202 72.6799 42.4063 71.5129 42.7439C70.3459 43.0818 68.5037 43.5988 67.4192 43.893L65.4473 44.4279L63.2935 43.8543C60.6202 43.1423 57.8086 42.3726 54.892 41.5543C53.6602 41.2087 51.7506 40.7077 50.6484 40.4408C49.5462 40.1742 48.4771 39.8094 48.2722 39.6303C48.0676 39.4511 47.8198 39.3045 47.7215 39.3045C47.6232 39.3045 47.101 38.9999 46.5611 38.6278C46.0214 38.2556 44.7601 37.4333 43.7584 36.8007C41.0788 35.1077 37.7296 32.9748 36.3792 32.1007C31.4531 28.9123 30.5232 28.5462 29.1945 29.272ZM33.6171 37.1037C37.1178 39.3726 38.9716 40.5547 40.951 41.7799C41.9985 42.4282 42.8583 43.0407 42.8618 43.1409C42.8698 43.3635 36.5515 51.2241 32.7752 55.6896C32.5559 55.9489 31.9524 56.6915 31.4337 57.3399C30.9153 57.9882 28.9491 60.3752 27.064 62.6444C25.1791 64.9136 22.7442 67.8841 21.6531 69.2456C20.562 70.6071 19.1095 72.3873 18.4256 73.2014L17.182 74.6819L15.8085 73.4371C15.0533 72.7527 12.7141 70.7313 10.6107 68.9455L6.78626 65.6982L8.14469 63.9946C8.89181 63.0575 10.2007 61.442 11.0535 60.4047C11.9062 59.3674 14.7791 55.8134 17.438 52.5069C20.0971 49.2004 23.261 45.275 24.4695 43.7838C25.6777 42.2927 27.6265 39.8792 28.7998 38.4204C29.9734 36.9617 31.0737 35.7681 31.2449 35.7681C31.4163 35.7681 32.4838 36.369 33.6171 37.1037ZM121.426 36.4178C121.649 36.7736 122.424 37.8074 123.148 38.7151C124.319 40.1819 128.494 45.5909 129.745 47.261C130.004 47.6073 131.173 49.115 132.342 50.6114C133.512 52.1077 135.262 54.375 136.232 55.65C137.203 56.9249 138.978 59.2535 140.177 60.8248C141.376 62.3962 142.358 63.7525 142.358 63.8388C142.358 63.925 141.07 65.0975 139.497 66.4439C137.923 67.7903 136.473 69.0511 136.274 69.2456C135.253 70.2438 132.336 72.5462 132.092 72.5462C131.938 72.5462 131.429 72.0424 130.961 71.4264C130.493 70.8103 130.026 70.2004 129.924 70.0708C129.822 69.9411 128.155 67.8193 126.219 65.3556C124.284 62.892 122.396 60.5049 122.025 60.0511C121.653 59.5973 121.17 58.9918 120.95 58.7059C119.705 57.086 117.768 54.6084 115.535 51.7788C114.144 50.017 112.741 48.2248 112.417 47.7962C112.093 47.3678 111.164 46.1742 110.354 45.1442C109.544 44.1139 108.88 43.2411 108.88 43.2044C108.88 43.1461 110.983 41.778 113.596 40.1364C114.635 39.4834 118.125 37.2352 119.372 36.4162C120.579 35.6226 120.929 35.6229 121.426 36.4178ZM103.5 45.7614C103.671 45.9415 104.236 46.6424 104.755 47.319C105.273 47.9959 107.054 50.2622 108.712 52.3553C110.37 54.4486 111.931 56.4263 112.181 56.7505C113.686 58.7002 119.197 65.7109 119.706 66.3236C120.041 66.7263 120.509 67.328 120.747 67.6609C120.984 67.9937 122.349 69.7332 123.779 71.5261C125.209 73.319 126.833 75.3718 127.386 76.088L128.393 77.3898L127.948 78.2098C127.702 78.6606 126.878 80.3557 126.115 81.9765C122.004 90.7118 120.391 94.0001 120.217 94.0001C120.14 94.0001 112.705 86.6162 103.693 77.5917C94.5492 68.4344 86.9814 61.0406 86.5681 60.8604C86.0891 60.6518 83.1732 60.3694 78.3166 60.0612C74.1855 59.7991 70.4664 59.5268 70.0519 59.4558C69.1982 59.3101 67.9315 59.7677 67.352 60.4311C67.138 60.6758 66.6606 61.4206 66.2911 62.0857C65.4049 63.6803 61.9131 69.8598 61.6073 70.3746C61.4753 70.5965 60.6987 71.9684 59.8811 73.4235C59.0638 74.8786 58.0809 76.3332 57.6971 76.6562C55.8306 78.2268 52.8648 77.9731 51.296 76.1087C49.7749 74.3009 49.8591 72.4085 51.5912 69.4814C52.0132 68.7682 52.534 67.8664 52.7488 67.4774C52.9633 67.0884 53.825 65.5685 54.6638 64.1C55.5024 62.6314 56.4605 60.934 56.7927 60.3279C57.1249 59.7217 57.6789 58.7485 58.0238 58.165C58.369 57.5815 59.3172 55.8966 60.131 54.4207C61.7827 51.4264 61.7469 51.4542 65.1475 50.5043C67.3256 49.8958 70.642 48.9401 73.5168 48.0925C74.619 47.7677 76.5817 47.2018 77.8783 46.8352C79.175 46.4689 80.7133 46.0106 81.2968 45.8172C82.8212 45.312 103.024 45.2613 103.5 45.7614ZM49.9819 46.1725C50.1988 46.2836 50.9415 46.4908 51.6322 46.6332C52.762 46.8661 56.7854 48.0159 56.9707 48.1588C57.0535 48.2224 56.1769 49.9072 55.1823 51.5957C54.8281 52.1968 53.4244 54.6652 52.0629 57.0813C50.7015 59.4971 49.4812 61.6575 49.351 61.8822C44.7934 69.7591 44.4485 70.6048 44.5715 73.6071C44.6479 75.4731 44.7634 75.9463 45.5294 77.5332C47.9377 82.5216 53.5888 84.7261 58.6217 82.6406C60.0223 82.0604 60.7551 81.5665 61.8575 80.4599C63.1329 79.1797 63.7513 78.2812 65.3797 75.343C65.7802 74.6199 67.7137 71.1906 70.2162 66.7645C70.5404 66.1914 70.9164 65.6138 71.0518 65.4813C71.2821 65.2561 72.9263 65.3445 82.275 66.085L84.3138 66.2465L102.12 84.0724C118.418 100.388 119.949 101.988 120.204 102.957C120.541 104.243 120.345 105.938 119.768 106.717C118.785 108.043 117.661 108.701 116.194 108.807C115.001 108.893 114.637 108.817 113.748 108.296C113.153 107.948 108.526 103.435 102.998 97.8125C95.6257 90.3138 93.0953 87.8806 92.472 87.6891C91.7081 87.4545 91.0949 87.5286 89.9508 87.9928C89.4698 88.188 88.6053 89.7485 88.6053 90.4216C88.6053 91.4278 88.664 91.4912 101.8 104.727C105.789 108.747 109.217 112.358 109.418 112.751C110.638 115.142 109.586 117.907 107.034 119.017C104.409 120.159 103.873 119.814 96.0317 111.92C92.401 108.266 89.1775 105.072 88.8682 104.824C88.5164 104.542 87.9379 104.373 87.323 104.373C86.5346 104.373 86.1673 104.531 85.4686 105.171C84.7106 105.866 84.5996 106.103 84.6139 106.999C84.6231 107.565 84.7026 108.206 84.7908 108.425C84.8789 108.643 88.084 111.99 91.9135 115.863C99.171 123.203 99.4501 123.56 99.4501 125.51C99.4501 126.513 98.522 128.17 97.5075 128.977C96.845 129.504 96.3091 129.704 95.3531 129.784C93.1415 129.967 92.7148 129.691 88.3415 125.25C84.0439 120.886 83.4373 120.478 81.8801 120.908C80.5648 121.271 79.882 122.187 79.883 123.585L79.8837 124.766L83.9135 128.892C86.2183 131.252 88.1333 133.422 88.387 133.961C89.476 136.276 88.4936 138.903 86.1299 139.997C84.3944 140.801 82.4141 140.373 80.7956 138.846L80.173 138.258L80.6744 137.17C81.096 136.256 81.1742 135.652 81.166 133.372C81.1568 130.787 81.1195 130.585 80.3696 129.048C79.0642 126.374 76.4391 124.164 73.8806 123.585L72.7117 123.321L72.6867 120.848C72.6641 118.599 72.595 118.234 71.9236 116.799C70.9676 114.755 70.158 113.714 68.6746 112.618C67.5046 111.754 64.1889 110.503 63.0671 110.503C62.6022 110.503 62.4999 110.291 62.151 108.604C61.6627 106.243 61.0472 104.951 59.6918 103.443C57.5396 101.049 54.7117 99.9445 51.3526 100.185L49.7066 100.303L49.4675 99.332C48.7524 96.4291 46.8138 94.01 44.0378 92.5575C42.5438 91.7757 42.4584 91.7604 39.5678 91.7604C36.6822 91.7604 36.589 91.7769 35.0884 92.5545C34.2456 92.9913 33.3886 93.4954 33.1838 93.6743C32.9791 93.8535 32.7139 93.9949 32.5944 93.9883C32.4751 93.982 31.5285 92.8079 30.4912 91.3794C28.628 88.8137 26.2617 85.6034 25.5587 84.6877C25.3597 84.4284 24.5645 83.3675 23.7914 82.3301C23.0186 81.2928 22.1168 80.085 21.7877 79.6465L21.1889 78.8487L21.9502 77.8802C22.3686 77.3474 24.5965 74.6296 26.9011 71.8408C29.2054 69.0521 31.8711 65.8153 32.8249 64.6483C33.7786 63.4813 35.8716 60.9349 37.4759 58.9895C39.0803 57.0442 40.6738 55.0816 41.0168 54.628C41.36 54.1746 41.9435 53.4612 42.3134 53.0427C42.6836 52.6243 44.2063 50.7995 45.6975 48.9875C48.5688 45.4985 48.6103 45.4712 49.9819 46.1725ZM41.8396 97.8965C43.7742 99.0302 44.5741 101.477 43.6966 103.577C43.3015 104.523 39.6642 108.362 38.3607 109.209C37.8916 109.513 37.1393 109.832 36.6892 109.917C34.2338 110.377 31.3385 107.923 31.3215 105.368C31.3187 104.942 31.5735 104.093 31.8878 103.482C32.5071 102.277 36.1095 98.5905 37.446 97.7941C38.6453 97.0796 40.52 97.1232 41.8396 97.8965ZM54.2706 106.371C55.7358 107.23 56.3837 108.234 56.499 109.826C56.552 110.56 56.4763 111.521 56.3306 111.962C56.1507 112.508 54.6907 114.13 51.7659 117.033C47.377 121.39 46.781 121.814 45.0338 121.818C44.0557 121.82 42.2873 120.887 41.572 119.99C40.9904 119.261 40.8588 118.855 40.7855 117.556C40.724 116.465 40.8067 115.786 41.0618 115.293C41.5852 114.281 49.2119 106.68 50.1847 106.201C51.4021 105.602 53.0765 105.671 54.2706 106.371ZM64.2481 116.648C65.2239 117.016 66.2022 118.027 66.707 119.187C67.7863 121.667 67.1903 122.778 62.0423 127.88C57.3439 132.537 56.7814 132.852 54.3689 132.182C51.7626 131.459 50.3407 128.25 51.5749 125.877C52.125 124.819 59.9542 116.983 60.786 116.658C61.5831 116.346 63.4342 116.34 64.2481 116.648ZM73.6293 129.613C75.4097 130.8 76.1517 133.582 75.1844 135.444C74.5544 136.657 70.2884 140.818 69.2218 141.26C67.2014 142.097 64.8242 141.267 63.6879 139.328C62.8993 137.982 62.801 135.933 63.4755 134.904C64.2051 133.79 68.5454 129.586 69.3319 129.231C70.4732 128.715 72.5618 128.901 73.6293 129.613Z" fill="#FFD100"/>
</svg>
