<svg width="145" height="145" viewBox="0 0 145 145" fill="none" xmlns="http://www.w3.org/2000/svg">
<path fill-rule="evenodd" clip-rule="evenodd" d="M99.3716 0.237433C98.6106 0.650715 77.8041 21.473 77.4099 22.2159C76.6156 23.7132 76.5678 23.6552 88.1114 35.2035C94.0367 41.1309 99.1913 46.1394 99.5661 46.3331C99.978 46.546 100.494 46.6248 100.871 46.5321C101.669 46.3355 122.683 25.4274 123.323 24.193C123.735 23.3985 123.747 23.2344 123.448 22.5427C123.098 21.7357 101.953 0.461166 101.207 0.166706C100.587 -0.078246 99.9052 -0.052077 99.3716 0.237433ZM102.254 7.32877C103.197 8.26567 103.968 9.1408 103.967 9.27377C103.966 9.40673 102.695 10.776 101.142 12.3167C98.0985 15.3381 97.6499 16.1402 98.38 17.2546C99.0357 18.2549 105.77 24.9016 106.523 25.2906C107.649 25.873 108.423 25.4137 111.395 22.4028C112.822 20.9579 114.145 19.7746 114.336 19.7732C114.776 19.7701 117.879 22.8291 117.879 23.2655C117.879 23.444 113.948 27.5254 109.144 32.3351L100.408 41.0802L91.5796 32.254C86.7237 27.3993 82.7508 23.344 82.7508 23.2417C82.7508 22.9793 100.029 5.6582 100.309 5.64028C100.436 5.63203 101.311 6.39187 102.254 7.32877ZM109.391 14.4663L111.148 16.2345L109.391 18.0027C108.425 18.9752 107.524 19.7709 107.387 19.7709C107.251 19.7709 106.349 18.9752 105.383 18.0027L103.627 16.2345L105.383 14.4663C106.349 13.4938 107.251 12.6981 107.387 12.6981C107.524 12.6981 108.425 13.4938 109.391 14.4663ZM50.5218 34.9183C42.6251 42.6608 30.7529 54.727 30.5843 55.1818C30.1425 56.3729 30.5659 57.0738 33.5159 60.0372L36.3804 62.9144L30.9799 62.9149C26.3096 62.9151 25.4686 62.9708 24.7578 63.3275C23.2673 64.0748 23.1143 65.1598 23.9515 69.0441C24.133 69.8869 24.4916 71.9557 24.7481 73.6414C25.4861 78.4895 26.3819 83.9244 26.5118 84.3407C26.5774 84.5503 26.8402 86.1011 27.0958 87.7868C27.6557 91.4778 28.3727 95.8238 29.0017 99.3389C29.2568 100.765 29.5816 102.779 29.7236 103.815C29.8655 104.85 30.0289 105.773 30.0864 105.867C30.1441 105.96 30.4516 107.712 30.7694 109.76C32.7493 122.511 32.7528 122.527 33.9427 123.341C34.4788 123.708 36.1321 123.74 54.6304 123.74H74.735V124.92V126.1L52.2867 126.04L29.8384 125.979L29.5708 124.329C29.2374 122.274 28.6544 118.793 28.0506 115.253C27.5581 112.366 26.8864 108.359 26.1532 103.936C25.743 101.461 25.3922 99.3403 23.6971 89.0835C22.9406 84.5069 22.475 81.7264 21.9207 78.4744C21.0338 73.2724 19.8361 66.0677 19.0209 61.0284C18.4407 57.4427 18.1804 56.7444 17.2709 56.33C16.9102 56.1656 13.7986 56.0775 8.3583 56.0775H0V58.3172V60.5568H7.18611H14.3722L14.4882 61.0873C14.5521 61.3792 14.774 62.8378 14.9814 64.329C15.1889 65.8201 15.4588 67.4645 15.5814 67.9832C15.704 68.5019 16.0081 70.2524 16.2576 71.8732C16.8555 75.758 17.3748 78.8709 17.8112 81.1856C18.0067 82.2229 18.3695 84.3978 18.6175 86.0186C19.255 90.1868 19.9842 94.561 20.3864 96.6277C20.5757 97.6002 20.901 99.6159 21.1095 101.107C21.3179 102.598 21.5885 104.243 21.7111 104.761C21.8337 105.28 22.1378 107.03 22.3873 108.651C22.9691 112.431 23.4748 115.45 24.0463 118.553C24.2969 119.915 24.6189 121.877 24.7616 122.915C24.9044 123.952 25.2265 125.862 25.4776 127.158C26.1535 130.65 26.0226 130.577 31.5653 130.577C34.0002 130.577 36.0517 130.636 36.1244 130.709C36.197 130.781 36.1046 131.145 35.919 131.517C35.7337 131.889 35.4329 132.905 35.2509 133.775C34.5596 137.078 35.9218 140.59 38.716 142.707C41.2893 144.657 44.6562 145.151 47.6133 144.012C48.768 143.567 49.5121 143.055 50.692 141.893C52.4817 140.131 53.0022 139.157 53.3471 136.929C53.6213 135.159 53.3433 132.755 52.7202 131.506C52.4527 130.97 52.4338 130.761 52.6448 130.68C52.8004 130.621 57.8076 130.599 63.7723 130.633L74.6171 130.695L74.735 137.021L74.8529 143.347L75.6255 144.037L76.398 144.727L109.889 144.666L143.379 144.604L144.067 143.834L144.755 143.064V128.557C144.755 112.529 144.805 113.072 143.256 112.337C142.56 112.007 141.427 111.952 135.348 111.952H128.252V98.8785C128.252 89.7995 128.172 85.6296 127.99 85.2305C127.527 84.2132 126.957 84.1326 120.239 84.1326C116.286 84.1326 113.844 84.0442 113.754 83.898C113.615 83.6731 114.182 79.7553 114.931 75.7632C115.126 74.7258 115.5 72.551 115.764 70.9302C116.027 69.3093 116.353 67.324 116.488 66.5184C116.789 64.7236 116.49 63.9296 115.285 63.3275C114.518 62.9439 112.943 62.9151 92.6775 62.9149L70.8952 62.9144L73.6585 60.1537C75.1782 58.6352 76.5197 57.21 76.6392 56.9865C77.1138 56.0999 76.8806 55.1498 75.9374 54.1266C74.3894 52.447 55.0729 33.2064 54.6957 32.9681C54.5012 32.8452 53.983 32.7432 53.544 32.741C52.8532 32.738 52.4477 33.0301 50.5218 34.9183ZM62.5334 47.0586C67.2992 51.8232 71.1987 55.8268 71.1987 55.9553C71.1987 56.0841 69.6882 57.7025 67.8422 59.5518L64.4857 62.9144H53.6406H42.7958L39.4334 59.5579C37.5839 57.712 36.0708 56.0914 36.0708 55.9567C36.0708 55.8221 36.8651 54.923 37.836 53.9587L39.6011 52.2054L42.494 55.0658C45.3858 57.9244 46.1167 58.3919 47.2504 58.1071C48.0068 57.9173 55.5887 50.3464 55.7782 49.592C56.0673 48.4401 55.6094 47.7206 52.741 44.8189L49.8806 41.9259L51.6339 40.1608C52.5981 39.1899 53.4954 38.3957 53.6277 38.3957C53.7599 38.3957 57.7676 42.2939 62.5334 47.0586ZM48.5787 47.0597C49.4774 47.9351 50.2137 48.7546 50.2146 48.8812C50.2167 49.1674 46.8869 52.5411 46.6026 52.5411C46.269 52.5411 43.1436 49.32 43.1436 48.9762C43.1436 48.5651 46.2209 45.4684 46.6292 45.4684C46.8027 45.4684 47.68 46.1844 48.5787 47.0597ZM111.57 68.6315C111.496 69.1825 111.321 70.217 111.18 70.9302L110.924 72.2268L69.9609 72.2865C47.4315 72.3192 28.9974 72.2662 28.9962 72.1686C28.9944 71.9753 28.5988 69.3221 28.416 68.2779L28.3026 67.6296H70.0034H111.704L111.57 68.6315ZM110.043 77.7082C109.982 78.0646 109.741 79.5235 109.507 80.9498C109.272 82.3762 108.978 83.6759 108.853 83.8379C108.68 84.0632 106.772 84.1326 100.746 84.1326C92.1961 84.1326 91.8503 84.1797 91.284 85.4226C91.0765 85.8779 91.0023 89.4541 91.0023 98.9963V111.952L83.9885 111.952C74.6558 111.953 74.7447 111.909 74.7385 116.49L74.735 119.025H55.7877H36.8401L36.6996 118.141C36.2793 115.495 34.7857 106.525 34.1772 102.993C33.9205 101.502 33.5539 99.2083 33.3625 97.8961C33.1713 96.5838 32.96 95.3638 32.8933 95.1849C32.8266 95.0059 32.5609 93.5334 32.3027 91.9125C31.3326 85.822 30.4386 80.4361 30.1941 79.2085C30.055 78.51 29.9412 77.7407 29.9412 77.4993C29.9412 77.0723 31.0775 77.0598 70.0465 77.0598H110.152L110.043 77.7082ZM102.79 93.6282C102.79 100.622 102.56 100.4 109.796 100.399C113.765 100.399 114.582 100.338 115.282 99.9867C116.608 99.3219 116.692 98.9336 116.696 93.5039L116.7 88.6119H120.236H123.772V100.282V111.952H109.745H95.7174V100.282V88.6119H99.2538H102.79V93.6282ZM111.985 92.1483V95.6847H109.627H107.269V92.1483V88.6119H109.627H111.985V92.1483ZM86.2871 121.374C86.2871 126.506 86.4762 127.436 87.6276 127.961C87.9846 128.123 90.1137 128.219 93.3598 128.219C96.606 128.219 98.7351 128.123 99.092 127.961C100.243 127.436 100.433 126.506 100.433 121.374V116.667H103.969H107.505V128.337V140.007H93.3598H79.2144V128.337V116.667H82.7508H86.2871V121.374ZM95.7174 120.203V123.74H93.3598H91.0023V120.203V116.667H93.3598H95.7174V120.203ZM119.104 121.874L119.175 127.082L119.837 127.65C120.495 128.216 120.524 128.219 126.012 128.219C131.5 128.219 131.529 128.216 132.188 127.65L132.849 127.082L132.921 121.874L132.992 116.667H136.516H140.04V128.337V140.007H126.012H111.985V128.337V116.667H115.508H119.032L119.104 121.874ZM128.488 120.203V123.74H126.13H123.772V120.203V116.667H126.13H128.488V120.203ZM45.7628 130.94C47.7217 131.631 49.0375 133.46 49.0375 135.492C49.0375 136.413 48.8793 136.887 48.2713 137.783C47.0465 139.588 46.4823 139.889 44.3223 139.889C42.2585 139.889 41.7613 139.65 40.446 138.025C39.789 137.213 39.7251 136.982 39.7251 135.411C39.7251 133.857 39.7972 133.588 40.4625 132.663C40.9946 131.923 41.5527 131.492 42.4665 131.114C43.9829 130.488 44.4176 130.465 45.7628 130.94Z" fill="#FFD100"/>
</svg>
