<svg width="96" height="96" viewBox="0 0 96 96" fill="none" xmlns="http://www.w3.org/2000/svg">
<path fill-rule="evenodd" clip-rule="evenodd" d="M15 40.5V81H10.5H6V82.5V84H20.5839H35.1677L35.8652 85.4094C36.2486 86.1846 36.5625 86.8596 36.5625 86.9094C36.5625 86.9591 28.3359 87 18.2812 87H0V88.5V90H19.0905H38.181L38.7311 91.1548C39.8252 93.4513 42.3165 95.3282 44.8939 95.7975C45.6144 95.9286 50.181 96 57.8576 96H69.7089L71.9325 93.0073L74.1562 90.0144L85.0781 90.0073L96 90V88.5V87H85.5H75V85.5V84H82.5H90V82.5V81H85.5H81V40.5V0H48H15V40.5ZM78 42V81H76.5143H75.0287L74.9674 77.3906C74.9119 74.1169 74.8686 73.7115 74.5016 73.0312C73.6101 71.3794 72.3564 70.6564 70.1771 70.5375C68.8571 70.4657 68.6188 70.4012 68.52 70.0894C68.3293 69.489 67.305 68.442 66.4866 68.0115C65.853 67.6781 65.3181 67.5947 63.4284 67.5347C61.3515 67.4685 61.1272 67.4274 61.0213 67.0935C60.8293 66.4886 59.8065 65.4427 58.9866 65.013C58.3699 64.6898 57.8034 64.5956 56.1094 64.5351L54 64.4595V62.2298V60H58.5H63V48V36H61.5206H60.0413L59.961 31.9219C59.8851 28.0684 59.8522 27.7612 59.364 26.3456C58.0605 22.5656 55.3268 19.8221 51.6709 18.6249C50.3891 18.2053 49.8247 18.129 48 18.129C46.1753 18.129 45.6109 18.2053 44.3291 18.6249C40.6926 19.8158 37.8172 22.6907 36.6244 26.3291C36.1641 27.7326 36.1215 28.143 36.0431 31.9219L35.9587 36H34.4794H33V48V60H38.25H43.5V67.5383V75.0765L42.6422 73.6789C40.9478 70.9181 39.8477 70.2169 37.2188 70.2219C35.2575 70.2257 34.53 70.5195 33.2338 71.8309C32.1283 72.9493 31.6333 74.3263 31.7243 76.0312C31.7824 77.1227 31.941 77.6518 32.6664 79.1719L33.5387 81H28.7694H24V66V51H22.5H21V66V81H19.5H18V42V3H48H78V42ZM21 18V30H22.5H24V19.5V9H48H72V38.25V67.5H73.5H75V36.75V6H48H21V18ZM50.0625 21.2034C52.3551 21.7314 54.9128 23.7103 55.9485 25.7576C56.8466 27.5327 56.9953 28.4732 56.9977 32.3906L57 36H48H39L39.0045 32.3906C39.0071 30.4054 39.0966 28.4016 39.2034 27.9375C39.9129 24.8571 42.5687 22.1514 45.75 21.2679C46.7966 20.9771 48.9409 20.9452 50.0625 21.2034ZM24.3739 33.1643C23.0503 33.5976 22.0965 34.3986 21.4432 35.625C21.132 36.2094 21.0938 36.7434 21.0938 40.5C21.0938 44.2566 21.132 44.7906 21.4432 45.375C22.3414 47.0614 23.6807 47.8924 25.5 47.8924C27.3193 47.8924 28.6586 47.0614 29.5568 45.375C29.868 44.7906 29.9062 44.2566 29.9062 40.5C29.9062 35.9002 29.8618 35.6745 28.713 34.4359C27.7144 33.3592 25.6373 32.7506 24.3739 33.1643ZM26.5397 36.4603C26.9963 36.9167 27 36.9495 27 40.5C27 44.0505 26.9963 44.0833 26.5397 44.5397C26.2496 44.8299 25.8652 45 25.5 45C25.1348 45 24.7504 44.8299 24.4603 44.5397C24.0037 44.0833 24 44.0505 24 40.5C24 36.9495 24.0037 36.9167 24.4603 36.4603C24.7504 36.1701 25.1348 36 25.5 36C25.8652 36 26.2496 36.1701 26.5397 36.4603ZM60 48V57H57H54V54.8779C54 51.3879 53.2367 49.7514 51.099 48.6581C48.1946 47.1728 44.715 48.6641 43.7861 51.7924C43.6033 52.4079 43.5 53.5215 43.5 54.8779V57H39.75H36V48V39H48H60V48ZM46.4062 42.1217C44.1041 42.4901 41.5239 43.5827 40.1601 44.7668L39.3514 45.4688L40.3614 46.461L41.3713 47.4531L42.4826 46.7196C44.4392 45.4281 45.5327 45.1101 48 45.1151C50.502 45.1202 51.6127 45.4391 53.4874 46.6911L54.6287 47.4531L55.6386 46.461L56.6486 45.4688L55.8399 44.7658C54.8299 43.8878 52.7781 42.8698 51.2132 42.4706C49.9721 42.1539 47.3801 41.9659 46.4062 42.1217ZM49.8812 51.2844C51.0141 51.8704 51 51.7311 51 62.3344V72H52.5H54V69.75V67.5H55.7897C57.4401 67.5 57.6154 67.5358 58.0397 67.9603C58.4934 68.4139 58.5 68.4673 58.5 71.7103V75H60H61.5V72.75V70.5H63.2897C64.9401 70.5 65.1154 70.5358 65.5397 70.9603C65.9934 71.4139 66 71.4673 66 74.7103V78H67.5H69V75.75V73.5H70.0397C70.8938 73.5 71.1619 73.5823 71.5397 73.9603L72 74.4204V81.2393V88.0581L70.1719 90.5246L68.3438 92.9914L56.625 92.9488L44.9062 92.9062L44.0055 92.4461C42.2473 91.5478 41.7244 90.7528 38.0289 83.3586C35.1405 77.5789 34.5938 76.3539 34.5938 75.6624C34.5938 73.5983 37.0995 72.2803 38.7669 73.4676C39.1268 73.7237 40.1407 75.2121 41.4684 77.4323L43.5938 80.9865L45.0469 80.9932L46.5 81V66.8344C46.5 51.3514 46.4618 51.9006 47.5806 51.2934C48.2479 50.9314 49.1912 50.9276 49.8812 51.2844ZM0 82.5V84H1.5H3V82.5V81H1.5H0V82.5ZM93 82.5V84H94.5H96V82.5V81H94.5H93V82.5Z" fill="#7F7F7F"/>
</svg>
