<svg width="63" height="60" viewBox="0 0 63 60" fill="none" xmlns="http://www.w3.org/2000/svg">
<path fill-rule="evenodd" clip-rule="evenodd" d="M21.4206 0.244816C21.1318 0.391303 20.7948 0.657342 20.6716 0.835931C20.5484 1.01464 19.5181 2.91762 18.3818 5.06499C17.2455 7.21237 16.2684 8.99838 16.2106 9.03417C16.1526 9.06984 14.0812 9.45408 11.6074 9.88788C9.13359 10.3218 6.9418 10.7634 6.73666 10.8691C6.1263 11.1841 5.69876 11.851 5.64156 12.5774C5.6015 13.0885 6.50736 20.2326 6.79324 21.6594C6.85192 21.9521 6.52178 22.3344 3.67698 25.2684C1.92702 27.0734 0.385034 28.7229 0.250659 28.9339C-0.0835529 29.4584 -0.0835529 30.5479 0.250659 31.0723C0.385157 31.2834 1.92554 32.9314 3.67377 34.7345C6.71065 37.8667 6.84934 38.0303 6.78338 38.405C6.55063 39.7276 5.61259 46.7578 5.61198 47.1837C5.61074 48.0801 6.00659 48.757 6.76107 49.1487C6.95277 49.248 9.13359 49.6844 11.6074 50.1184C14.0812 50.5522 16.1526 50.9364 16.2106 50.9721C16.2685 51.0079 17.304 52.8983 18.5115 55.1732C21.031 59.9191 21.0587 59.953 22.4299 59.9517C23.1472 59.951 23.3502 59.8669 27.2607 57.953C29.5058 56.8542 31.4135 55.9551 31.5 55.9551C31.5865 55.9551 33.4929 56.8489 35.7366 57.9413C38.3359 59.2068 40.0017 59.9484 40.3281 59.985C40.9917 60.0597 41.5971 59.854 42.0689 59.3938C42.2807 59.1873 43.3778 57.2695 44.5643 55.0319C45.729 52.8356 46.7297 51.009 46.7883 50.9728C46.8469 50.9368 48.9188 50.5522 51.3926 50.1184C53.8664 49.6844 56.0582 49.2429 56.2633 49.1371C56.8737 48.8221 57.3012 48.1552 57.3584 47.4288C57.3985 46.9178 56.4926 39.7736 56.2068 38.3469C56.1481 38.0541 56.4782 37.6719 59.323 34.7378C61.073 32.9329 62.6148 31.2834 62.7493 31.0723C63.0836 30.5479 63.0836 29.4584 62.7493 28.9339C62.6148 28.7229 61.0745 27.0748 59.3262 25.2717C56.2894 22.1395 56.1507 21.976 56.2166 21.6012C56.4494 20.2786 57.3874 13.2485 57.388 12.8225C57.3893 11.9262 56.9934 11.2492 56.2389 10.8576C56.0472 10.7582 53.8664 10.3218 51.3926 9.88788C48.9188 9.45408 46.8474 9.06984 46.7894 9.03417C46.7315 8.99838 45.696 7.10794 44.4885 4.83303C41.9688 0.0866442 41.9409 0.0526976 40.5701 0.0551575C39.8532 0.0563875 39.6481 0.141377 35.7442 2.05383C33.5017 3.1523 31.5918 4.05115 31.5 4.05115C31.4082 4.05115 29.4983 3.15611 27.2558 2.06231C22.7151 -0.152704 22.3987 -0.251223 21.4206 0.244816ZM27.1852 7.01373C30.5229 8.64071 30.8777 8.78646 31.5 8.78646C32.1223 8.78646 32.4771 8.64071 35.8148 7.01373C37.815 6.03875 39.4837 5.22489 39.523 5.20521C39.5624 5.18553 40.45 6.77807 41.4955 8.74427C42.5411 10.7105 43.5352 12.4591 43.7047 12.6302C43.8742 12.8013 44.1844 13.0136 44.394 13.102C44.6035 13.1904 46.5437 13.5732 48.7054 13.9526C50.8671 14.3322 52.6477 14.6544 52.6622 14.6689C52.6766 14.6833 52.4424 16.4051 52.1416 18.4953C51.5147 22.8503 51.493 23.2551 51.8549 23.8472C51.9975 24.0807 53.3426 25.5379 54.8439 27.0857C56.3453 28.6333 57.5737 29.9462 57.5737 30.0031C57.5737 30.0601 56.3453 31.3729 54.8439 32.9206C53.3426 34.4683 51.9975 35.9256 51.8549 36.159C51.493 36.7511 51.5147 37.1559 52.1416 41.5109C52.4424 43.6011 52.677 45.3227 52.663 45.3367C52.6488 45.3507 50.8636 45.6749 48.6957 46.0572C46.5278 46.4394 44.5873 46.8226 44.3835 46.9086C44.1797 46.9946 43.8742 47.205 43.7047 47.3761C43.5352 47.5471 42.5411 49.2958 41.4955 51.262C40.45 53.2282 39.5624 54.8205 39.523 54.8004C39.4837 54.7804 37.815 53.9665 35.8148 52.9919C32.4775 51.3656 32.1222 51.2198 31.5 51.2198C30.8778 51.2198 30.5225 51.3656 27.1852 52.9919C25.185 53.9665 23.5163 54.7804 23.4769 54.8004C23.4376 54.8205 22.55 53.2282 21.5045 51.262C20.4589 49.2958 19.4648 47.5471 19.2953 47.3761C19.1258 47.205 18.8203 46.9946 18.6165 46.9086C18.4127 46.8226 16.4722 46.4394 14.3043 46.0572C12.1364 45.6749 10.3512 45.3507 10.337 45.3367C10.323 45.3227 10.5576 43.6011 10.8584 41.5109C11.4853 37.1559 11.507 36.7511 11.1451 36.159C11.0025 35.9256 9.6574 34.4683 8.1561 32.9206C6.65468 31.3729 5.42632 30.0601 5.42632 30.0031C5.42632 29.9462 6.65468 28.6333 8.1561 27.0857C9.6574 25.5379 11.0025 24.0807 11.1451 23.8472C11.507 23.2551 11.4853 22.8503 10.8584 18.4953C10.5576 16.4051 10.3234 14.6833 10.3378 14.6689C10.3523 14.6544 12.1329 14.3322 14.2946 13.9526C16.4563 13.5732 18.3965 13.1904 18.606 13.102C18.8156 13.0136 19.1258 12.8013 19.2953 12.6302C19.4648 12.4591 20.4589 10.7105 21.5045 8.74427C22.55 6.77807 23.4376 5.18553 23.4769 5.20521C23.5163 5.22489 25.185 6.03875 27.1852 7.01373ZM22.6239 17.6829C20.8783 18.3321 19.7088 19.5129 19.1286 21.2114C18.7165 22.4181 18.9103 24.2378 19.5907 25.5504C20.2216 26.7677 21.9415 27.9195 23.5176 28.18C25.7333 28.5462 28.1247 27.3148 29.1456 25.2817C30.6166 22.3522 29.2169 18.8671 26.1188 17.7452C25.1362 17.3892 23.4922 17.3601 22.6239 17.6829ZM40.6227 18.6464C40.4188 18.6854 36.908 22.1046 30.2475 28.7513C20.8111 38.168 20.1755 38.829 20.0996 39.3044C19.9069 40.511 20.9735 41.5691 22.1868 41.375C22.6499 41.301 23.3876 40.5963 32.5256 31.4981C37.9375 26.1097 42.4827 21.5401 42.6259 21.3433C42.982 20.854 42.9935 19.9336 42.6492 19.4731C42.1235 18.7702 41.438 18.4905 40.6227 18.6464ZM25.4498 21.3633C26.7873 22.3405 26.1384 24.5022 24.4563 24.6731C22.7532 24.8462 21.8055 22.7676 23.0303 21.5455C23.6919 20.8855 24.6926 20.8101 25.4498 21.3633ZM37.4447 31.9049C34.7537 32.5138 32.8793 35.269 33.3259 37.9586C33.7793 40.6879 35.9559 42.5486 38.6955 42.5486C41.1298 42.5486 43.1015 41.1031 43.8875 38.742C44.1815 37.8587 44.0997 36.1052 43.7191 35.1389C42.7715 32.7323 40.0307 31.3195 37.4447 31.9049ZM39.5044 35.5074C40.694 36.1125 40.8878 37.5967 39.8976 38.5182C39.4139 38.9682 39.1595 39.0473 38.4037 38.9826C36.9963 38.862 36.3278 37.1251 37.2621 36.0172C37.8583 35.3104 38.7283 35.1125 39.5044 35.5074Z" fill="#FDD913"/>
</svg>
