<svg width="61" height="63" viewBox="0 0 61 63" fill="none" xmlns="http://www.w3.org/2000/svg">
<path fill-rule="evenodd" clip-rule="evenodd" d="M29.0519 0.232043C28.0314 0.555223 27.6394 0.833992 26.3969 2.12105C25.0267 3.54036 24.0048 4.30224 22.5505 4.98859C20.7701 5.82883 19.6394 6.07574 17.5815 6.07365C16.0951 6.07217 15.6361 6.02148 14.4233 5.72463C12.8764 5.34597 12.0156 5.34301 10.9355 5.71245C9.65647 6.14992 8.37609 7.49037 7.95198 8.83575C7.72167 9.56663 7.70565 9.97777 7.70565 15.1407C7.70565 20.4998 7.71298 20.671 7.9541 20.9098C8.29323 21.2456 8.98665 21.2364 9.311 20.8916C9.551 20.6364 9.56081 20.4326 9.59535 15.0074L9.63112 9.3875L10.0074 8.78223C10.218 8.44355 10.6436 8.00399 10.9736 7.78415C11.8078 7.22858 12.4723 7.1587 13.8502 7.48139C15.7069 7.9164 16.7461 8.0286 18.2026 7.95171C21.7859 7.76225 24.7912 6.3753 27.4573 3.68073C29.036 2.08525 29.3383 1.90933 30.5008 1.90933C31.6633 1.90933 31.9657 2.08525 33.5443 3.68073C35.5955 5.75379 37.5101 6.87206 40.2432 7.59334C41.2741 7.86535 41.6975 7.90816 43.4202 7.91431C45.2005 7.92071 45.5551 7.88515 46.8213 7.57329C47.8256 7.32601 48.3927 7.24667 48.7801 7.2992C49.8141 7.43957 50.6932 8.0858 51.1386 9.03308L51.4301 9.65323L51.4314 22.0202C51.4326 34.3958 51.4049 35.3438 50.9817 37.3861C50.4659 39.8751 49.1447 42.8701 47.613 45.0222C46.3791 46.756 43.9867 49.07 42.24 50.2194C38.1861 52.8869 33.961 54.0155 29.0722 53.7369C20.589 53.2534 13.0003 47.3059 10.4972 39.1788C9.69137 36.5626 9.66417 36.2733 9.60404 29.6877C9.55125 23.8952 9.5387 23.6304 9.30566 23.3828C8.9823 23.0389 8.29037 23.0372 7.9449 23.3794C7.68962 23.6322 7.68776 23.6911 7.74105 29.6843C7.789 35.077 7.8218 35.8743 8.04304 37.0258C8.34776 38.6118 8.81286 40.1483 9.47162 41.7459L9.97225 42.9599L7.53459 45.3762C5.42762 47.4647 5.09694 47.8436 5.09694 48.1698C5.09694 48.644 5.54439 49.082 6.02899 49.082C6.32576 49.082 6.76626 48.7074 8.63957 46.8621L10.893 44.6422L11.3684 45.3551C12.9831 47.7761 15.4517 50.2695 17.6747 51.7247C18.0676 51.982 18.3889 52.2263 18.3889 52.2679C18.3889 52.3994 9.45746 61.1917 9.39075 61.1257C9.35584 61.0911 9.13659 59.8655 8.90354 58.4024C8.45596 55.5905 8.34093 55.2663 7.62602 54.8024C7.40714 54.6604 6.36701 54.4411 4.61743 54.1678C3.14674 53.9382 1.91505 53.7224 1.88052 53.6881C1.84598 53.6539 2.3599 53.0868 3.02251 52.4282C4.10637 51.3507 4.22737 51.1853 4.22737 50.7803C4.22737 50.2822 3.7886 49.8201 3.31568 49.8201C3.15295 49.8201 2.5245 50.3504 1.60275 51.2656C0.0447309 52.8126 -0.122102 53.1153 0.0581471 54.067C0.161999 54.615 0.765977 55.304 1.28325 55.4645C1.50188 55.5323 2.79705 55.76 4.1614 55.9705C5.52563 56.1809 6.65483 56.3658 6.67049 56.3813C6.68614 56.3968 6.87285 57.515 7.08527 58.8661C7.29782 60.2172 7.52838 61.502 7.59782 61.7211C7.7531 62.2113 8.49112 62.8337 9.03783 62.9353C10.1013 63.1329 10.0114 63.2038 15.2401 58.0373L20.1037 53.2315L21.4513 53.7905C25.022 55.272 28.1798 55.805 32.0639 55.582C34.6251 55.4348 36.898 54.891 39.5503 53.7905L40.8979 53.2315L45.7615 58.0373C51.0098 63.2232 50.8958 63.1337 51.9942 62.9296C52.5459 62.8272 53.2418 62.2302 53.4087 61.7164C53.479 61.4999 53.7115 60.2155 53.9254 58.8623C54.1393 57.509 54.3246 56.3909 54.3371 56.3774C54.3495 56.364 55.476 56.1809 56.8402 55.9705C58.2046 55.76 59.4998 55.5323 59.7184 55.4645C60.2357 55.304 60.8396 54.615 60.9435 54.067C61.1206 53.1321 60.9462 52.8077 59.4717 51.3276C58.2794 50.1309 58.0379 49.9431 57.6908 49.9431C57.405 49.9431 57.215 50.0365 57.0318 50.2673C56.564 50.8562 56.674 51.1068 57.9764 52.4196C58.6375 53.086 59.1514 53.658 59.1183 53.6909C59.0852 53.7237 57.8471 53.9407 56.3671 54.1733C53.531 54.6188 53.2013 54.733 52.7408 55.4291C52.6023 55.6385 52.3751 56.699 52.1032 58.4055C51.8709 59.8634 51.6506 61.0863 51.6137 61.1228C51.5768 61.1593 49.5225 59.1801 47.0486 56.7246C43.0244 52.7302 42.5747 52.2449 42.7796 52.1164C45.1856 50.6095 47.9593 47.8734 49.6357 45.3533L50.1111 44.6386L52.3197 46.8234C54.3785 48.8599 54.5593 49.0081 54.9841 49.0081C55.3104 49.0081 55.5058 48.9274 55.6723 48.7238C56.1669 48.1189 56.0636 47.9623 53.4664 45.3785L51.0281 42.9529L51.4679 41.9268C52.3373 39.8986 52.892 37.8196 53.1688 35.5527C53.2478 34.905 53.296 29.801 53.296 22.0733C53.296 11.0492 53.2735 9.56047 53.0979 8.96824C52.6063 7.31101 51.2843 6.02505 49.6351 5.59964C48.6065 5.33428 48.0528 5.35913 46.5046 5.73976C44.6854 6.1872 42.3565 6.21229 40.7025 5.80238C38.278 5.20166 36.3433 4.00318 34.4338 1.91905C32.8775 0.220602 30.9729 -0.376427 29.0519 0.232043ZM30.1766 3.69107C29.9982 3.73954 29.2435 4.3875 28.4996 5.13092C27.7555 5.87435 26.7044 6.77475 26.1636 7.13189C24.2363 8.40468 21.9666 9.279 19.7601 9.59849C18.2783 9.81304 15.3874 9.68411 14.0411 9.34322C12.3982 8.9274 11.8655 9.0193 11.5001 9.78191C11.3313 10.1344 11.3084 11.5552 11.3101 21.605C11.3121 32.9504 11.372 35.0306 11.7499 36.8701C12.7523 41.7488 15.7725 46.1455 20.0283 48.9213C22.1334 50.2942 24.5974 51.2709 27.1468 51.7429C28.8122 52.0514 32.2432 52.0575 33.8827 51.755C41.4851 50.3523 47.5222 44.5934 49.1972 37.1462C49.5914 35.3935 49.6932 33.6357 49.6934 28.5846C49.6935 23.9026 49.6865 23.7638 49.436 23.4484C49.2365 23.197 49.0695 23.1242 48.6935 23.1242C47.8348 23.1242 47.8569 22.9697 47.7921 29.3984C47.7291 35.636 47.6783 36.1513 46.9018 38.4422C46.5399 39.5098 45.6036 41.5776 45.482 41.5776C45.4403 41.5776 43.8416 40.0275 41.9295 38.133C38.8802 35.1118 38.4057 34.6883 38.0699 34.6883C37.5878 34.6883 37.1468 35.1306 37.1468 35.6141C37.1468 35.9168 37.6889 36.5084 40.7493 39.5456C42.7307 41.512 44.3516 43.1749 44.3513 43.2411C44.3505 43.4496 42.8049 45.1423 41.9143 45.9103C37.419 49.7865 31.3663 51.1236 25.647 49.5039C24.1752 49.0871 21.8041 47.9399 20.5169 47.022C16.314 44.0248 13.7582 39.569 13.2998 34.4399C13.1551 32.8208 13.1212 12.4212 13.2633 12.4212C13.3138 12.4212 16.599 15.6321 20.564 19.5565C27.1163 26.0421 27.8094 26.6919 28.1741 26.6919C28.6962 26.6919 29.0722 26.3186 29.0722 25.8003C29.0722 25.4365 28.4461 24.7808 22.0492 18.445L15.0261 11.4891L17.0122 11.5392C19.4277 11.6001 20.8865 11.3934 23.0474 10.6842C25.5164 9.87369 27.412 8.73807 29.3163 6.92828L30.5008 5.80263L31.6188 6.87083C34.0847 9.22684 37.2174 10.7909 40.6159 11.363C42.5758 11.6928 45.691 11.5865 47.4885 11.1284L47.8301 11.0413V15.8252C47.8301 21.2357 47.8171 21.1558 48.6977 21.1558C49.0693 21.1558 49.2371 21.0822 49.436 20.8317C49.6871 20.5155 49.6935 20.3815 49.6935 15.345C49.6935 10.9437 49.6652 10.1234 49.5016 9.78191C49.1589 9.06691 48.5681 8.92814 47.3022 9.2651C45.1358 9.8417 41.8742 9.85819 39.7246 9.30336C36.94 8.58466 34.6272 7.24728 32.51 5.13117C31.1485 3.77042 30.7621 3.532 30.1766 3.69107ZM38.0519 20.2196C36.9226 20.5853 36.464 21.0072 32.24 25.5673L28.0163 30.1269L26.0909 28.1644C23.8002 25.8296 23.4974 25.6492 21.8672 25.6474C20.9831 25.6464 20.6972 25.6992 20.1097 25.9719C18.8009 26.5797 17.8754 27.8266 17.6996 29.2191C17.6014 29.9982 17.8942 31.2305 18.3344 31.8912C18.6436 32.355 23.4353 37.4166 24.6415 38.5534C26.2805 40.0982 28.6953 40.3907 30.5382 39.2675C30.8765 39.0614 33.3018 36.5524 36.8447 32.7435C43.3479 25.752 43.2968 25.82 43.2918 24.1699C43.2883 22.9772 42.9224 22.0777 42.1158 21.2789C41.0972 20.2701 39.324 19.808 38.0519 20.2196ZM39.8852 22.0165C40.677 22.2343 41.4986 23.3493 41.4919 24.1967C41.4904 24.3849 41.3868 24.7604 41.2616 25.0311C40.9776 25.6449 30.425 37.052 29.6312 37.6031C28.6664 38.273 27.3394 38.2736 26.3882 37.6047C25.9002 37.2615 20.1726 31.3035 19.8749 30.8294C19.3626 30.0135 19.4755 28.9844 20.1624 28.2097C21.1896 27.0512 22.6457 27.1835 23.9101 28.5499C24.248 28.9151 25.2089 29.9197 26.0454 30.7824C28.0724 32.8726 27.9387 32.8705 29.8512 30.8439C30.6334 30.0149 32.7082 27.7868 34.4618 25.8922C36.5091 23.6806 37.834 22.3485 38.1635 22.1708C38.7202 21.8705 39.1986 21.8275 39.8852 22.0165Z" fill="#FDD913"/>
</svg>
