<svg width="115" height="78" viewBox="0 0 115 78" fill="none" xmlns="http://www.w3.org/2000/svg">
<path d="M22.6872 64.3457C20.0241 64.3457 17.5512 63.8961 15.2685 62.9969C12.9859 62.063 10.9972 60.7661 9.30251 59.106C7.60781 57.4459 6.29356 55.5091 5.35975 53.2956C4.42593 51.0475 3.95903 48.6092 3.95903 45.9807C3.95903 43.3522 4.42593 40.9312 5.35975 38.7177C6.29356 36.4697 7.60781 34.5156 9.30251 32.8555C10.9972 31.1954 12.9859 29.9157 15.2685 29.0165C17.5512 28.0826 20.0241 27.6157 22.6872 27.6157C25.1427 27.6157 27.46 28.0135 29.6389 28.8089C31.8178 29.6044 33.7027 30.8149 35.2936 32.4404L34.2042 33.5818C32.5787 32.0254 30.7975 30.9187 28.8607 30.2615C26.9585 29.5698 24.9179 29.224 22.739 29.224C20.318 29.224 18.07 29.6563 15.9948 30.5209C13.9197 31.351 12.1039 32.5269 10.5476 34.0487C9.02582 35.5704 7.83262 37.3516 6.96798 39.3921C6.13792 41.3981 5.72289 43.5943 5.72289 45.9807C5.72289 48.3671 6.13792 50.5806 6.96798 52.6212C7.83262 54.6271 9.02582 56.391 10.5476 57.9128C12.1039 59.4345 13.9197 60.6277 15.9948 61.4924C18.07 62.3224 20.318 62.7375 22.739 62.7375C24.9179 62.7375 26.9585 62.4089 28.8607 61.7518C30.7975 61.0601 32.5787 59.9187 34.2042 58.3278L35.2936 59.4691C33.7027 61.0946 31.8178 62.3224 29.6389 63.1525C27.46 63.948 25.1427 64.3457 22.6872 64.3457ZM44.6261 64.1382V27.8232H46.3899V64.1382H44.6261ZM66.5727 64.1382V29.4315H53.2399V27.8232H81.6175V29.4315H68.2847V64.1382H66.5727ZM96.8547 64.1382V51.2204L97.2698 52.4136L82.1731 27.8232H84.0926L98.2036 50.7535H97.3216L111.484 27.8232H113.352L98.2036 52.4136L98.6186 51.2204V64.1382H96.8547Z" fill="white"/>
<path d="M4.50024 12.8618H12.766V14.8134H4.50024V12.8618ZM4.70688 20.0024H14.0747V22H2.41084V5.92772H13.7533V7.92528H4.70688V20.0024ZM17.7925 22V5.92772H20.0886V20.0024H28.7905V22H17.7925ZM33.5146 12.8618H41.7804V14.8134H33.5146V12.8618ZM33.7213 20.0024H43.0891V22H31.4252V5.92772H42.7677V7.92528H33.7213V20.0024ZM53.9711 22.1837C52.7465 22.1837 51.6138 21.9847 50.573 21.5867C49.5474 21.1734 48.6519 20.5994 47.8866 19.8647C47.1366 19.1146 46.5472 18.2421 46.1186 17.2472C45.6901 16.2522 45.4758 15.1578 45.4758 13.9639C45.4758 12.7699 45.6901 11.6755 46.1186 10.6805C46.5472 9.68557 47.1442 8.82073 47.9096 8.086C48.6749 7.33596 49.5704 6.76195 50.5959 6.36397C51.6368 5.95068 52.7695 5.74404 53.9941 5.74404C55.2339 5.74404 56.3743 5.95834 57.4152 6.38693C58.4713 6.80022 59.3668 7.42015 60.1015 8.24672L58.6091 9.69323C57.9968 9.05034 57.308 8.57582 56.5427 8.26968C55.7773 7.94824 54.9584 7.78751 54.0859 7.78751C53.1828 7.78751 52.3409 7.94058 51.5603 8.24672C50.7949 8.55286 50.1291 8.98145 49.5627 9.5325C48.9964 10.0836 48.5524 10.7418 48.231 11.5071C47.9249 12.2571 47.7718 13.0761 47.7718 13.9639C47.7718 14.8517 47.9249 15.6782 48.231 16.4436C48.5524 17.1936 48.9964 17.8442 49.5627 18.3952C50.1291 18.9463 50.7949 19.3749 51.5603 19.681C52.3409 19.9871 53.1828 20.1402 54.0859 20.1402C54.9584 20.1402 55.7773 19.9871 56.5427 19.681C57.308 19.3596 57.9968 18.8697 58.6091 18.2115L60.1015 19.658C59.3668 20.4846 58.4713 21.1122 57.4152 21.5408C56.3743 21.9694 55.2263 22.1837 53.9711 22.1837ZM66.3891 22V7.92528H60.8786V5.92772H74.1727V7.92528H68.6622V22H66.3891ZM76.6734 22V5.92772H82.9416C84.3498 5.92772 85.5514 6.14967 86.5463 6.59357C87.5413 7.03747 88.3066 7.68036 88.8424 8.52225C89.3781 9.36413 89.646 10.3667 89.646 11.5301C89.646 12.6934 89.3781 13.696 88.8424 14.5379C88.3066 15.3644 87.5413 15.9997 86.5463 16.4436C85.5514 16.8875 84.3498 17.1094 82.9416 17.1094H77.9362L78.9694 16.0533V22H76.6734ZM87.4188 22L83.3319 16.1681H85.7887L89.9215 22H87.4188ZM78.9694 16.2829L77.9362 15.1578H82.8727C84.3422 15.1578 85.4519 14.844 86.2019 14.2164C86.9673 13.5735 87.35 12.6781 87.35 11.5301C87.35 10.382 86.9673 9.49424 86.2019 8.86665C85.4519 8.23907 84.3422 7.92528 82.8727 7.92528H77.9362L78.9694 6.77726V16.2829ZM93.3555 22V5.92772H95.6516V22H93.3555ZM107.65 22.1837C106.425 22.1837 105.293 21.9847 104.252 21.5867C103.226 21.1734 102.331 20.5994 101.566 19.8647C100.815 19.1146 100.226 18.2421 99.7975 17.2472C99.369 16.2522 99.1547 15.1578 99.1547 13.9639C99.1547 12.7699 99.369 11.6755 99.7975 10.6805C100.226 9.68557 100.823 8.82073 101.588 8.086C102.354 7.33596 103.249 6.76195 104.275 6.36397C105.316 5.95068 106.448 5.74404 107.673 5.74404C108.913 5.74404 110.053 5.95834 111.094 6.38693C112.15 6.80022 113.046 7.42015 113.78 8.24672L112.288 9.69323C111.676 9.05034 110.987 8.57582 110.222 8.26968C109.456 7.94824 108.637 7.78751 107.765 7.78751C106.862 7.78751 106.02 7.94058 105.239 8.24672C104.474 8.55286 103.808 8.98145 103.242 9.5325C102.675 10.0836 102.231 10.7418 101.91 11.5071C101.604 12.2571 101.451 13.0761 101.451 13.9639C101.451 14.8517 101.604 15.6782 101.91 16.4436C102.231 17.1936 102.675 17.8442 103.242 18.3952C103.808 18.9463 104.474 19.3749 105.239 19.681C106.02 19.9871 106.862 20.1402 107.765 20.1402C108.637 20.1402 109.456 19.9871 110.222 19.681C110.987 19.3596 111.676 18.8697 112.288 18.2115L113.78 19.658C113.046 20.4846 112.15 21.1122 111.094 21.5408C110.053 21.9694 108.905 22.1837 107.65 22.1837Z" fill="white"/>
</svg>
